<svg id="Layer_1" data-name="Layer 1" xmlns="http://www.w3.org/2000/svg" viewBox="0 0 926.75 816.95"><defs><style>.cls-1{fill:#fff;}</style></defs><path class="cls-1" d="M181.84,313.1c-27.77-.58-54.74-4.52-80.11-16.58-7-3.31-8-4.66-6.86-12.12,2.15-13.83,4.38-27.64,6.6-41.45a13.32,13.32,0,0,1,1-3.83,2.26,2.26,0,0,1,2.16-.42c6,4.75,11.72,9.8,17.83,14.37,3.1,2.31,3.65,4.7,1.66,7.6-4.17,6.06-.83,8.21,3.87,10.1A30.55,30.55,0,0,0,148.56,272c6.4-1.88,10.21-7.34,9.36-14a61,61,0,0,0-1.82-9.31c-1.29-4.39.61-7,4.23-8.93,4.11-2.19,8.41-4.1,12.26-6.67,8.83-5.88,9.79-13.37,3.11-21.56-7.8-9.56-7.13-13.77,3.18-20.74,2.88-1.95,6-3.76,8.3-6.32,7.82-8.81,7.17-16.36-1-23.86a62,62,0,0,0-6-4.51c-2.31-1.66-2.44-3.38-.29-5.26a28,28,0,0,1,2.26-2c5.66-4,8.56-9.25,7.14-16.3-.68-3.4.53-3.85,3.64-3.28,7.34,1.34,14.77,2.21,22.11,3.52a6.32,6.32,0,0,1,3.86,2.57c1.13,1.84.71,3.62-2.1,3.53a9.09,9.09,0,0,0-2-.23c-1.7.37-3.36.91-5,1.39,1.41,1.07,2.68,2.78,4.25,3.12a100.34,100.34,0,0,1,33.61,13.45c13.54,8.73,24,20.62,33.56,33.19,8.33,11,15.39,22.88,22.89,34.44,3.31,5.1,4.88,5.46,9.09,1.22,10.45-10.52,23.91-16,36.82-22.56,8.39-4.24,16.17-9.69,24.4-14.27a6.67,6.67,0,0,1,5.71.06c2.82,1.76,6.46,3.75,5,8.16-1.51,4.57-2.77,9.42-5.27,13.43-8.36,13.36-16.08,27.38-26.2,39.31-11.81,13.93-27.69,23.1-44.62,30.35-7.31,3.13-13.48,2.23-20.48-.54-24.21-9.57-42.81-25.86-57.82-46.7-2.24-3.11-4.39-6.3-6.91-9.16-1.18-1.33-3.15-1.95-4.76-2.9.26,1.81-.09,4.06.87,5.35,6.34,8.54,12.71,17.08,19.58,25.19,3.95,4.66,8.84,8.54,13.36,12.72,2.65,2.46,4.2,4.94,3.79,9.06-.51,5.24.38,10.62.58,15.94.32,8.24.14,8.52-7.62,11.79a150.81,150.81,0,0,1-40.5,10.39C200.15,312.21,191,312.47,181.84,313.1Z" transform="translate(-53.66 -23.56)"/><path class="cls-1" d="M800.63,525.65h-46c-5.53,0-5.89-.28-5.36-5.6,2.84-28.16,5.8-56.31,8.55-84.47.32-3.28,1.63-4.24,4.67-4.24q45.72,0,91.44-.15c3.51,0,4.11,1.36,3.88,4.51-2.05,28.4-4.07,56.81-5.83,85.23-.28,4.51-2.75,4.58-5.92,4.58H800.63Z" transform="translate(-53.66 -23.56)"/><path class="cls-1" d="M486.72,525.58h-44c-5.45,0-5.82-.2-5.29-5.63q3-30.57,6.22-61.1c.77-7.45,2-14.87,2.38-22.33.23-4.31,2.14-5.25,5.91-5.22,12.49.12,25,0,37.47,0,16.82,0,33.64.18,50.45.09,4.22,0,5.25,1.28,4.79,5.56q-4.42,42-8.23,84c-.36,3.94-1.94,4.59-5.27,4.57-14.82-.1-29.64,0-44.46,0Z" transform="translate(-53.66 -23.56)"/><path class="cls-1" d="M382.31,525.65H338.83c-5.85,0-6.07,0-5.52-5.83,2.08-21.89,4.3-43.76,6.48-65.63.56-5.63,1.34-11.25,1.68-16.9.28-4.53,2.1-6.15,6.81-6.05,14.66.32,29.32.14,44,.16s29.33.13,44,.05c3.8,0,5.14.9,4.67,5.17q-4.64,42-8.63,84c-.38,4.09-1.84,4.93-5.49,4.89-14.83-.15-29.66-.06-44.49-.06Z" transform="translate(-53.66 -23.56)"/><path class="cls-1" d="M694.27,525.57c-15,0-30-.12-45,.08-3.92.05-4.87-1.24-4.47-4.95,1.69-15.55,3.18-31.13,4.74-46.71.75-7.45,1.59-14.89,2.21-22.36.22-2.66,1.42-3.6,4-4a32.57,32.57,0,0,0,9-2.66c3.44-1.74,5.51-1,7.48,2.06,8,12.46,16.13,24.85,24.22,37.26a54.72,54.72,0,0,0,4.57,6.52c.74.83,2.38.87,3.6,1.27.05-1.25.5-2.68.05-3.71a49.16,49.16,0,0,0-3.76-6.46q-14.67-22.64-29.37-45.24a33.33,33.33,0,0,1-2-4.41,23.17,23.17,0,0,1,4.65-.91c24.5.06,49,.24,73.48.27,3.66,0,5.18.53,4.71,5-3,28.15-5.61,56.35-8.11,84.55-.33,3.71-1.87,4.32-5,4.3-15-.09-30,0-45,0Z" transform="translate(-53.66 -23.56)"/><path class="cls-1" d="M496.6,426.31c-15,0-30,0-45,0-3,0-4.6-.58-4.23-4.21q3.94-39,7.52-78c.35-4,1.92-5,5.62-5q44.7.15,89.41,0c3.6,0,4.43,1,4.06,4.56q-4.06,39-7.7,78c-.34,3.71-1.72,4.71-5.27,4.66-14.82-.17-29.64-.07-44.46-.07Z" transform="translate(-53.66 -23.56)"/><path class="cls-1" d="M708.75,426.47q-19.72,0-39.47,0a10,10,0,0,1-3.43-.36c-3.79-1.38-10.66-13.81-10.23-17.92,1.86-17.71,3.64-35.42,5.44-53.14.4-4,.88-7.94,1.11-11.93.18-2.95,1.52-4,4.43-4q46,.09,91.94,0c3.1,0,3.46,1.24,3.19,4q-4,39-7.64,78c-.37,4-1.84,5.29-5.87,5.22-13.15-.24-26.31-.09-39.47-.09Z" transform="translate(-53.66 -23.56)"/><path class="cls-1" d="M514.85,244.45c-15,0-30-.09-44.93.07-3.81,0-4.89-1.24-4.51-5q3.94-38.72,7.55-77.48c.33-3.57,1.35-4.9,5.06-4.78,9.32.31,18.64.33,28,.25,2.71,0,3.85,1.11,4.55,3.52,1.16,4,3.72,6.63,8,7.31a8.23,8.23,0,0,0,2.28-.28,5.94,5.94,0,0,0-.45-2.33c-1.23-1.76-2.78-3.31-4-5.09-1.37-2-1.07-3.44,1.8-3.43q25.22.12,50.42.18c2.75,0,3.74,1,3.44,3.93q-4,39.72-7.72,79.48c-.31,3.39-1.91,3.63-4.5,3.62-15,0-29.95,0-44.93,0Z" transform="translate(-53.66 -23.56)"/><path class="cls-1" d="M808.63,426.32c-14.83,0-29.66-.08-44.49.06-3.92,0-5-.89-4.56-5.18,2.69-25.34,5.07-50.71,7.29-76.1.41-4.68,2.11-6.09,6.76-6.06,29,.16,58,.06,87-.05,2.74,0,4.2,0,3.9,3.59q-3.22,39.1-6,78.24c-.29,4.21-1.53,5.69-5.94,5.6C838,426.14,823.29,426.32,808.63,426.32Z" transform="translate(-53.66 -23.56)"/><path class="cls-1" d="M514.4,249.64c15,0,30,.08,45-.06,3.08,0,4.09.76,3.75,3.95q-4,38.47-7.78,77c-.31,3.16-2.21,3.27-4.47,3.29-6.82.06-13.65.12-20.47.13-23,0-45.95,0-68.92,0-3.15,0-5.52,0-5-4.47,2.64-24.82,5.18-49.65,7.48-74.5.4-4.3,2.36-5.14,6.06-5.11,14.81.1,29.63,0,44.44,0Z" transform="translate(-53.66 -23.56)"/><path class="cls-1" d="M392.26,426.32q-21.74,0-43.48,0c-5.69,0-5.78-.08-5.28-5.52,2.18-23.55,4.36-47.09,6.71-70.62a5.42,5.42,0,0,1,2.84-3.81c4.35-1.62,8.93-2.62,13.38-4,3-.94,4.18,1.12,5.46,3.11,8.59,13.27,17.11,26.59,25.86,39.76,1.57,2.35,2.38,6.2,6.66,5.48-.78-2.7-1-5.75-2.44-8-8.24-13.1-16.78-26-25.16-39a22.47,22.47,0,0,1-1.62-3.94,31.88,31.88,0,0,1,3.85-.48c22.33,0,44.66,0,67-.05,2.94,0,4.11.65,3.77,4q-4.05,39.25-7.71,78.56c-.34,3.61-1.71,4.66-5.33,4.61-14.83-.21-29.66-.09-44.49-.09Z" transform="translate(-53.66 -23.56)"/><path class="cls-1" d="M410.25,249.87c14.83,0,29.66.12,44.48-.09,3.64-.05,4.28.79,3.88,4.42q-4,37-7.53,74c-.41,4.4-1.82,5.74-6.39,5.69-23.15-.24-46.31-.13-69.46,0-3.57,0-5.82-1-7.67-4.17-3.35-5.74-7.48-11-10.68-16.86a17.33,17.33,0,0,1-2-9.27c1.44-16.74,3.43-33.42,5-50.15.4-4.46,3.26-3.84,6-3.85,14.82,0,29.65,0,44.47,0Z" transform="translate(-53.66 -23.56)"/><path class="cls-1" d="M816.68,333.8c-14.32,0-28.63-.09-42.95.06-3.75,0-5.42-.75-5-5,2.54-24.83,4.88-49.68,7.21-74.54.28-3,1.39-4.46,4.6-4.45q43.2.1,86.4,0c3.59,0,3.49,1.91,3.31,4.5-1.74,24.91-3.49,49.82-5,74.74-.23,3.72-1.64,4.85-5.12,4.83-14.48-.09-29,0-43.45,0Z" transform="translate(-53.66 -23.56)"/><path class="cls-1" d="M695.1,250.19c4.65-.15,9.29-.42,13.93-.43,19,0,38,.1,56.94,0,3.61,0,4.83.57,4.41,4.62-2.62,25.16-5,50.34-7.29,75.53-.28,3.07-1.64,3.93-4.43,3.93q-45.21,0-90.4.21c-3.15,0-4.43-.76-4.08-4.28q3.54-36.51,6.72-73.07c.29-3.29,1.73-4.4,4.89-5,12.16-2.16,12.12-2.27,18.79,8.16q11,17.22,22.12,34.4c.36.56.65,1.29,1.18,1.58a37.59,37.59,0,0,0,3.8,1.6,13.51,13.51,0,0,0,0-3.76,16.46,16.46,0,0,0-2.09-4.5c-7.77-12-15.61-24-23.38-36a12.52,12.52,0,0,1-1-3.12Z" transform="translate(-53.66 -23.56)"/><path class="cls-1" d="M590.44,525.66q-21.75,0-43.49,0c-5.78,0-6-.33-5.45-5.92,2.88-27.67,5.82-55.32,8.5-83,.39-4,1.5-5.48,5.63-5.44q23.49.21,47-.14c4.13-.06,3.94,1.29,2.47,4.28-6.37,13-10,26.78-12.28,41a17,17,0,0,0,.38,4.22c1.39-.44,3-.58,4.12-1.35,5.38-3.64,10.39-7.87,16-11.1,9.94-5.72,20.23-10.82,30.33-16.26,2.73-1.47,3-.54,2.74,2.07-1.62,14.56-3.12,29.14-4.66,43.71-.82,7.78-1.76,15.56-2.34,23.36-.26,3.42-1.54,4.5-5,4.46-14.66-.17-29.32-.07-44-.07Z" transform="translate(-53.66 -23.56)"/><path class="cls-1" d="M609.2,339.18c14.48,0,29,.07,43.44-.06,3.39,0,4.64.73,4.27,4.48-1.92,19.53-3.57,39.09-5.34,58.64a19.82,19.82,0,0,1-.61,2.7,14.27,14.27,0,0,1-2-1.91c-2.33-3.23-4.45-6.62-6.9-9.76-1.14-1.45-2.7-3.53-4.84-1.1-6.48,7.35-12.9,14.75-19.34,22.14a3,3,0,0,0-.59.8c-4,10-11.52,12.2-21.75,11.43-12.91-1-26-.43-38.92-.22-4.09.06-5-1.12-4.57-5.13q3.9-38.74,7.27-77.52c.34-3.8,2.11-4.59,5.48-4.57,14.82.12,29.63,0,44.44,0Z" transform="translate(-53.66 -23.56)"/><path class="cls-1" d="M609.42,333.92h-43c-5.45,0-5.85-.17-5.35-5.58,2.27-24.86,4.71-49.71,7.06-74.56.24-2.57,1.29-3.81,4.08-3.82,14.15-.06,28.3-.25,42.45-.43,2.66,0,2.87,1,2.25,3.41-2.32,8.84-4.44,17.74-6.47,26.65-.39,1.7-.05,3.56,0,5.34,1.83-.57,3.87-.79,5.45-1.77,10.46-6.47,20.72-13.28,31.27-19.6,5-3,10.47-5.06,15.68-7.65,2.63-1.31,3.12-.55,2.84,2.16-2.43,23.51-4.85,47-7,70.55-.37,4-1.72,5.34-5.77,5.28-14.49-.22-29-.09-43.46-.09Z" transform="translate(-53.66 -23.56)"/><path class="cls-1" d="M412.89,244.7H372.44a25.51,25.51,0,0,1-3.5-.06,25.17,25.17,0,0,1-3.25-.87c.48-1,.9-2.08,1.46-3.06,6.77-11.61,13.59-23.19,20.31-34.82.91-1.57,1.12-3.56,2.13-5,1.2-1.75,2.62-3.77,4.44-4.6A16.79,16.79,0,0,0,404,179a38.12,38.12,0,0,1,0-5.45c.22-5.45-2.43-7.63-7.56-6.25-2.74.74-5.95,2.51-8.16,1.7s-3.39-4.24-4.85-6.63a33.21,33.21,0,0,1-1.91-4.4,26.4,26.4,0,0,1,4.6-.86c5.32-.09,10.67.32,16-.07,4.37-.32,6.73,1.27,8.24,5.27,1.11,2.93,2.71,5.92,6.6,5.91a4.78,4.78,0,0,0,3-1c.3-.26-.43-1.71-.71-2.62-.05-.14-.22-.25-.3-.39q-2.05-3.22-4.1-6.45c2.42-.16,4.84-.47,7.26-.48,13.65-.05,27.31.09,40.95-.13,4.07-.06,5.53.81,5,5.29q-4.23,38.46-7.85,77c-.39,4.14-1.81,5.19-5.78,5.12-13.81-.23-27.64-.09-41.46-.09Z" transform="translate(-53.66 -23.56)"/><path class="cls-1" d="M309.79,426.37c-7.33,0-14.66-.15-22,.07-3.65.11-5.06-.94-5.86-4.8-5.36-26.07-11-52.07-16.8-78.05-.77-3.45-.64-4.75,3.34-4.65,9.82.24,19.65.21,29.48.09,3.51,0,3.67,1.24,2.79,4.21-2.86,9.71-5.5,19.48-8,29.27-.42,1.64.08,3.52.15,5.28,1.83-.51,4-.54,5.44-1.61,13.3-10.17,27.8-18.27,42.85-25.47a26.1,26.1,0,0,1,3.57-1.15c0,1.12,0,2.24-.13,3.35q-3.16,32.32-6.35,64.63c-.05.5-.07,1-.12,1.5-.61,7.17-.61,7.18-7.84,7.19-6.83,0-13.66,0-20.49,0Z" transform="translate(-53.66 -23.56)"/><path class="cls-1" d="M337.88,157.23c7.32,0,14.65.1,22,0,3-.06,4,.74,3.67,4-1,9.25-1.45,18.58-2.61,27.81-.25,2-2.27,4.4-4.13,5.38-9.1,4.78-18.61,8.83-27.62,13.78-5.77,3.18-11.06,7.29-16.32,11.3-3.66,2.79-4.39,2.56-6.72-1.15-7-11.09-13.65-22.43-21.62-32.78-7.07-9.18-15.72-17.14-23.64-25.66a29.73,29.73,0,0,1-2-2.7,32.63,32.63,0,0,1,3.55-.38c3.65,0,7.32.3,10.94,0,2.95-.21,4.24.33,4.16,3.67-.1,4.1,1.12,4.6,4.8,2.57a11.23,11.23,0,0,0,2.9-1.94c5.18-5.57,11.94-3.82,18.22-3.75,1.15,0,2.27,2.32,3.41,3.55,2.27,2.46,4.44,5,6.9,7.28.55.5,2.11-.11,3.21-.2a12.72,12.72,0,0,0-.7-3.21c-1.17-2.27-2.57-4.43-3.87-6.63,2.67-.29,5.34-.77,8-.83,5.82-.13,11.65,0,17.47,0Z" transform="translate(-53.66 -23.56)"/><path class="cls-1" d="M310.68,431.56c7.32,0,14.64.11,22-.05,3.39-.07,4.24,1.18,3.9,4.47q-4.44,42.43-8.56,84.9c-.34,3.54-1.57,4.94-5.22,4.79-6.81-.28-13.64-.3-20.46-.17-3.38.06-4.54-1.27-5-4.57-4.06-27.81-8.29-55.58-12.5-83.36-.95-6.27-1-6.28,5.43-6.3,6.82,0,13.65,0,20.47,0Z" transform="translate(-53.66 -23.56)"/><path class="cls-1" d="M255.62,310.4c-.63-3.69-.54-7.27,4.26-9.43,1.43-.64,2.24-4,2.28-6.13.1-6.31-.37-12.63-.49-18.95a21.4,21.4,0,0,1,.79-4.26c1.14.52,2.3,1,3.44,1.57,9.45,4.46,18.86,9,28.37,13.34,4,1.81,7.89,1.26,12-.4,16.53-6.59,32-14.91,45-27.26a23,23,0,0,1,2.31-1.71,11.25,11.25,0,0,1,.57,3.12q-2,19.36-4.15,38.72c-.08.69-.71,1.32-1.09,2a9.94,9.94,0,0,1-1.86-1.52c-1.9-2.52-3.79-5.06-5.53-7.69-1.63-2.46-2.94-2.2-5.09-.34a125.91,125.91,0,0,0-29.72,38.47c-1.76,3.43-3.88,4.35-7.42,4.28q-16.23-.33-32.47-.15c-3.29,0-5.28-.76-6.28-4.17C258.72,323.57,254.37,318,255.62,310.4Z" transform="translate(-53.66 -23.56)"/><path class="cls-1" d="M174,344.58a149.86,149.86,0,0,1-58.29-13.82c-1.65-.78-3.25-1.68-4.82-2.62-11.19-6.66-12.87-11.07-9.54-23.78.85-3.22,2.43-1.73,4.05-1.16,7.82,2.75,15.48,6.24,23.51,8.12,39.13,9.15,78.1,10,116.57-3.67,5.19-1.84,5-1.67,5.11,3.6.2,10.36-5.13,16.92-13.88,21.15C218.5,341.18,199.14,344.64,174,344.58Z" transform="translate(-53.66 -23.56)"/><path class="cls-1" d="M95.49,189.29c1.23,1.72,1.79,2.53,2.38,3.31,1.21,1.57,2.13,3.79,3.73,4.58,5.61,2.73,4.84,6.54,3.27,11.44-7.53,23.53-11,47.9-14.72,72.22-.32,2.14-.66,4.25-3.66,2.7-7.55-3.91-14.87-8-20.29-14.94-8.37-10.69-10-22.17-3.48-34C67.79,225.55,73.92,217,80,208.53c3.86-5.38,8.51-10.2,12.77-15.31C93.61,192.21,94.27,191.06,95.49,189.29Z" transform="translate(-53.66 -23.56)"/><path class="cls-1" d="M223.24,780c-.3,0-1.47-.13-2.63-.13-4.42,0-6.34-1.85-6.64-6.62-1.1-17.76-2.61-35.5-4.15-53.23-.29-3.4.61-4.27,4.08-4.93,10.73-2.07,21.32-4.87,32-7.37,1.08-.25,2.19-.37,3.28-.56a20,20,0,0,1-.26,3.3c-5.2,20.8-10.49,41.59-15.64,62.4C231.43,780.17,231.58,780.2,223.24,780Z" transform="translate(-53.66 -23.56)"/><path class="cls-1" d="M88.79,780.32c1.32-6.78,2.47-13.59,4-20.31.87-3.75,3.61-4.74,7.35-3.85,4.83,1.15,9.77,1.85,14.59,3a6.67,6.67,0,0,1,3.91,2.64c8.17,14.46,20.6,24.16,34.84,32,2.85,1.58,5.13,4.2,7.67,6.33a80.75,80.75,0,0,1-9.14,3.23c-3.55.82-7.24,1-10.87,1.53-11.07,1.51-18.41-3.78-23.85-12.84-2.3-3.83-4.57-7.81-7.56-11.07-3.68-4-6.16-3-7.23,2.16-1.24,6-2.41,12.07-3.64,18.11-.48,2.38-.46,5.86-3.77,5.26-1.5-.27-3.21-3.53-3.49-5.62-.93-6.76-1.24-13.59-1.78-20.4Z" transform="translate(-53.66 -23.56)"/><path class="cls-1" d="M232.62,99.86c.56,12-6.18,20.15-15,26.9-1.55,1.18-4.51,1.14-6.68.8a164.54,164.54,0,0,1-19.48-3.89c-5-1.42-5.51-4.39-1.78-8a53.24,53.24,0,0,1,8.17-6.48c3.14-2,4.51-4.77,3.15-8-4.13-10-.54-17.15,7.33-23.4,4.13-3.27,6.92-7.59,6.17-13.43-.14-1.06.93-2.28,1.44-3.42,1,.7,2.36,1.18,3.08,2.12A64.13,64.13,0,0,1,232.62,99.86Zm-7.51,6.63c1.38-.39,2.47-.44,3.19-1a19.27,19.27,0,0,0,2.62-2.85,17.49,17.49,0,0,0-3.27-1.51,83.37,83.37,0,0,0-8.27-1.5c-.82-.1-1.73.52-2.6.8.34.86.44,2.15,1.06,2.51C220.24,104.34,222.82,105.41,225.11,106.49Zm-5.84-27.9-1.78.23c-.76,1.37-2,2.68-2.19,4.13-.33,2.41,3.58,5.93,6,5.25,1.07-.3,2.64-2.66,2.33-3.34C222.55,82.59,220.77,80.65,219.27,78.59Z" transform="translate(-53.66 -23.56)"/><path class="cls-1" d="M205.21,800.8c1.14-4.63,2.17-9.29,3.44-13.89.9-3.29,3.06-4.23,6.51-3.54A78.75,78.75,0,0,0,228.48,785c3.36.09,4.93,1.38,6.26,4.41,3.21,7.29,6.62,14.52,10.46,21.49,4.9,8.9,12.42,15,21.75,19.09,2.44,1.07,4.41,3.19,6.6,4.83-2.65.43-5.3.91-8,1.28a16.12,16.12,0,0,1-2.5-.06c-11.17-.14-20.18-3.5-24.24-15.21a22.83,22.83,0,0,0-5.17-7.85c-4.71-4.89-10.38-4.6-13.77,1.17-2.56,4.35-3.73,9.51-5.47,14.33a8.52,8.52,0,0,0-.3,2c-.25,2.35-1,4.68-3.77,4.08-1.1-.24-2.34-2.61-2.46-4.09-.73-9.79-1.18-19.6-1.72-29.4Z" transform="translate(-53.66 -23.56)"/><path class="cls-1" d="M100.79,725.08c.54-7.79,1.11-15.58,1.57-23.38.16-2.64.68-4.06,3.88-2.92,6.26,2.23,12.6,4.22,19,6.14,3,.91,3.69,2.37,2.79,5.48q-5.67,19.64-10.83,39.4c-1,3.64-2.7,4.75-6.36,4.33-11.08-1.27-12-2.2-11.22-13.14C100,735.68,100.39,730.38,100.79,725.08Z" transform="translate(-53.66 -23.56)"/><path class="cls-1" d="M426.16,152.27a84.9,84.9,0,0,1-10-.15c-1.05-.12-2.8-2.05-2.68-2.94,1.07-7.74,3.33-15,10.54-19.45,4.82-3,8.8-2.11,12.19,2.36,4,5.25,4.06,11.48,4.43,17.6.05.7-1.92,2.1-3,2.18-3.81.28-7.65.11-11.48.11Z" transform="translate(-53.66 -23.56)"/><path class="cls-1" d="M527.7,152.36h-6.46c-6.47,0-6.75-.21-6-6.76a21.4,21.4,0,0,1,8.88-15.45c4.55-3.3,9.15-2.82,12.8,1.36,4.8,5.51,4.09,12.35,4.29,18.91,0,.55-2,1.61-3.1,1.69-3.46.22-7,.08-10.43.08Z" transform="translate(-53.66 -23.56)"/><path class="cls-1" d="M935.25,537.86v.08c13,0,26,0,39,0,6.62,0,6.79,0,5.59-6.42q-11.4-61.42-23-122.81Q933.61,286,910.26,163.23c-.6-3.18-2-4.13-5-4.1-6.33.08-12.67.07-19-.25-1.3-.07-3.47-1.58-3.61-2.63-.41-3.22-2.24-3.69-4.83-3.68-6,0-12-.14-18,.09-3.55.13-4.72-1.2-4.54-4.64a46.44,46.44,0,0,0-.44-9c-1.21-8.6-6.9-15.55-13.56-16.85-7.53-1.48-14.91,2-19.24,10.35A66.7,66.7,0,0,0,816.6,149c-.55,2.5-1,3.46-3.46,3.46q-28.49,0-57,.13c-2.72,0-3.52-.9-3.76-3.77-.46-5.74-.7-11.82-2.82-17-4.65-11.43-18.08-13.32-26.57-4.24a34.58,34.58,0,0,0-9,20.71c-.32,3.24-1.19,4.27-4.43,4.25q-27.48-.12-55,.12c-3.33,0-4.4-.84-4.64-4.48-.38-5.53-.92-11.48-3.23-16.38-5.85-12.42-20.82-13.44-28.34-1.86-3.51,5.42-5.49,12-7.07,18.39-.77,3.12-1.46,4.2-4.53,4.19q-27.74-.08-55.48.09c-3.31,0-4.06-1.29-4.23-4.43-.26-4.94-.61-10.06-2.14-14.7-4.28-12.92-18.62-15.59-27.73-5.47a31.25,31.25,0,0,0-8.2,19.91c-.13,2.82-.93,3.7-3.77,3.69q-27.24,0-54.47.24c-3.07,0-4-1-4.16-4-.22-4.13-.45-8.43-1.75-12.3-1.9-5.67-4.42-11.5-11.15-13-7.07-1.63-13.16.63-18.05,6a12.63,12.63,0,0,0-2.47,3.73c-2,5.25-4.15,10.5-5.65,15.91-.66,2.37-1.35,3.41-3.8,3.4-7.83,0-15.68.36-23.48,0a9.31,9.31,0,0,1-6.26-3.7c-15.54-23.06-30.85-46.27-46.18-69.46-1.94-2.92-3.9-3.31-6.35-.63C316,83.66,310.09,89.34,305,95.7a131.8,131.8,0,0,0-24.67,50.82c-.64,2.59-1,5.16-4.83,5-7.32-.23-14.66.14-22-.11a24.08,24.08,0,0,1-8.09-2c-5.52-2.28-10.81-5.13-16.35-7.35-6.93-2.78-9.36-11.05-4.17-16.17,7.24-7.15,11.25-15.61,11.35-25.76,0-3.16,1.05-4.84,4.11-5.77,3.44-1,3.8-3.33,1.61-6.11-2.06-2.61-4.13-5.21-6.12-7.88-1.13-1.53-1.47-2.87.9-3.83,6-2.39,7.75-7.52,7.88-13.3.27-11.88-5.28-20.8-15-27.06C219.39,29.66,208,26.11,196,24.23c-16.95-2.67-31.14,2.69-43.26,14.47-12.47,12.13-19.46,26.46-18,44.22a15.74,15.74,0,0,1-6.12,14.43,183.43,183.43,0,0,0-15.45,14.18c-6.81,7.06-7.87,16.15-3.17,24.38,1.3,2.27,3.31,4.14,5,6.17,5.17,6.18,5.38,11.91.35,18.06-2.53,3.08-5.43,5.85-8.21,8.72s-5.59,5.26-8,8.2C94,183.31,89.33,190,84,196.1,74.13,207.6,64.41,219.15,57.77,233c-6.9,14.41-5.08,27.29,5.21,39.39A51.2,51.2,0,0,0,83.54,287c6.37,2.5,8.15,9,12.77,12.91a2.36,2.36,0,0,1,.32,1.89c-1.18,6-2,12.16-3.75,18C89,332.54,84,345,80.58,357.8c-6.5,24.63-8.16,49.88-8.41,75.3-.47,47.14-.81,94.29-2.1,141.42-.87,31.49-3.61,62.89-11.55,93.57-1.09,4.2,0,6.92,3.92,9,10.61,5.55,21.08,11.36,31.67,17,2.15,1.13,4,1.86,3.67,5-1.43,15.93-2.49,31.89-4,47.81A19.58,19.58,0,0,1,90.61,755c-3.17,5-5.84,10.27-5.62,16.28.42,11.3,1.06,22.61,2.06,33.87.4,4.51,4,6.23,9.82,6.48,4.56.2,5.75-2.72,6.31-6.17.91-5.59,1.51-11.22,2.32-16.83a13.28,13.28,0,0,1,1-2.69,9.78,9.78,0,0,1,2.57,1.93c2.21,3.33,4.06,6.9,6.37,10.16,5.19,7.31,12.26,12.49,21.29,12.08,8.72-.38,17.41-2.52,26-4.42,4.24-.94,5.52-4.07,2.91-7.61a29.48,29.48,0,0,0-9.26-7.88c-11.2-6.23-21.32-13.63-29.09-24-4.52-6-6.69-12.26-4.29-20,3.63-11.77,6.54-23.76,9.68-35.67.57-2.17,1.47-3.12,3.85-2.54,21.12,5.16,42.5,8.26,64.3,7.9,2.5,0,3.64.94,3.84,3.43,1.45,18.09,3,36.17,4.34,54.28.15,2.11-1.06,4.38-1.84,6.51-2,5.39-5.56,10.69-5.77,16.13-.47,12.44.55,25,1.29,37.41.26,4.24,4,6,10,6,4.35,0,5.36-2.36,5.37-6a13.88,13.88,0,0,1,.38-3.47,37.83,37.83,0,0,1,1.55-4,26.75,26.75,0,0,1,3.56,2.3,18.11,18.11,0,0,1,2.54,3.08,16.26,16.26,0,0,0,11.84,6.7c9.94,1,19.9,1.81,29.87,2.18a31.87,31.87,0,0,0,10.72-2c4.43-1.44,4.79-4.43,1-7.24a29.82,29.82,0,0,0-6.6-3.51c-11.3-4.46-20-11.84-25.65-22.64-2.76-5.3-5-10.86-7.57-16.26-2.79-5.88-2.68-11.77-1.09-18,5.39-21.13,10.44-42.35,15.85-63.47.44-1.74,2.33-3.43,4-4.51,10.12-6.66,20.79-12.59,30.46-19.84a41.12,41.12,0,0,0,16.42-27.71c1.39-10.33,1.51-20.86,1.78-31.31.1-3.8.91-5.27,5-5.14,10.32.32,20.65.17,31,.18l534.87,0c9.51,0,9.51,0,9.81-9.61.69-22.31,1.48-44.62,2-66.94.09-3.76,1.27-4.84,4.94-4.8C908.26,538,921.75,537.86,935.25,537.86Z" transform="translate(-53.66 -23.56)"/><path d="M935.25,537.86c-13.5,0-27,.11-40.49-.08-3.67,0-4.85,1-4.94,4.8-.51,22.32-1.3,44.63-2,66.94-.3,9.56-.3,9.61-9.81,9.61l-534.87,0c-10.33,0-20.66.14-31-.18-4.13-.13-4.94,1.34-5,5.14-.27,10.45-.39,21-1.78,31.31a41.12,41.12,0,0,1-16.42,27.71c-9.67,7.25-20.34,13.18-30.46,19.84-1.64,1.08-3.53,2.77-4,4.51-5.41,21.12-10.46,42.34-15.85,63.47-1.59,6.23-1.7,12.12,1.09,18,2.57,5.4,4.81,11,7.57,16.26,5.62,10.8,14.35,18.18,25.65,22.64a29.82,29.82,0,0,1,6.6,3.51c3.79,2.81,3.43,5.8-1,7.24a31.87,31.87,0,0,1-10.72,2c-10-.37-19.93-1.17-29.87-2.18a16.26,16.26,0,0,1-11.84-6.7,18.11,18.11,0,0,0-2.54-3.08,26.75,26.75,0,0,0-3.56-2.3,37.83,37.83,0,0,0-1.55,4,13.88,13.88,0,0,0-.38,3.47c0,3.62-1,6-5.37,6-6,0-9.78-1.77-10-6-.74-12.46-1.76-25-1.29-37.41.21-5.44,3.8-10.74,5.77-16.13.78-2.13,2-4.4,1.84-6.51-1.31-18.11-2.89-36.19-4.34-54.28-.2-2.49-1.34-3.48-3.84-3.43-21.8.36-43.18-2.74-64.3-7.9-2.38-.58-3.28.37-3.85,2.54-3.14,11.91-6.05,23.9-9.68,35.67-2.4,7.77-.23,14,4.29,20,7.77,10.33,17.89,17.73,29.09,24a29.48,29.48,0,0,1,9.26,7.88c2.61,3.54,1.33,6.67-2.91,7.61-8.59,1.9-17.28,4-26,4.42-9,.41-16.1-4.77-21.29-12.08-2.31-3.26-4.16-6.83-6.37-10.16A9.78,9.78,0,0,0,106.5,786a13.28,13.28,0,0,0-1,2.69c-.81,5.61-1.41,11.24-2.32,16.83-.56,3.45-1.75,6.37-6.31,6.17-5.86-.25-9.42-2-9.82-6.48-1-11.26-1.64-22.57-2.06-33.87-.22-6,2.45-11.24,5.62-16.28a19.58,19.58,0,0,0,3.18-8.19c1.5-15.92,2.56-31.88,4-47.81.28-3.16-1.52-3.89-3.67-5-10.59-5.6-21.06-11.41-31.67-17-3.9-2-5-4.76-3.92-9C66.46,637.41,69.2,606,70.07,574.52c1.29-47.13,1.63-94.28,2.1-141.42.25-25.42,1.91-50.67,8.41-75.3C84,345,89,332.54,92.88,319.81c1.77-5.84,2.57-12,3.75-18a2.36,2.36,0,0,0-.32-1.89C91.69,296,89.91,289.51,83.54,287A51.2,51.2,0,0,1,63,272.4c-10.29-12.1-12.11-25-5.21-39.39C64.41,219.15,74.13,207.6,84,196.1c5.29-6.12,9.95-12.79,15.1-19,2.42-2.94,5.36-5.46,8-8.2s5.68-5.64,8.21-8.72c5-6.15,4.82-11.88-.35-18.06-1.71-2-3.72-3.9-5-6.17-4.7-8.23-3.64-17.32,3.17-24.38a183.43,183.43,0,0,1,15.45-14.18,15.74,15.74,0,0,0,6.12-14.43c-1.45-17.76,5.54-32.09,18-44.22C164.86,26.92,179.05,21.56,196,24.23c12,1.88,23.39,5.43,33.63,12,9.76,6.26,15.31,15.18,15,27.06-.13,5.78-1.93,10.91-7.88,13.3-2.37,1-2,2.3-.9,3.83,2,2.67,4.06,5.27,6.12,7.88,2.19,2.78,1.83,5.06-1.61,6.11-3.06.93-4.08,2.61-4.11,5.77-.1,10.15-4.11,18.61-11.35,25.76-5.19,5.12-2.76,13.39,4.17,16.17,5.54,2.22,10.83,5.07,16.35,7.35a24.08,24.08,0,0,0,8.09,2c7.32.25,14.66-.12,22,.11,3.87.12,4.19-2.45,4.83-5A131.8,131.8,0,0,1,305,95.7c5.06-6.36,11-12,16.48-18.07,2.45-2.68,4.41-2.29,6.35.63,15.33,23.19,30.64,46.4,46.18,69.46a9.31,9.31,0,0,0,6.26,3.7c7.8.39,15.65,0,23.48,0,2.45,0,3.14-1,3.8-3.4,1.5-5.41,3.63-10.66,5.65-15.91a12.63,12.63,0,0,1,2.47-3.73c4.89-5.34,11-7.6,18.05-6,6.73,1.54,9.25,7.37,11.15,13,1.3,3.87,1.53,8.17,1.75,12.3.17,3,1.09,4,4.16,4q27.22-.3,54.47-.24c2.84,0,3.64-.87,3.77-3.69a31.25,31.25,0,0,1,8.2-19.91c9.11-10.12,23.45-7.45,27.73,5.47,1.53,4.64,1.88,9.76,2.14,14.7.17,3.14.92,4.45,4.23,4.43q27.74-.18,55.48-.09c3.07,0,3.76-1.07,4.53-4.19,1.58-6.35,3.56-13,7.07-18.39,7.52-11.58,22.49-10.56,28.34,1.86,2.31,4.9,2.85,10.85,3.23,16.38.24,3.64,1.31,4.51,4.64,4.48q27.5-.22,55-.12c3.24,0,4.11-1,4.43-4.25a34.58,34.58,0,0,1,9-20.71c8.49-9.08,21.92-7.19,26.57,4.24,2.12,5.21,2.36,11.29,2.82,17,.24,2.87,1,3.79,3.76,3.77q28.49-.14,57-.13c2.5,0,2.91-1,3.46-3.46a66.7,66.7,0,0,1,5.51-16.4c4.33-8.33,11.71-11.83,19.24-10.35,6.66,1.3,12.35,8.25,13.56,16.85a46.44,46.44,0,0,1,.44,9c-.18,3.44,1,4.77,4.54,4.64,6-.23,12,0,18-.09,2.59,0,4.42.46,4.83,3.68.14,1.05,2.31,2.56,3.61,2.63,6.32.32,12.66.33,19,.25,3,0,4.35.92,5,4.1Q933.47,286,956.87,408.72q11.64,61.38,23,122.81c1.2,6.46,1,6.44-5.59,6.42-13,0-26,0-39,0ZM695.1,250.19l-.15-.08.25,0a12.52,12.52,0,0,0,1,3.12c7.77,12,15.61,24,23.38,36a16.46,16.46,0,0,1,2.09,4.5,13.51,13.51,0,0,1,0,3.76,37.59,37.59,0,0,1-3.8-1.6c-.53-.29-.82-1-1.18-1.58q-11.07-17.21-22.12-34.4c-6.67-10.43-6.63-10.32-18.79-8.16-3.16.56-4.6,1.67-4.89,5q-3.21,36.56-6.72,73.07c-.35,3.52.93,4.3,4.08,4.28q45.19-.19,90.4-.21c2.79,0,4.15-.86,4.43-3.93,2.31-25.19,4.67-50.37,7.29-75.53.42-4.05-.8-4.64-4.41-4.62-19,.15-38,0-56.94,0C704.39,249.77,699.75,250,695.1,250.19ZM594.26,614.85v-.2q141.21,0,282.42.09c4.2,0,5.35-1.37,5.53-5.4q4.15-91.62,8.57-183.22Q896.41,306.79,902,187.47c.3-6.32.55-12.66,1.18-18.95.4-4.1-1.2-5.34-5.05-5.11a61.22,61.22,0,0,1-10.49-.15c-4.38-.5-6,.76-6.29,5.51q-2.07,38.67-4.81,77.31-6.8,97.21-13.82,194.41c-2,28.08-4.15,56.16-6,84.25-.3,4.63-2.09,5.84-6.39,5.81-12.66-.11-25.32.2-38,.21q-148.7.07-297.4.09-105.47,0-210.93-.18c-3.3,0-4.81.45-4.42,4.35,2.49,24.85,4.87,49.72,7,74.61.38,4.43,2,5.32,6.17,5.32Q453.55,614.77,594.26,614.85ZM181.84,313.1c9.13-.63,18.31-.89,27.38-2a150.81,150.81,0,0,0,40.5-10.39c7.76-3.27,7.94-3.55,7.62-11.79-.2-5.32-1.09-10.7-.58-15.94.41-4.12-1.14-6.6-3.79-9.06-4.52-4.18-9.41-8.06-13.36-12.72C232.74,243.1,226.37,234.56,220,226c-1-1.29-.61-3.54-.87-5.35,1.61,1,3.58,1.57,4.76,2.9,2.52,2.86,4.67,6.05,6.91,9.16,15,20.84,33.61,37.13,57.82,46.7,7,2.77,13.17,3.67,20.48.54,16.93-7.25,32.81-16.42,44.62-30.35,10.12-11.93,17.84-26,26.2-39.31,2.5-4,3.76-8.86,5.27-13.43,1.45-4.41-2.19-6.4-5-8.16a6.67,6.67,0,0,0-5.71-.06c-8.23,4.58-16,10-24.4,14.27-12.91,6.54-26.37,12-36.82,22.56-4.21,4.24-5.78,3.88-9.09-1.22-7.5-11.56-14.56-23.48-22.89-34.44-9.55-12.57-20-24.46-33.56-33.19a100.34,100.34,0,0,0-33.61-13.45c-1.57-.34-2.84-2.05-4.25-3.12,1.67-.48,3.33-1,5-1.39a9.09,9.09,0,0,1,2,.23c2.81.09,3.23-1.69,2.1-3.53a6.32,6.32,0,0,0-3.86-2.57c-7.34-1.31-14.77-2.18-22.11-3.52-3.11-.57-4.32-.12-3.64,3.28,1.42,7.05-1.48,12.29-7.14,16.3a28,28,0,0,0-2.26,2c-2.15,1.88-2,3.6.29,5.26a62,62,0,0,1,6,4.51c8.12,7.5,8.77,15,1,23.86-2.26,2.56-5.42,4.37-8.3,6.32-10.31,7-11,11.18-3.18,20.74,6.68,8.19,5.72,15.68-3.11,21.56-3.85,2.57-8.15,4.48-12.26,6.67-3.62,1.93-5.52,4.54-4.23,8.93a61,61,0,0,1,1.82,9.31c.85,6.66-3,12.12-9.36,14A30.55,30.55,0,0,1,128,270.77c-4.7-1.89-8-4-3.87-10.1,2-2.9,1.44-5.29-1.66-7.6-6.11-4.57-11.85-9.62-17.83-14.37a2.26,2.26,0,0,0-2.16.42,13.32,13.32,0,0,0-1,3.83c-2.22,13.81-4.45,27.62-6.6,41.45-1.17,7.46-.1,8.81,6.86,12.12C127.1,308.58,154.07,312.52,181.84,313.1ZM800.63,525.65v-.15H846.1c3.17,0,5.64-.07,5.92-4.58,1.76-28.42,3.78-56.83,5.83-85.23.23-3.15-.37-4.53-3.88-4.51q-45.72.21-91.44.15c-3,0-4.35,1-4.67,4.24-2.75,28.16-5.71,56.31-8.55,84.47-.53,5.32-.17,5.59,5.36,5.6Zm-313.91-.07v-.07c14.82,0,29.64-.06,44.46,0,3.33,0,4.91-.63,5.27-4.57q3.79-42,8.23-84c.46-4.28-.57-5.59-4.79-5.56-16.81.09-33.63-.06-50.45-.09-12.49,0-25,.08-37.47,0-3.77,0-5.68.91-5.91,5.22-.41,7.46-1.61,14.88-2.38,22.33q-3.17,30.54-6.22,61.1c-.53,5.43-.16,5.63,5.29,5.63Zm-104.41.07v-.22c14.83,0,29.66-.09,44.49.06,3.65,0,5.11-.8,5.49-4.89q4-42,8.63-84c.47-4.27-.87-5.19-4.67-5.17-14.66.08-29.33,0-44-.05s-29.32.16-44-.16c-4.71-.1-6.53,1.52-6.81,6.05-.34,5.65-1.12,11.27-1.68,16.9-2.18,21.87-4.4,43.74-6.48,65.63-.55,5.8-.33,5.83,5.52,5.83Zm312-.08v-.15c15,0,30,0,45,0,3.13,0,4.67-.59,5-4.3,2.5-28.2,5.15-56.4,8.11-84.55.47-4.5-1-5-4.71-5-24.49,0-49-.21-73.48-.27a23.17,23.17,0,0,0-4.65.91,33.33,33.33,0,0,0,2,4.41q14.64,22.65,29.37,45.24a49.16,49.16,0,0,1,3.76,6.46c.45,1,0,2.46-.05,3.71-1.22-.4-2.86-.44-3.6-1.27a54.72,54.72,0,0,1-4.57-6.52c-8.09-12.41-16.2-24.8-24.22-37.26-2-3.06-4-3.8-7.48-2.06a32.57,32.57,0,0,1-9,2.66c-2.53.44-3.73,1.38-4,4-.62,7.47-1.46,14.91-2.21,22.36-1.56,15.58-3,31.16-4.74,46.71-.4,3.71.55,5,4.47,4.95C664.28,525.45,679.28,525.57,694.27,525.57ZM496.6,426.31v-.08c14.82,0,29.64-.1,44.46.07,3.55.05,4.93-.95,5.27-4.66q3.63-39,7.7-78c.37-3.54-.46-4.57-4.06-4.56q-44.72.19-89.41,0c-3.7,0-5.27,1-5.62,5q-3.53,39-7.52,78c-.37,3.63,1.23,4.23,4.23,4.21C466.63,426.27,481.62,426.31,496.6,426.31Zm212.15.16v-.22c13.16,0,26.32-.15,39.47.09,4,.07,5.5-1.18,5.87-5.22q3.6-39,7.64-78c.27-2.72-.09-4-3.19-4q-46,.12-91.94,0c-2.91,0-4.25,1-4.43,4-.23,4-.71,8-1.11,11.93-1.8,17.72-3.58,35.43-5.44,53.14-.43,4.11,6.44,16.54,10.23,17.92a10,10,0,0,0,3.43.36Q689,426.49,708.75,426.47Zm-193.9-182v0c15,0,30,0,44.93,0,2.59,0,4.19-.23,4.5-3.62q3.63-39.77,7.72-79.48c.3-3-.69-3.92-3.44-3.93q-25.2,0-50.42-.18c-2.87,0-3.17,1.39-1.8,3.43,1.2,1.78,2.75,3.33,4,5.09a5.94,5.94,0,0,1,.45,2.33,8.23,8.23,0,0,1-2.28.28c-4.24-.68-6.8-3.34-8-7.31-.7-2.41-1.84-3.54-4.55-3.52-9.32.08-18.64.06-28-.25-3.71-.12-4.73,1.21-5.06,4.78q-3.56,38.76-7.55,77.48c-.38,3.73.7,5,4.51,5C484.89,244.36,499.87,244.45,514.85,244.45ZM808.63,426.32c14.66,0,29.32-.18,44,.1,4.41.09,5.65-1.39,5.94-5.6q2.72-39.13,6-78.24c.3-3.61-1.16-3.6-3.9-3.59-29,.11-58,.21-87,.05-4.65,0-6.35,1.38-6.76,6.06-2.22,25.39-4.6,50.76-7.29,76.1-.46,4.29.64,5.22,4.56,5.18C779,426.24,793.8,426.32,808.63,426.32Zm-77.82-181.5v-.42c12.16,0,24.31,0,36.47,0,2.54,0,4.31-.11,4.65-3.52,2.58-26.67,5.34-53.33,8.13-80,.28-2.67-.53-3.64-3.18-3.57-4.49.12-9,.07-13.48.06-13,0-26-.06-39-.05a18.32,18.32,0,0,0-2.82.43,12,12,0,0,0,.94,3.12c.88,1.39,2.3,2.46,3.07,3.9.56,1,.44,2.43.62,3.67a14.42,14.42,0,0,1-3.24-.19c-3.61-1-5.75-3.54-7.31-6.95-.68-1.48-2.66-3.28-4.11-3.34-9-.32-18-.13-27-.26-3.07,0-4.37,1-4.64,4.26-1.15,14.43-1.9,28.94-4.09,43.22-1.69,11,.19,20.27,7.63,28.54a36.12,36.12,0,0,1,4.52,7.16c1.62,3,3.89,4,7.31,4C707.16,244.7,719,244.82,730.81,244.82ZM514.4,249.64v.26c-14.81,0-29.63.06-44.44,0-3.7,0-5.66.81-6.06,5.11-2.3,24.85-4.84,49.68-7.48,74.5-.48,4.43,1.89,4.47,5,4.47,23-.05,45.94,0,68.92,0,6.82,0,13.65-.07,20.47-.13,2.26,0,4.16-.13,4.47-3.29q3.75-38.49,7.78-77c.34-3.19-.67-4-3.75-3.95C544.37,249.72,529.38,249.64,514.4,249.64ZM392.26,426.32v-.07c14.83,0,29.66-.12,44.49.09,3.62.05,5-1,5.33-4.61q3.69-39.3,7.71-78.56c.34-3.34-.83-4-3.77-4-22.32.07-44.65,0-67,.05a31.88,31.88,0,0,0-3.85.48,22.47,22.47,0,0,0,1.62,3.94c8.38,13,16.92,25.93,25.16,39,1.43,2.28,1.66,5.33,2.44,8-4.28.72-5.09-3.13-6.66-5.48-8.75-13.17-17.27-26.49-25.86-39.76-1.28-2-2.42-4.05-5.46-3.11-4.45,1.38-9,2.38-13.38,4a5.42,5.42,0,0,0-2.84,3.81c-2.35,23.53-4.53,47.07-6.71,70.62-.5,5.44-.41,5.51,5.28,5.52Q370.52,426.34,392.26,426.32ZM823.93,244.46q21.23,0,42.47,0c2.59,0,4.84.21,5.1-3.61,1.81-26.75,3.79-53.49,5.79-80.22.19-2.51-.8-3.3-3.08-3.3q-23.73,0-47.46-.12c-3,0-3.06,1.39-1.7,3.37,1,1.5,2.5,2.71,3.44,4.26.55.89.44,2.19.63,3.31a14.64,14.64,0,0,1-3.17,0c-3.84-.78-6-3.42-7.05-7-.72-2.38-2-3.45-4.65-3.44q-11.73.06-23.47-.38c-3.91-.15-5.6,1.19-6,5.29q-3.57,38.54-7.58,77c-.41,3.95,1.15,4.84,4.73,4.8C795.94,244.37,809.93,244.45,823.93,244.46Zm-413.68,5.41v-.22c-14.82,0-29.65,0-44.47,0-2.73,0-5.59-.61-6,3.85-1.52,16.73-3.51,33.41-5,50.15a17.33,17.33,0,0,0,2,9.27c3.2,5.82,7.33,11.12,10.68,16.86,1.85,3.18,4.1,4.2,7.67,4.17,23.15-.17,46.31-.28,69.46,0,4.57.05,6-1.29,6.39-5.69q3.5-37,7.53-74c.4-3.63-.24-4.47-3.88-4.42C439.91,250,425.08,249.87,410.25,249.87ZM816.68,333.8v.08c14.48,0,29-.05,43.45,0,3.48,0,4.89-1.11,5.12-4.83,1.53-24.92,3.28-49.83,5-74.74.18-2.59.28-4.51-3.31-4.5q-43.2.12-86.4,0c-3.21,0-4.32,1.46-4.6,4.45-2.33,24.86-4.67,49.71-7.21,74.54-.44,4.28,1.23,5.07,5,5C788.05,333.71,802.36,333.8,816.68,333.8ZM590.44,525.66v-.21c14.66,0,29.32-.1,44,.07,3.41,0,4.69-1,5-4.46.58-7.8,1.52-15.58,2.34-23.36,1.54-14.57,3-29.15,4.66-43.71.29-2.61,0-3.54-2.74-2.07-10.1,5.44-20.39,10.54-30.33,16.26-5.61,3.23-10.62,7.46-16,11.1-1.15.77-2.73.91-4.12,1.35a17,17,0,0,1-.38-4.22c2.26-14.2,5.91-28,12.28-41,1.47-3,1.66-4.34-2.47-4.28q-23.49.33-47,.14c-4.13,0-5.24,1.48-5.63,5.44-2.68,27.68-5.62,55.33-8.5,83-.59,5.59-.33,5.92,5.45,5.92Q568.69,525.68,590.44,525.66ZM609.2,339.18v0c-14.81,0-29.62.07-44.44,0-3.37,0-5.14.77-5.48,4.57q-3.43,38.77-7.27,77.52c-.4,4,.48,5.19,4.57,5.13,13-.21,26-.75,38.92.22,10.23.77,17.74-1.42,21.75-11.43a3,3,0,0,1,.59-.8c6.44-7.39,12.86-14.79,19.34-22.14,2.14-2.43,3.7-.35,4.84,1.1,2.45,3.14,4.57,6.53,6.9,9.76a14.27,14.27,0,0,0,2,1.91,19.82,19.82,0,0,0,.61-2.7c1.77-19.55,3.42-39.11,5.34-58.64.37-3.75-.88-4.51-4.27-4.48C638.16,339.25,623.68,339.18,609.2,339.18Zm.22-5.26v-.11c14.49,0,29-.13,43.46.09,4,.06,5.4-1.26,5.77-5.28,2.18-23.53,4.6-47,7-70.55.28-2.71-.21-3.47-2.84-2.16-5.21,2.59-10.71,4.67-15.68,7.65-10.55,6.32-20.81,13.13-31.27,19.6-1.58,1-3.62,1.2-5.45,1.77,0-1.78-.35-3.64,0-5.34,2-8.91,4.15-17.81,6.47-26.65.62-2.39.41-3.44-2.25-3.41-14.15.18-28.3.37-42.45.43-2.79,0-3.84,1.25-4.08,3.82-2.35,24.85-4.79,49.7-7.06,74.56-.5,5.41-.1,5.58,5.35,5.58Zm36.9-176.5v0c-8.16,0-16.32,0-24.47,0a22.93,22.93,0,0,0-3.28.47,23.08,23.08,0,0,0,1.36,3.5c.74,1.29,1.91,2.35,2.57,3.67a11.22,11.22,0,0,1,.6,3.23c-1.07,0-2.57.55-3.13,0-2.23-2-4.63-4.12-6.07-6.7s-2.67-3.76-5.65-3.73q-12.48.13-25-.27c-4.14-.13-6.11.86-6.51,5.65-2.19,25.86-4.75,51.69-7.31,77.51-.37,3.72,1.75,3.65,4.22,3.65,11.82,0,23.66-.39,35.45.24,7.85.42,12.63-1,16.32-9.22C632,221,642.74,209.13,654.09,198c2.24-2.19,3.57-1.75,5.11.5,2.64,3.84,5.29,7.66,8,11.44a8.58,8.58,0,0,0,1.9,1.49,9.62,9.62,0,0,0,1-2.49c1.7-15.54,3.23-31.11,5.06-46.64.44-3.8-.57-5.05-4.41-5C662.63,157.58,654.47,157.42,646.32,157.42ZM412.89,244.7v-.19c13.82,0,27.65-.14,41.46.09,4,.07,5.39-1,5.78-5.12q3.62-38.53,7.85-77c.5-4.48-1-5.35-5-5.29-13.64.22-27.3.08-40.95.13-2.42,0-4.84.32-7.26.48q2,3.23,4.1,6.45c.08.14.25.25.3.39.28.91,1,2.36.71,2.62a4.78,4.78,0,0,1-3,1c-3.89,0-5.49-3-6.6-5.91-1.51-4-3.87-5.59-8.24-5.27-5.3.39-10.65,0-16,.07a26.4,26.4,0,0,0-4.6.86,33.21,33.21,0,0,0,1.91,4.4c1.46,2.39,2.7,5.84,4.85,6.63s5.42-1,8.16-1.7c5.13-1.38,7.78.8,7.56,6.25a38.12,38.12,0,0,0,0,5.45,16.79,16.79,0,0,1-10,17.22c-1.82.83-3.24,2.85-4.44,4.6-1,1.47-1.22,3.46-2.13,5-6.72,11.63-13.54,23.21-20.31,34.82-.56,1-1,2-1.46,3.06a25.17,25.17,0,0,0,3.25.87,25.51,25.51,0,0,0,3.5.06ZM309.79,426.37v-.13c6.83,0,13.66,0,20.49,0,7.23,0,7.23,0,7.84-7.19.05-.5.07-1,.12-1.5q3.17-32.31,6.35-64.63c.11-1.11.09-2.23.13-3.35a26.1,26.1,0,0,0-3.57,1.15c-15,7.2-29.55,15.3-42.85,25.47-1.41,1.07-3.61,1.1-5.44,1.61-.07-1.76-.57-3.64-.15-5.28,2.54-9.79,5.18-19.56,8-29.27.88-3,.72-4.25-2.79-4.21-9.83.12-19.66.15-29.48-.09-4-.1-4.11,1.2-3.34,4.65,5.78,26,11.44,52,16.8,78.05.8,3.86,2.21,4.91,5.86,4.8C295.13,426.22,302.46,426.37,309.79,426.37Zm28.09-269.14v.08c-5.82,0-11.65-.09-17.47,0-2.67.06-5.34.54-8,.83,1.3,2.2,2.7,4.36,3.87,6.63A12.72,12.72,0,0,1,317,168c-1.1.09-2.66.7-3.21.2-2.46-2.25-4.63-4.82-6.9-7.28-1.14-1.23-2.26-3.54-3.41-3.55-6.28-.07-13-1.82-18.22,3.75a11.23,11.23,0,0,1-2.9,1.94c-3.68,2-4.9,1.53-4.8-2.57.08-3.34-1.21-3.88-4.16-3.67-3.62.26-7.29-.05-10.94,0a32.63,32.63,0,0,0-3.55.38,29.73,29.73,0,0,0,2,2.7c7.92,8.52,16.57,16.48,23.64,25.66,8,10.35,14.65,21.69,21.62,32.78,2.33,3.71,3.06,3.94,6.72,1.15,5.26-4,10.55-8.12,16.32-11.3,9-4.95,18.52-9,27.62-13.78,1.86-1,3.88-3.41,4.13-5.38,1.16-9.23,1.58-18.56,2.61-27.81.37-3.28-.63-4.08-3.67-4C352.53,157.33,345.2,157.23,337.88,157.23Zm-27.2,274.33v-.3c-6.82,0-13.65,0-20.47,0-6.45,0-6.38,0-5.43,6.3,4.21,27.78,8.44,55.55,12.5,83.36.48,3.3,1.64,4.63,5,4.57,6.82-.13,13.65-.11,20.46.17,3.65.15,4.88-1.25,5.22-4.79q4.11-42.47,8.56-84.9c.34-3.29-.51-4.54-3.9-4.47C325.32,431.67,318,431.56,310.68,431.56ZM255.62,310.4c-1.25,7.56,3.1,13.17,4.94,19.47,1,3.41,3,4.2,6.28,4.17q16.23-.18,32.47.15c3.54.07,5.66-.85,7.42-4.28a125.91,125.91,0,0,1,29.72-38.47c2.15-1.86,3.46-2.12,5.09.34,1.74,2.63,3.63,5.17,5.53,7.69a9.94,9.94,0,0,0,1.86,1.52c.38-.66,1-1.29,1.09-2q2.16-19.35,4.15-38.72a11.25,11.25,0,0,0-.57-3.12,23,23,0,0,0-2.31,1.71c-13,12.35-28.45,20.67-45,27.26-4.15,1.66-8.07,2.21-12,.4-9.51-4.33-18.92-8.88-28.37-13.34-1.14-.54-2.3-1.05-3.44-1.57a21.4,21.4,0,0,0-.79,4.26c.12,6.32.59,12.64.49,18.95,0,2.13-.85,5.49-2.28,6.13C255.08,303.13,255,306.71,255.62,310.4ZM174,344.58c25.17.06,44.53-3.4,62.71-12.18,8.75-4.23,14.08-10.79,13.88-21.15-.1-5.27.08-5.44-5.11-3.6C207,321.29,168,320.47,128.88,311.32c-8-1.88-15.69-5.37-23.51-8.12-1.62-.57-3.2-2.06-4.05,1.16-3.33,12.71-1.65,17.12,9.54,23.78,1.57.94,3.17,1.84,4.82,2.62A149.86,149.86,0,0,0,174,344.58ZM95.49,189.29c-1.22,1.77-1.88,2.92-2.72,3.93-4.26,5.11-8.91,9.93-12.77,15.31-6.08,8.48-12.21,17-17.28,26.11-6.56,11.79-4.89,23.27,3.48,34,5.42,6.92,12.74,11,20.29,14.94,3,1.55,3.34-.56,3.66-2.7,3.68-24.32,7.19-48.69,14.72-72.22,1.57-4.9,2.34-8.71-3.27-11.44-1.6-.79-2.52-3-3.73-4.58C97.28,191.82,96.72,191,95.49,189.29ZM223.24,780c8.34.2,8.19.17,10-7.14,5.15-20.81,10.44-41.6,15.64-62.4a20,20,0,0,0,.26-3.3c-1.09.19-2.2.31-3.28.56-10.64,2.5-21.23,5.3-32,7.37-3.47.66-4.37,1.53-4.08,4.93,1.54,17.73,3.05,35.47,4.15,53.23.3,4.77,2.22,6.6,6.64,6.62C221.77,779.87,222.94,780,223.24,780Zm-134.45.32,1,.23c.54,6.81.85,13.64,1.78,20.4.28,2.09,2,5.35,3.49,5.62,3.31.6,3.29-2.88,3.77-5.26,1.23-6,2.4-12.08,3.64-18.11,1.07-5.21,3.55-6.15,7.23-2.16,3,3.26,5.26,7.24,7.56,11.07,5.44,9.06,12.78,14.35,23.85,12.84,3.63-.49,7.32-.71,10.87-1.53a80.75,80.75,0,0,0,9.14-3.23c-2.54-2.13-4.82-4.75-7.67-6.33-14.24-7.86-26.67-17.56-34.84-32a6.67,6.67,0,0,0-3.91-2.64c-4.82-1.19-9.76-1.89-14.59-3-3.74-.89-6.48.1-7.35,3.85C91.26,766.73,90.11,773.54,88.79,780.32ZM232.62,99.86A64.13,64.13,0,0,0,219,63c-.72-.94-2-1.42-3.08-2.12-.51,1.14-1.58,2.36-1.44,3.42.75,5.84-2,10.16-6.17,13.43-7.87,6.25-11.46,13.42-7.33,23.4,1.36,3.26,0,6-3.15,8a53.24,53.24,0,0,0-8.17,6.48c-3.73,3.64-3.22,6.61,1.78,8A164.54,164.54,0,0,0,211,127.56c2.17.34,5.13.38,6.68-.8C226.44,120,233.18,111.89,232.62,99.86ZM205.21,800.8l1,.19c.54,9.8,1,19.61,1.72,29.4.12,1.48,1.36,3.85,2.46,4.09,2.76.6,3.52-1.73,3.77-4.08a8.52,8.52,0,0,1,.3-2c1.74-4.82,2.91-10,5.47-14.33,3.39-5.77,9.06-6.06,13.77-1.17a22.83,22.83,0,0,1,5.17,7.85c4.06,11.71,13.07,15.07,24.24,15.21a16.12,16.12,0,0,0,2.5.06c2.66-.37,5.31-.85,8-1.28-2.19-1.64-4.16-3.76-6.6-4.83-9.33-4.07-16.85-10.19-21.75-19.09-3.84-7-7.25-14.2-10.46-21.49-1.33-3-2.9-4.32-6.26-4.41a78.75,78.75,0,0,1-13.32-1.58c-3.45-.69-5.61.25-6.51,3.54C207.38,791.51,206.35,796.17,205.21,800.8ZM100.79,725.08c-.4,5.3-.83,10.6-1.21,15.91-.78,10.94.14,11.87,11.22,13.14,3.66.42,5.41-.69,6.36-4.33Q122.32,730,128,710.4c.9-3.11.26-4.57-2.79-5.48-6.36-1.92-12.7-3.91-19-6.14-3.2-1.14-3.72.28-3.88,2.92C101.9,709.5,101.33,717.29,100.79,725.08ZM629.92,152.35v-.12c3.65,0,7.31.21,10.93-.12,1.18-.11,3.15-1.58,3.21-2.53.4-6.37-.32-12.61-4.37-17.94-3-3.87-7.33-4.85-11.43-2.36-7.46,4.54-10.45,11.7-11,20-.06,1,1.65,2.79,2.69,2.91A86.43,86.43,0,0,0,629.92,152.35Zm-203.76-.08V152c3.83,0,7.67.17,11.48-.11,1.11-.08,3.08-1.48,3-2.18-.37-6.12-.45-12.35-4.43-17.6-3.39-4.47-7.37-5.34-12.19-2.36-7.21,4.45-9.47,11.71-10.54,19.45-.12.89,1.63,2.82,2.68,2.94A84.9,84.9,0,0,0,426.16,152.27Zm101.54.09v-.17c3.48,0,7,.14,10.43-.08,1.12-.08,3.12-1.14,3.1-1.69-.2-6.56.51-13.4-4.29-18.91-3.65-4.18-8.25-4.66-12.8-1.36a21.4,21.4,0,0,0-8.88,15.45c-.77,6.55-.49,6.76,6,6.76Zm308.39.07v-.07c3.32,0,6.65.17,9.95-.09,1.26-.1,3.5-1.23,3.48-1.83-.21-6.89.47-14.12-5.28-19.54-3.82-3.59-7.84-3.72-12-.4-5.89,4.68-8,11.19-8.91,18.28-.32,2.54.73,3.72,3.31,3.67C829.79,152.39,832.94,152.43,836.09,152.43Zm-102.55,0v-.18c3.33,0,6.66.16,10-.09,1-.08,2.81-1.21,2.83-1.9.16-6.14.49-12.38-3.24-17.81-3.48-5.07-9-5.78-13.74-1.87-5.94,4.9-8.35,11.46-8.51,18.9,0,1,1.68,2.69,2.73,2.81A89.3,89.3,0,0,0,733.54,152.43ZM358.15,151.2c2.62,0,6.45,0,10.27,0,2,0,2.28-.61,1-2.34-3.05-4.15-6-8.41-8.78-12.72-5.5-8.37-5.43-8.24-15.22-6.18-2.88.6-3.45,1.78-3.12,4.38.61,4.76,1.15,9.55,1.4,14.34.12,2.39,1,3.36,3.27,3.22Zm-33.73,1.13v-.13c2.83,0,5.65-.08,8.47,0,3.6.13,5.76-.62,4.68-5.06a41.48,41.48,0,0,1-.89-9.39c0-3.68-1.45-4.25-4.59-2.86-5,2.23-10.1,4.22-15.12,6.41-1.35.59-3.15,1.21-3.71,2.33a15,15,0,0,0-1.7,6.87c0,.64,3.14,1.53,4.9,1.73A70.4,70.4,0,0,0,324.42,152.33Zm42.27,32.82c-.68,2.71.63,3.09,2.33,1.43a25.29,25.29,0,0,0,4.25-5.65c2.06-3.7,3.9-7.52,5.68-11.37.54-1.17,1.18-2.95.68-3.83a31.72,31.72,0,0,0-5.33-7.15c-2.79-2.69-5.45-1.68-5.81,2.19C367.72,168.88,367.27,177,366.69,185.15Zm24.82,7.1c4.08-.24,8.53-8.53,6.32-11.69-1.43-2-2-2.93.22-4.54.51-.36,0-2.13,0-3.26-1.06.13-2.33-.07-3.15.45-2.5,1.6-4.73,3.62-7.26,5.16-1,.58-2.45.31-3.7.42a13.33,13.33,0,0,0,0-2.6c-.08-.47-.66-.86-1-1.29-1.58,1.6-3.45,3-4.56,4.92-.3.52,1.49,2.55,2.6,3.58,2.64,2.43,5.45,4.69,8.2,7C390,191.11,390.92,191.78,391.51,192.25ZM224.06,817.19C224,823,231.28,832,236,832.53c.75.08,2.49-1.84,2.37-2-2.84-5-5.76-10-9-14.75-.59-.87-2.73-1.29-3.89-1C224.69,815,224.27,816.8,224.06,817.19ZM302.91,147l-2.79,3.19c.76.46,1.59,1.37,2.25,1.26a3.26,3.26,0,0,0,2.19-1.75C304.75,149.19,303.72,148.24,302.91,147Zm348.82,259.4-.19.28.28,0Z" transform="translate(-53.66 -23.56)"/><path class="cls-1" d="M594.26,614.85q-140.7,0-281.42.1c-4.17,0-5.79-.89-6.17-5.32-2.13-24.89-4.51-49.76-7-74.61-.39-3.9,1.12-4.35,4.42-4.35q105.46.18,210.93.18,148.69,0,297.4-.09c12.66,0,25.32-.32,38-.21,4.3,0,6.09-1.18,6.39-5.81,1.82-28.09,4-56.17,6-84.25q6.94-97.2,13.82-194.41,2.7-38.64,4.81-77.31c.26-4.75,1.91-6,6.29-5.51a61.22,61.22,0,0,0,10.49.15c3.85-.23,5.45,1,5.05,5.11-.63,6.29-.88,12.63-1.18,18.95q-5.64,119.32-11.26,238.65-4.32,91.61-8.57,183.22c-.18,4-1.33,5.4-5.53,5.4q-141.21-.16-282.42-.09Z" transform="translate(-53.66 -23.56)"/><path class="cls-1" d="M730.81,244.82c-11.82,0-23.65-.12-35.47.07-3.42.06-5.69-1-7.31-4a36.12,36.12,0,0,0-4.52-7.16c-7.44-8.27-9.32-17.51-7.63-28.54,2.19-14.28,2.94-28.79,4.09-43.22.27-3.27,1.57-4.3,4.64-4.26,9,.13,18-.06,27,.26,1.45.06,3.43,1.86,4.11,3.34,1.56,3.41,3.7,5.91,7.31,6.95a14.42,14.42,0,0,0,3.24.19c-.18-1.24-.06-2.64-.62-3.67-.77-1.44-2.19-2.51-3.07-3.9a12,12,0,0,1-.94-3.12,18.32,18.32,0,0,1,2.82-.43c13,0,26,0,39,.05,4.49,0,9,.06,13.48-.06,2.65-.07,3.46.9,3.18,3.57-2.79,26.66-5.55,53.32-8.13,80-.34,3.41-2.11,3.53-4.65,3.52-12.16,0-24.31,0-36.47,0Z" transform="translate(-53.66 -23.56)"/><path class="cls-1" d="M823.93,244.46c-14,0-28-.09-42,0-3.58,0-5.14-.85-4.73-4.8q4-38.51,7.58-77c.38-4.1,2.07-5.44,6-5.29q11.73.44,23.47.38c2.65,0,3.93,1.06,4.65,3.44,1.07,3.57,3.21,6.21,7.05,7a14.64,14.64,0,0,0,3.17,0c-.19-1.12-.08-2.42-.63-3.31-.94-1.55-2.4-2.76-3.44-4.26-1.36-2-1.3-3.38,1.7-3.37q23.73.1,47.46.12c2.28,0,3.27.79,3.08,3.3-2,26.73-4,53.47-5.79,80.22-.26,3.82-2.51,3.61-5.1,3.61Q845.16,244.44,823.93,244.46Z" transform="translate(-53.66 -23.56)"/><path class="cls-1" d="M646.32,157.42c8.15,0,16.31.16,24.46-.07,3.84-.1,4.85,1.15,4.41,5-1.83,15.53-3.36,31.1-5.06,46.64a9.62,9.62,0,0,1-1,2.49,8.58,8.58,0,0,1-1.9-1.49c-2.72-3.78-5.37-7.6-8-11.44-1.54-2.25-2.87-2.69-5.11-.5-11.35,11.13-22.1,23-28.64,37.44-3.69,8.17-8.47,9.64-16.32,9.22-11.79-.63-23.63-.22-35.45-.24-2.47,0-4.59.07-4.22-3.65,2.56-25.82,5.12-51.65,7.31-77.51.4-4.79,2.37-5.78,6.51-5.65q12.48.39,25,.27c3,0,4.26,1.25,5.65,3.73s3.84,4.67,6.07,6.7c.56.51,2.06,0,3.13,0a11.22,11.22,0,0,0-.6-3.23c-.66-1.32-1.83-2.38-2.57-3.67a23.08,23.08,0,0,1-1.36-3.5,22.93,22.93,0,0,1,3.28-.47c8.15,0,16.31,0,24.47,0Z" transform="translate(-53.66 -23.56)"/><path class="cls-1" d="M629.92,152.35a86.43,86.43,0,0,1-9.93-.14c-1-.12-2.75-2-2.69-2.91.51-8.32,3.5-15.48,11-20,4.1-2.49,8.48-1.51,11.43,2.36,4,5.33,4.77,11.57,4.37,17.94-.06.95-2,2.42-3.21,2.53-3.62.33-7.28.12-10.93.12Z" transform="translate(-53.66 -23.56)"/><path class="cls-1" d="M836.09,152.43c-3.15,0-6.3,0-9.46,0-2.58.05-3.63-1.13-3.31-3.67.92-7.09,3-13.6,8.91-18.28,4.17-3.32,8.19-3.19,12,.4,5.75,5.42,5.07,12.65,5.28,19.54,0,.6-2.22,1.73-3.48,1.83-3.3.26-6.63.09-9.95.09Z" transform="translate(-53.66 -23.56)"/><path class="cls-1" d="M733.54,152.43a89.3,89.3,0,0,1-10-.14c-1.05-.12-2.75-1.85-2.73-2.81.16-7.44,2.57-14,8.51-18.9,4.74-3.91,10.26-3.2,13.74,1.87,3.73,5.43,3.4,11.67,3.24,17.81,0,.69-1.8,1.82-2.83,1.9-3.31.25-6.64.09-10,.09Z" transform="translate(-53.66 -23.56)"/><path class="cls-1" d="M358.15,151.2l-11.17.69c-2.29.14-3.15-.83-3.27-3.22-.25-4.79-.79-9.58-1.4-14.34-.33-2.6.24-3.78,3.12-4.38,9.79-2.06,9.72-2.19,15.22,6.18,2.82,4.31,5.73,8.57,8.78,12.72,1.27,1.73,1,2.32-1,2.34C364.6,151.22,360.77,151.2,358.15,151.2Z" transform="translate(-53.66 -23.56)"/><path class="cls-1" d="M324.42,152.33a70.4,70.4,0,0,1-8-.08c-1.76-.2-4.89-1.09-4.9-1.73a15,15,0,0,1,1.7-6.87c.56-1.12,2.36-1.74,3.71-2.33,5-2.19,10.12-4.18,15.12-6.41,3.14-1.39,4.57-.82,4.59,2.86a41.48,41.48,0,0,0,.89,9.39c1.08,4.44-1.08,5.19-4.68,5.06-2.82-.1-5.64,0-8.47,0Z" transform="translate(-53.66 -23.56)"/><path class="cls-1" d="M366.69,185.15c.58-8.13,1-16.27,1.8-24.38.36-3.87,3-4.88,5.81-2.19a31.72,31.72,0,0,1,5.33,7.15c.5.88-.14,2.66-.68,3.83-1.78,3.85-3.62,7.67-5.68,11.37a25.29,25.29,0,0,1-4.25,5.65C367.32,188.24,366,187.86,366.69,185.15Z" transform="translate(-53.66 -23.56)"/><path class="cls-1" d="M391.51,192.25c-.59-.47-1.47-1.14-2.31-1.85-2.75-2.31-5.56-4.57-8.2-7-1.11-1-2.9-3.06-2.6-3.58,1.11-1.88,3-3.32,4.56-4.92.35.43.93.82,1,1.29a13.33,13.33,0,0,1,0,2.6c1.25-.11,2.74.16,3.7-.42,2.53-1.54,4.76-3.56,7.26-5.16.82-.52,2.09-.32,3.15-.45,0,1.13.52,2.9,0,3.26-2.25,1.61-1.65,2.52-.22,4.54C400,183.72,395.59,192,391.51,192.25Z" transform="translate(-53.66 -23.56)"/><path class="cls-1" d="M224.06,817.19c.21-.39.63-2.18,1.47-2.42,1.16-.32,3.3.1,3.89,1,3.22,4.77,6.14,9.74,9,14.75.12.2-1.62,2.12-2.37,2C231.28,832,224,823,224.06,817.19Z" transform="translate(-53.66 -23.56)"/><path class="cls-1" d="M302.91,147c.81,1.25,1.84,2.2,1.65,2.7a3.26,3.26,0,0,1-2.19,1.75c-.66.11-1.49-.8-2.25-1.26Z" transform="translate(-53.66 -23.56)"/><path class="cls-1" d="M695.2,250.08l-.25,0,.15.08Z" transform="translate(-53.66 -23.56)"/><polygon class="cls-1" points="598.07 382.83 598.16 383.15 597.88 383.11 598.07 382.83"/><path d="M225.11,106.49c-2.29-1.08-4.87-2.15-7.27-3.52-.62-.36-.72-1.65-1.06-2.51.87-.28,1.78-.9,2.6-.8a83.37,83.37,0,0,1,8.27,1.5,17.49,17.49,0,0,1,3.27,1.51,19.27,19.27,0,0,1-2.62,2.85C227.58,106.05,226.49,106.1,225.11,106.49Z" transform="translate(-53.66 -23.56)"/><path d="M219.27,78.59c1.5,2.06,3.28,4,4.32,6.27.31.68-1.26,3-2.33,3.34-2.38.68-6.29-2.84-6-5.25.2-1.45,1.43-2.76,2.19-4.13Z" transform="translate(-53.66 -23.56)"/></svg>