<svg id="Layer_1" data-name="Layer 1" xmlns="http://www.w3.org/2000/svg" viewBox="0 0 1593.27 377.81"><defs><style>.cls-1{fill:#fff;}</style></defs><path class="cls-1" d="M-36.14,183.38c-18.72,7.31-37.32,14.93-56.21,21.76-7.17,2.6-9.46,6.24-9.44,14q.41,148.86.13,297.73c0,21.84-4.45,28.1-25.87,33.73-30,7.89-60.8,7.54-91.51,7.44q-401.11-1.38-802.21-2.72c-184.89-.41-369.78.06-554.68,0-11.75,0-23.78-.46-35.19-3-15.12-3.32-18.74-10.24-17-25.48a108.11,108.11,0,0,0,.2-12.48q-.75-134.45-1.47-268.91c-.06-13.43.6-26.88,1.16-40.31.55-13.23,5.88-19.93,18.79-23.06a68.8,68.8,0,0,1,16.13-1.82q262.47,0,524.92.19,511.49.21,1023,.41c3,0,6.09.25,9.14.38Z" transform="translate(1629.41 -180.22)"/></svg>