<?xml version="1.0" encoding="UTF-8"?>
<svg version="1.1" xmlns="http://www.w3.org/2000/svg" width="512" height="512">
<path d="M0 0 C1.51393593 -0.0146228 1.51393593 -0.0146228 3.05845642 -0.02954102 C44.4819755 -0.3476314 44.4819755 -0.3476314 63.37890625 4.23828125 C64.63791748 4.52711182 64.63791748 4.52711182 65.92236328 4.82177734 C71.46796386 6.10648489 76.92921402 7.59620293 82.37890625 9.23828125 C83.11625 9.45709961 83.85359375 9.67591797 84.61328125 9.90136719 C116.78324433 19.58891289 147.25227489 36.99538308 171.84765625 59.89453125 C174.06373402 61.94645511 176.32396259 63.91294431 178.62890625 65.86328125 C181.90673066 68.71558687 184.74377394 71.7820243 187.546875 75.09765625 C189.51250576 77.39438473 191.56776688 79.58954114 193.62890625 81.80078125 C202.81652322 92.00576637 210.46944688 103.39741847 217.37890625 115.23828125 C217.74226074 115.8528418 218.10561523 116.46740234 218.47998047 117.10058594 C239.16165893 152.18447376 249.56779177 191.40560906 249.56420898 232.02368164 C249.5663823 234.77050596 249.58455552 237.51691893 249.60351562 240.26367188 C249.65592454 256.11852807 248.44429033 271.46926203 244.75390625 286.92578125 C244.49520752 288.02100098 244.23650879 289.1162207 243.9699707 290.24462891 C234.66540646 328.25721137 216.44921902 363.07273923 190.37890625 392.23828125 C189.88890137 392.79 189.39889648 393.34171875 188.89404297 393.91015625 C172.60068397 412.17799174 153.7172243 427.24579926 132.37890625 439.23828125 C131.50637207 439.73070312 130.63383789 440.223125 129.73486328 440.73046875 C74.79032716 471.38813875 10.02670546 478.76852421 -50.62207031 462.10498047 C-79.84724034 453.65908715 -108.10685062 439.61542099 -131.62109375 420.23828125 C-132.18199707 419.7788916 -132.74290039 419.31950195 -133.32080078 418.84619141 C-139.71000512 413.59260679 -145.91062158 408.23507235 -151.62109375 402.23828125 C-152.82765625 401.03171875 -152.82765625 401.03171875 -154.05859375 399.80078125 C-154.90421875 398.95515625 -155.74984375 398.10953125 -156.62109375 397.23828125 C-157.15863281 396.74714844 -157.69617188 396.25601562 -158.25 395.75 C-189.10763077 366.69615558 -208.05686721 323.06042254 -216.93359375 282.42578125 C-217.08103027 281.75893311 -217.2284668 281.09208496 -217.38037109 280.4050293 C-220.2583511 266.16189615 -220.9521755 251.7857154 -220.88183594 237.29711914 C-220.87108545 234.67375679 -220.88182623 232.05107667 -220.89453125 229.42773438 C-220.90787259 214.72205117 -219.65848684 200.42954012 -216.43359375 186.05078125 C-216.11213379 184.60759521 -216.11213379 184.60759521 -215.78417969 183.13525391 C-208.87008005 153.14644693 -196.60736308 124.2969958 -178.62109375 99.23828125 C-177.90308594 98.23539062 -177.18507812 97.2325 -176.4453125 96.19921875 C-172.14616608 90.3333713 -167.61370156 84.82048747 -162.6640625 79.4921875 C-161.24972384 77.9318177 -159.89552792 76.31559638 -158.59375 74.66015625 C-156.80283027 72.46140332 -155.04253842 70.73382299 -152.87109375 68.92578125 C-150.02059939 66.49602407 -147.35185693 63.99094161 -144.74609375 61.30078125 C-140.35174603 56.85513764 -135.57484055 53.03999391 -130.62109375 49.23828125 C-129.69296875 48.51640625 -128.76484375 47.79453125 -127.80859375 47.05078125 C-96.08362158 22.75080257 -58.18727929 7.01416306 -18.62109375 1.23828125 C-17.42814697 1.06393555 -16.2352002 0.88958984 -15.00610352 0.70996094 C-10.00868739 0.09803317 -5.02984092 0.04004468 0 0 Z M-71.12109375 120.67578125 C-72.35053365 120.68537817 -72.35053365 120.68537817 -73.60481071 120.69516897 C-94.27708636 120.856911 -114.94916769 121.03657105 -135.62109375 121.23828125 C-134.66147118 122.36864279 -133.70032262 123.49770896 -132.73852539 124.6262207 C-132.20344864 125.25510696 -131.66837189 125.88399323 -131.11708069 126.53193665 C-129.53997728 128.33080389 -127.90052928 129.90009451 -126.05859375 131.42578125 C-122.36720544 134.56663746 -118.79734373 137.81631704 -115.24609375 141.11328125 C-111.43870271 144.64339549 -107.61833108 148.15408257 -103.74609375 151.61328125 C-97.60447317 157.1199039 -91.59699193 162.76934216 -85.57666016 168.40771484 C-82.42822465 171.35490204 -79.27446326 174.29637542 -76.12109375 177.23828125 C-74.87106667 178.4049189 -73.62106671 179.57158561 -72.37109375 180.73828125 C-71.44296875 181.60453125 -71.44296875 181.60453125 -70.49609375 182.48828125 C-49.87109375 201.73828125 -49.87109375 201.73828125 -47.99487305 203.48950195 C-46.74905037 204.65221568 -45.50311996 205.81481397 -44.25708008 206.97729492 C-41.06725859 209.95348808 -37.8795268 212.93187022 -34.6953125 215.9140625 C-28.49360326 221.71911027 -22.28393537 227.50839763 -15.94140625 233.16015625 C-14.34028853 234.59415393 -12.75246251 236.04308336 -11.17578125 237.50390625 C0.9693697 249.37970965 0.9693697 249.37970965 16.5546875 253.6796875 C27.63860902 251.94734569 36.61755681 240.67058649 44.33251953 233.20800781 C47.54246217 230.11831356 50.80409427 227.0849684 54.06640625 224.05078125 C54.68612305 223.47255615 55.30583984 222.89433105 55.94433594 222.29858398 C60.43620944 218.10802356 64.9474327 213.93880935 69.46557617 209.77661133 C74.26203339 205.35468302 79.02936649 200.901942 83.79516602 196.44702148 C87.78843755 192.71644493 91.79598299 189.00206394 95.81640625 185.30078125 C100.65254745 180.84663701 105.45968643 176.36250762 110.25390625 171.86328125 C110.92365479 171.23478271 111.59340332 170.60628418 112.28344727 169.95874023 C113.63950815 168.6860591 114.99554654 167.41335399 116.3515625 166.140625 C132.84930476 150.66008458 132.84930476 150.66008458 140.91796875 143.44921875 C144.29138656 140.41849735 147.6265124 137.34678847 150.96264648 134.27514648 C154.8662706 130.6882903 158.8302376 127.17595436 162.83203125 123.69921875 C163.3425 123.21710938 163.85296875 122.735 164.37890625 122.23828125 C164.37890625 121.90828125 164.37890625 121.57828125 164.37890625 121.23828125 C142.12907404 121.02932986 119.87908048 120.84420572 97.62890625 120.67578125 C96.36905474 120.66620699 96.36905474 120.66620699 95.08375168 120.6564393 C39.67776543 120.23694425 -15.71525102 120.24152299 -71.12109375 120.67578125 Z M-158.62109375 127.23828125 C-161.88393864 132.13254858 -161.77830981 136.93785212 -161.82641602 142.68017578 C-161.83631278 143.42119411 -161.84620955 144.16221245 -161.85640621 144.92568588 C-161.88817877 147.40745607 -161.91297332 149.88924208 -161.9375 152.37109375 C-161.9582571 154.15740277 -161.97930132 155.94370847 -162.00061035 157.73001099 C-162.05690046 162.59236489 -162.10616337 167.45476673 -162.15352249 172.31721497 C-162.18355223 175.3590757 -162.2154193 178.40091218 -162.24777222 181.44274902 C-162.75627081 229.70719486 -162.72455199 277.97184422 -162.62109375 326.23828125 C-161.35536063 325.30740235 -160.09219153 324.37303661 -158.83007812 323.43725586 C-158.12637085 322.91731552 -157.42266357 322.39737518 -156.69763184 321.86167908 C-153.57680487 319.42187614 -150.86080119 316.6532198 -148.12109375 313.80078125 C-144.11980366 309.66478438 -140.0083735 305.77453513 -135.65185547 302.01293945 C-132.33174248 299.11153271 -129.13772589 296.07897203 -125.93359375 293.05078125 C-124.52771205 291.72747319 -123.12145714 290.40456153 -121.71484375 289.08203125 C-121.02390625 288.43234375 -120.33296875 287.78265625 -119.62109375 287.11328125 C-115.17325599 282.94343335 -110.68392378 278.81844716 -106.19775391 274.68994141 C-103.50298429 272.20881719 -100.81228061 269.72329009 -98.12109375 267.23828125 C-97.03777913 266.23826098 -95.95444581 265.23826096 -94.87109375 264.23828125 C-94.33484375 263.74328125 -93.79859375 263.24828125 -93.24609375 262.73828125 C-72.93359375 243.98828125 -72.93359375 243.98828125 -52.62109375 225.23828125 C-54.00169552 222.09785294 -55.56738218 220.09367585 -58.078125 217.76953125 C-58.77180176 217.12226074 -59.46547852 216.47499023 -60.18017578 215.80810547 C-60.92380371 215.12506348 -61.66743164 214.44202148 -62.43359375 213.73828125 C-63.2004248 213.02559082 -63.96725586 212.31290039 -64.75732422 211.57861328 C-67.04004137 209.45945678 -69.32966646 207.34801172 -71.62109375 205.23828125 C-72.78412012 204.16304801 -73.94690821 203.08755694 -75.109375 202.01171875 C-77.19524923 200.08302135 -79.28427061 198.15780706 -81.375 196.234375 C-84.9948881 192.89971046 -88.5889616 189.53762164 -92.18359375 186.17578125 C-96.64227037 182.0070262 -101.1157563 177.856583 -105.62109375 173.73828125 C-110.77436598 169.02770623 -115.88240123 164.27057568 -120.98217773 159.50219727 C-125.55753374 155.22590704 -130.1458027 150.96414871 -134.75952148 146.72924805 C-137.65418841 144.06922357 -140.52313075 141.38602616 -143.3671875 138.671875 C-144.30679321 137.78157593 -144.30679321 137.78157593 -145.26538086 136.87329102 C-146.47097333 135.72987356 -147.67133509 134.58090639 -148.86547852 133.42553711 C-151.94450174 130.51659068 -154.47365367 128.49179859 -158.62109375 127.23828125 Z M182.12890625 130.98828125 C181.22269531 131.81199219 180.31648438 132.63570312 179.3828125 133.484375 C174.59171443 137.87081417 169.81916455 142.27725549 165.05224609 146.68994141 C162.33019633 149.20865159 159.60439784 151.72329678 156.87890625 154.23828125 C155.79555419 155.23826096 154.71222087 156.23826098 153.62890625 157.23828125 C108.12890625 199.23828125 108.12890625 199.23828125 106.50146484 200.74047852 C105.42619454 201.73307306 104.35099831 202.72574787 103.27587891 203.71850586 C100.44480685 206.33249754 97.61217983 208.9447779 94.77734375 211.5546875 C94.18759766 212.09802734 93.59785156 212.64136719 92.99023438 213.20117188 C91.86180316 214.24075024 90.73292182 215.27984031 89.60351562 216.31835938 C87.14855439 218.58089634 84.71165444 220.84922534 82.37890625 223.23828125 C85.63241621 230.82409659 93.33950197 236.29144042 99.48046875 241.55859375 C101.96849651 243.75993518 104.27084702 246.1191664 106.59765625 248.48828125 C108.46280299 250.32070612 110.39818371 252.0318126 112.37890625 253.73828125 C115.60846992 256.52067457 118.61213278 259.44847554 121.59765625 262.48828125 C123.46280299 264.32070612 125.39818371 266.0318126 127.37890625 267.73828125 C130.60846992 270.52067457 133.61213278 273.44847554 136.59765625 276.48828125 C138.46280299 278.32070612 140.39818371 280.0318126 142.37890625 281.73828125 C145.60846992 284.52067457 148.61213278 287.44847554 151.59765625 290.48828125 C153.46280299 292.32070612 155.39818371 294.0318126 157.37890625 295.73828125 C160.60846992 298.52067457 163.61213278 301.44847554 166.59765625 304.48828125 C169.0973431 306.94411395 171.75373498 309.20087441 174.41015625 311.484375 C176.32107459 313.18676058 178.10034837 314.96159072 179.87890625 316.80078125 C182.30154469 319.27686024 184.80895429 321.39905011 187.59765625 323.453125 C188.30857422 323.97898193 189.01949219 324.50483887 189.75195312 325.04663086 C190.28884766 325.43987549 190.82574219 325.83312012 191.37890625 326.23828125 C191.4849217 278.29309639 191.5099183 230.34663034 191.115448 182.40261841 C191.08131535 178.21486783 191.05406914 174.02715994 191.03274536 169.83932495 C191.00714604 164.90597729 190.96713211 159.97295704 190.91578293 155.03981209 C190.8992334 153.23286859 190.88759326 151.4258723 190.88127518 149.61886406 C190.87168307 147.15034028 190.84378314 144.682669 190.8112793 142.21435547 C190.8127147 141.50337928 190.8141501 140.79240309 190.81562901 140.05988216 C190.72180045 135.05678144 189.54438209 131.65088719 187.37890625 127.23828125 C185.34295299 127.23828125 183.51772789 129.72490157 182.12890625 130.98828125 Z M-41.28515625 237.7421875 C-41.93226563 238.42152344 -42.579375 239.10085938 -43.24609375 239.80078125 C-45.96828449 242.5968108 -48.72151501 245.26020689 -51.68359375 247.80078125 C-54.89411511 250.56070312 -57.87466622 253.4691914 -60.83984375 256.48828125 C-63.3400556 258.94462974 -65.99789891 261.20137493 -68.65234375 263.48828125 C-71.12745819 265.68838297 -73.42855102 268.03242639 -75.74682617 270.39526367 C-77.55110308 272.16945754 -79.40939066 273.82760787 -81.328125 275.4765625 C-85.59358024 279.18544099 -89.70880107 283.03559916 -93.80859375 286.92578125 C-98.92961097 291.76570582 -104.06008832 296.5930007 -109.24609375 301.36328125 C-113.88977188 305.63517467 -118.51175687 309.92934922 -123.12109375 314.23828125 C-129.38193068 320.08941106 -135.66859817 325.91167735 -141.97119141 331.71777344 C-144.9604852 334.47263016 -147.94682016 337.23069281 -150.93359375 339.98828125 C-152.03384224 341.00391917 -153.1341015 342.01954543 -154.234375 343.03515625 C-155.02199219 343.7621875 -155.80960937 344.48921875 -156.62109375 345.23828125 C-153.24715032 348.31165331 -150.72504781 348.69094123 -146.22315884 348.91700363 C-144.97377368 348.98130239 -143.72438852 349.04560115 -142.43714321 349.11184835 C-136.61860813 349.30462736 -130.80963957 349.38298359 -124.98805237 349.37872314 C-123.04191407 349.38317983 -123.04191407 349.38317983 -121.05645984 349.38772655 C-117.49870363 349.39569423 -113.9409677 349.39758028 -110.38320363 349.39832401 C-106.52983202 349.40019234 -102.67647051 349.40774767 -98.82310486 349.41445923 C-90.42290677 349.42796352 -82.02271351 349.43405302 -73.62250638 349.43846989 C-68.37362585 349.44124213 -63.12474714 349.44548087 -57.87586784 349.44997406 C-43.32727582 349.46214952 -28.77868524 349.47245666 -14.23008823 349.47584915 C-13.3015757 349.47606872 -12.37306317 349.47628828 -11.4164139 349.4765145 C-10.48579195 349.47673278 -9.55517 349.47695106 -8.59634739 349.47717595 C-6.71079735 349.47761941 -4.82524731 349.47806597 -2.93969727 349.47851562 C-2.00441619 349.47873705 -1.06913512 349.47895848 -0.10551219 349.47918662 C15.07876153 349.48314214 30.26298749 349.50062675 45.44724273 349.52387515 C61.05658294 349.54758097 76.66589914 349.56005042 92.27525765 349.56121707 C101.03179764 349.56213352 109.78827513 349.56787973 118.5447979 349.58603668 C125.99230007 349.60142628 133.43972035 349.60656435 140.8872354 349.59829858 C144.68563644 349.5943899 148.48387248 349.5953327 152.28225327 349.60935593 C156.39987176 349.6244192 160.51711773 349.61623628 164.63475037 349.60577393 C165.83435046 349.61383033 167.03395056 349.62188673 168.26990217 349.63018727 C174.42136119 349.59353711 178.94492917 349.20709404 184.37890625 346.23828125 C178.61180318 339.28818268 172.42385662 332.86095875 165.6015625 326.9375 C161.35927487 323.24997306 157.26834674 319.41930373 153.19140625 315.55078125 C148.09188139 310.73089522 142.98234352 305.9244666 137.81640625 301.17578125 C132.97659208 296.72540364 128.17114674 292.23984206 123.37890625 287.73828125 C118.56510348 283.21674304 113.73874997 278.71030701 108.87890625 274.23828125 C104.01905709 269.76625047 99.19318759 265.25931558 94.37890625 260.73828125 C92.36256295 258.84786877 90.34589024 256.9578084 88.32910156 255.06787109 C87.05118228 253.86898187 85.77444478 252.66883144 84.49902344 251.46728516 C82.75435658 249.82444528 81.0047247 248.18706018 79.25390625 246.55078125 C78.74601563 246.06996094 78.238125 245.58914063 77.71484375 245.09375 C74.4566005 242.0608108 71.12389109 239.61084583 67.37890625 237.23828125 C66.67765625 237.87894531 65.97640625 238.51960937 65.25390625 239.1796875 C60.34459934 243.6554279 55.42683659 248.11478845 50.3984375 252.45703125 C48.91507678 253.76537262 47.45761512 255.10322896 46.015625 256.45703125 C34.58511399 267.12313795 26.03884566 270.70693547 10.546875 270.44140625 C-4.09370563 269.90795697 -13.26489259 258.77058142 -23.3359375 249.3046875 C-26.51270651 246.32425099 -29.76084271 243.43796396 -33.0703125 240.60546875 C-34.62109375 239.23828125 -34.62109375 239.23828125 -36.203125 237.55859375 C-38.34148308 235.56750551 -39.16099029 235.82246004 -41.28515625 237.7421875 Z " fill="#000000" transform="translate(241.62109375,20.76171875)"/>
</svg>
