<svg id="Layer_1" data-name="Layer 1" xmlns="http://www.w3.org/2000/svg" viewBox="0 0 450.48 450.48"><defs><style>.cls-1{fill:#fff;}</style></defs><path class="cls-1" d="M650.1,609.24c123.89,0,224.9-100.76,225-224.35.06-125.17-100.32-226.07-225-226.13-124.38-.06-225.39,100.66-225.49,224.83A225.13,225.13,0,0,0,650.1,609.24Z" transform="translate(-424.58 -158.76)"/><path d="M650.1,609.24A225.13,225.13,0,0,1,424.58,383.59c.1-124.17,101.11-224.89,225.49-224.83,124.67.06,225,101,225,226.13C875,508.48,774,609.22,650.1,609.24Zm-.35-56.53c93.16-.06,168.78-75.39,168.78-168.15,0-93.73-75.22-169.24-168.61-169.27A168.71,168.71,0,0,0,481.11,384.4C481.22,477.32,556.82,552.77,649.75,552.71Z" transform="translate(-424.58 -158.76)"/><path class="cls-1" d="M649.75,552.71c-92.93.06-168.53-75.39-168.64-168.31A168.71,168.71,0,0,1,649.92,215.29c93.39,0,168.61,75.54,168.61,169.27C818.53,477.32,742.91,552.65,649.75,552.71Zm-.14-288.22c-66.15,0-119.23,52.72-119.31,118.4-.08,66.92,53,120.25,119.54,120.21,65.75,0,119.11-53.81,119.08-120C768.9,317.72,715.31,264.44,649.61,264.49Z" transform="translate(-424.58 -158.76)"/><path d="M649.61,264.49c65.7-.05,119.29,53.23,119.31,118.63,0,66.17-53.33,119.94-119.08,120-66.58,0-119.62-53.29-119.54-120.21C530.38,317.21,583.46,264.53,649.61,264.49Zm-8.05,92.68-19.3-15.09,7,26.56H602.45l18.61,13.57-18.44,12.28,25.54,2.62c-2.78,8.5-5.13,15.68-8.08,24.68l20.27-13.21c2.44,7.86,4.44,14.31,7,22.69l9.46-23.93c6.84,4.51,13.16,8.68,21.24,14-2.49-8.21-4.29-14.12-6.15-20.25h22.38l-19.86-16.74,19.59-14.29-.66-1.8H671.88l7.52-21.81-21.45,13c-2.78-7.72-5.35-14.85-8.61-23.93C646.31,344,644.06,350.22,641.56,357.17ZM552.9,397.36c6.94.5,12.57-4.85,13.09-12.42.56-8.1-4.35-14.48-11.49-15-6.75-.46-12.71,5.13-13.3,12.49C540.57,390.16,545.81,396.85,552.9,397.36Zm96.69-94.09c7.69-.13,13.88-6.11,13.58-13.12-.29-6.8-6.14-11.81-13.76-11.76-8,.05-13.94,5.66-13.58,12.85C636.17,297.93,642.41,303.39,649.59,303.27ZM757.89,384c.19-7.16-5.26-13.56-11.87-13.95-7.11-.43-13,5.65-13.13,13.45-.07,7.62,4.9,13.5,11.74,13.89C751.84,397.75,757.69,391.85,757.89,384ZM635.76,476.05c-.37,6.65,5.41,12.59,12.69,13.05,7.8.49,14.35-4.75,14.73-11.8.37-6.87-5-12.39-12.62-13S636.16,469,635.76,476.05ZM720,303.37a12.26,12.26,0,0,0-12.18,12.37,12.47,12.47,0,1,0,24.93-.62A12.27,12.27,0,0,0,720,303.37Zm.65,160.85a12.77,12.77,0,0,0,12.08-12.67,12.24,12.24,0,0,0-12.35-12.17,12.39,12.39,0,0,0-12.55,12.91A12.69,12.69,0,0,0,720.64,464.22ZM585.91,303.38c-6.34-.14-11.11,4.92-11.28,12-.16,6.71,4.71,12.54,10.68,12.79s10.94-5,11.14-12.17S592.15,303.52,585.91,303.38Zm10.55,147.88c-.13-7.06-5-12.13-11.31-11.82s-10.73,5.67-10.52,12.72c.2,6.65,5.55,12.28,11.46,12S596.59,458.42,596.46,451.26Z" transform="translate(-424.58 -158.76)"/><path class="cls-1" d="M641.56,357.17c2.5-6.95,4.75-13.2,7.78-21.59,3.26,9.08,5.83,16.21,8.61,23.93l21.45-13-7.52,21.81H693.4l.66,1.8-19.59,14.29,19.86,16.74H672c1.86,6.13,3.66,12,6.15,20.25-8.08-5.35-14.4-9.52-21.24-14l-9.46,23.93c-2.61-8.38-4.61-14.83-7-22.69l-20.27,13.21c2.95-9,5.3-16.18,8.08-24.68l-25.54-2.62,18.44-12.28-18.61-13.57H629.3l-7-26.56Z" transform="translate(-424.58 -158.76)"/><path class="cls-1" d="M552.9,397.36c-7.09-.51-12.33-7.2-11.7-14.91.59-7.36,6.55-12.95,13.3-12.49,7.14.5,12,6.88,11.49,15C565.47,392.51,559.84,397.86,552.9,397.36Z" transform="translate(-424.58 -158.76)"/><path class="cls-1" d="M649.59,303.27c-7.18.12-13.42-5.34-13.76-12-.36-7.19,5.57-12.8,13.58-12.85,7.62-.05,13.47,5,13.76,11.76C663.47,297.16,657.28,303.14,649.59,303.27Z" transform="translate(-424.58 -158.76)"/><path class="cls-1" d="M757.89,384c-.2,7.89-6,13.79-13.26,13.39-6.84-.39-11.81-6.27-11.74-13.89.08-7.8,6-13.88,13.13-13.45C752.63,370.4,758.08,376.8,757.89,384Z" transform="translate(-424.58 -158.76)"/><path class="cls-1" d="M635.76,476.05c.4-7.07,7-12.32,14.8-11.73s13,6.11,12.62,13c-.38,7.05-6.93,12.29-14.73,11.8C641.17,488.64,635.39,482.7,635.76,476.05Z" transform="translate(-424.58 -158.76)"/><path class="cls-1" d="M720,303.37a12.27,12.27,0,0,1,12.75,11.75,12.47,12.47,0,1,1-24.93.62A12.26,12.26,0,0,1,720,303.37Z" transform="translate(-424.58 -158.76)"/><path class="cls-1" d="M720.64,464.22a12.69,12.69,0,0,1-12.82-11.93,12.39,12.39,0,0,1,12.55-12.91,12.24,12.24,0,0,1,12.35,12.17A12.77,12.77,0,0,1,720.64,464.22Z" transform="translate(-424.58 -158.76)"/><path class="cls-1" d="M585.91,303.38c6.24.14,10.73,5.51,10.54,12.59s-5,12.43-11.14,12.17-10.84-6.08-10.68-12.79C574.8,308.3,579.57,303.24,585.91,303.38Z" transform="translate(-424.58 -158.76)"/><path class="cls-1" d="M596.46,451.26c.13,7.16-4.32,12.71-10.37,12.95s-11.26-5.4-11.46-12c-.21-7.05,4.22-12.41,10.52-12.72S596.33,444.2,596.46,451.26Z" transform="translate(-424.58 -158.76)"/></svg>