<?xml version="1.0" standalone="no"?>
<!DOCTYPE svg PUBLIC "-//W3C//DTD SVG 20010904//EN"
 "http://www.w3.org/TR/2001/REC-SVG-20010904/DTD/svg10.dtd">
<svg version="1.0" xmlns="http://www.w3.org/2000/svg"
 width="1325.000000pt" height="715.000000pt" viewBox="0 0 1325.000000 715.000000"
 preserveAspectRatio="xMidYMid meet">

<g transform="translate(0.000000,715.000000) scale(0.100000,-0.100000)"
fill="#000000" stroke="none">
<path d="M8888 6176 c-27 -20 -39 -62 -27 -93 21 -55 84 -70 133 -32 58 46 19
139 -58 139 -17 0 -39 -6 -48 -14z"/>
<path d="M1210 6150 c0 -28 2 -29 20 -18 11 7 20 18 20 25 0 7 7 13 15 13 22
0 18 -31 -4 -37 -11 -3 -18 -14 -18 -29 0 -19 3 -22 17 -14 16 8 18 5 17 -25
-1 -39 -12 -46 -22 -15 -10 31 -33 24 -39 -12 -3 -18 -4 -86 -3 -150 1 -105 3
-115 15 -92 7 14 14 39 14 55 1 16 7 29 13 29 19 0 27 -28 15 -51 -7 -13 -7
-19 0 -19 5 0 10 -4 10 -10 0 -5 -10 -9 -21 -7 -14 1 -23 -4 -24 -15 -2 -10 3
-18 11 -18 8 0 14 -6 15 -12 0 -7 4 -4 9 7 7 17 9 15 9 -12 1 -44 -17 -51 -46
-17 l-24 29 2 -68 c2 -63 4 -67 26 -67 12 0 23 5 23 11 0 5 -4 7 -10 4 -5 -3
-10 -1 -10 4 0 13 3 13 24 5 24 -9 1 -44 -30 -44 -22 0 -24 -3 -18 -22 3 -13
11 -25 15 -26 5 -2 7 -8 3 -13 -3 -5 0 -9 6 -9 6 0 9 -4 5 -9 -3 -5 4 -12 15
-16 23 -7 27 -35 5 -35 -9 0 -12 -6 -9 -15 4 -9 1 -15 -7 -15 -7 0 -3 -10 11
-25 19 -20 20 -25 7 -25 -10 0 -14 -5 -11 -15 4 -8 10 -12 15 -9 12 7 11 -87
-1 -106 -5 -8 -13 -11 -17 -6 -4 5 -2 11 5 13 10 4 10 8 1 19 -6 8 -15 11 -20
8 -18 -11 -8 9 13 28 24 21 14 42 -18 36 -16 -3 -19 -14 -22 -68 -1 -36 0 -76
4 -90 6 -25 6 -25 15 -3 4 12 17 27 28 33 18 9 21 8 21 -10 0 -11 -3 -19 -7
-19 -22 4 -35 -2 -30 -14 3 -7 -3 -18 -12 -24 -15 -10 -18 -29 -20 -124 -2
-96 0 -110 12 -100 8 6 22 9 31 5 17 -7 22 -34 6 -34 -5 0 -10 5 -10 10 0 7
-6 7 -17 1 -15 -8 -19 -27 -21 -125 -3 -75 0 -116 7 -116 5 0 13 5 16 10 9 14
45 12 45 -2 0 -23 -17 -41 -30 -33 -9 5 -11 4 -6 -3 9 -15 -7 -15 -21 -1 -9 9
-12 -22 -12 -123 0 -132 0 -136 20 -131 19 5 20 4 8 -16 -8 -11 -17 -21 -21
-21 -5 0 -8 -20 -8 -45 l0 -44 23 22 c15 15 21 31 18 50 -2 15 1 27 8 27 6 0
11 -9 11 -19 0 -11 5 -23 10 -26 7 -4 10 73 10 224 0 200 -2 230 -15 225 -8
-4 -17 1 -21 10 -7 18 14 76 27 76 5 0 9 44 9 98 0 90 -2 98 -19 98 -11 0 -19
-3 -19 -6 1 -17 -4 -19 -16 -8 -17 16 -2 40 20 31 8 -3 14 0 14 7 0 8 -9 10
-25 6 -19 -5 -23 -3 -19 9 8 20 46 13 55 -11 4 -10 8 181 8 424 1 351 -2 443
-11 440 -7 -3 -13 -10 -13 -15 0 -20 -10 -21 -29 -2 -19 19 -19 19 1 19 51 0
53 5 53 121 l0 109 -40 0 c-38 0 -40 -2 -40 -30z m35 -100 c3 -5 1 -10 -4 -10
-6 0 -11 5 -11 10 0 6 2 10 4 10 3 0 8 -4 11 -10z m21 -62 c18 -20 18 -21 1
-15 -10 4 -23 7 -28 7 -5 0 -9 7 -9 15 0 21 14 19 36 -7z m-21 -308 c3 -5 1
-10 -4 -10 -6 0 -11 5 -11 10 0 6 2 10 4 10 3 0 8 -4 11 -10z m21 -105 c-3 -8
-1 -15 4 -15 6 0 10 -9 10 -20 0 -25 -12 -26 -27 0 -13 20 -8 50 9 50 6 0 8
-7 4 -15z m-29 -335 c-5 -31 -17 -36 -17 -7 0 15 4 27 10 27 5 0 9 -9 7 -20z
m34 -88 c-6 -2 -9 -8 -5 -13 3 -5 0 -9 -5 -9 -14 0 -14 3 1 36 11 24 14 25 17
9 2 -11 -2 -21 -8 -23z m5 -140 c-8 -13 -46 -22 -46 -11 0 10 42 30 49 23 1
-1 0 -7 -3 -12z m-6 -42 c8 -5 11 -13 6 -17 -5 -4 -11 -3 -13 4 -2 7 -11 9
-19 6 -8 -3 -14 0 -14 6 0 13 20 14 40 1z m8 -89 c3 -8 -1 -12 -9 -9 -7 2 -15
10 -17 17 -3 8 1 12 9 9 7 -2 15 -10 17 -17z m-38 -47 c0 -8 -4 -14 -10 -14
-5 0 -10 9 -10 21 0 11 5 17 10 14 6 -3 10 -13 10 -21z m4 -59 c3 -8 12 -15
21 -15 9 0 15 -8 14 -22 -1 -19 -2 -19 -6 -5 -4 17 -5 17 -17 1 -8 -10 -18
-14 -26 -9 -9 6 -9 9 0 15 9 6 9 13 1 29 -7 11 -8 21 -2 21 5 0 11 -7 15 -15z
m14 -153 c14 -10 6 -88 -10 -98 -16 -10 -18 1 -8 37 7 22 7 35 0 37 -12 4 -14
32 -2 32 4 0 13 -4 20 -8z m22 -102 c0 -5 -4 -10 -10 -10 -5 0 -10 5 -10 10 0
6 5 10 10 10 6 0 10 -4 10 -10z m-22 -16 c32 -9 27 -21 -8 -21 -18 0 -30 6
-30 14 0 15 5 15 38 7z m22 -52 c0 -9 -9 -23 -20 -30 -21 -13 -23 -10 -14 26
7 26 34 30 34 4z"/>
<path d="M2600 6156 c0 -26 11 -29 198 -42 57 -4 92 -11 92 -18 4 -263 -2
-1232 -8 -1237 -4 -4 -68 -11 -142 -16 l-135 -8 -3 -27 -3 -28 355 0 356 0 0
24 c0 31 -7 33 -165 41 -71 4 -135 12 -142 17 -15 12 -16 476 0 496 7 9 77 12
286 12 308 0 342 5 427 63 60 40 105 98 135 174 20 49 23 76 23 173 0 96 -3
124 -22 171 -27 68 -86 138 -146 173 -91 53 -120 56 -633 56 l-473 0 0 -24z
m1001 -72 c63 -30 116 -79 147 -138 25 -47 27 -61 27 -166 0 -140 -20 -196
-96 -264 -80 -72 -103 -76 -410 -76 -246 0 -268 1 -273 18 -7 25 -7 632 0 644
4 6 111 8 283 6 256 -3 279 -5 322 -24z"/>
<path d="M11987 6160 c18 -21 28 -27 18 -10 -3 6 -2 10 3 10 10 0 24 -41 17
-48 -3 -3 -11 1 -20 8 -12 10 -15 10 -16 -1 -1 -8 -5 -3 -9 11 -6 18 -8 9 -8
-35 1 -33 3 -50 5 -37 5 23 43 52 43 32 0 -6 -7 -13 -15 -16 -8 -4 -12 -10 -9
-15 3 -5 -2 -23 -10 -41 -17 -34 -23 -94 -7 -69 8 13 12 13 28 0 17 -13 17
-13 4 4 -16 20 -12 27 18 30 20 1 21 7 21 99 l0 98 -40 0 c-39 0 -39 0 -23
-20z m43 -100 c0 -5 -5 -10 -11 -10 -5 0 -7 5 -4 10 3 6 8 10 11 10 2 0 4 -4
4 -10z m-10 -40 c0 -5 -5 -10 -11 -10 -5 0 -7 5 -4 10 3 6 8 10 11 10 2 0 4
-4 4 -10z"/>
<path d="M1215 6100 c-3 -5 -1 -10 4 -10 6 0 11 5 11 10 0 6 -2 10 -4 10 -3 0
-8 -4 -11 -10z"/>
<path d="M12033 5948 c4 -12 2 -28 -4 -34 -7 -9 -7 -19 0 -33 15 -28 14 -38
-2 -16 -10 12 -16 14 -21 7 -4 -7 -2 -12 3 -12 6 0 11 -5 11 -11 0 -5 -5 -7
-10 -4 -6 3 -13 -2 -17 -12 -6 -16 -8 -15 -14 7 -4 14 -7 -47 -7 -135 0 -92 4
-151 8 -140 7 16 9 17 9 3 1 -9 10 -20 21 -23 11 -3 20 -10 20 -15 0 -4 -9
-10 -20 -13 -20 -5 -29 -37 -10 -37 13 0 13 -11 0 -30 -8 -12 -12 -12 -18 -2
-5 7 -9 -79 -9 -195 1 -114 3 -197 5 -183 2 13 11 30 20 37 16 12 16 13 0 7
-10 -3 -18 -2 -18 4 0 14 39 22 46 10 3 -5 1 -15 -5 -21 -16 -16 -14 -32 2
-18 11 9 14 1 16 -40 1 -42 -1 -50 -14 -45 -8 3 -15 1 -15 -4 0 -6 6 -10 14
-10 8 0 14 -10 14 -25 0 -23 -2 -24 -14 -8 -13 17 -13 17 -14 1 0 -24 -16 -23
-23 2 -3 11 -1 20 5 20 5 0 6 5 3 10 -3 6 -10 10 -16 10 -14 0 -11 -68 4 -73
9 -4 9 -8 -2 -15 -9 -7 -10 -12 -2 -16 6 -4 11 -13 11 -19 0 -8 -3 -7 -9 2 -6
10 -9 2 -9 -23 0 -20 4 -36 9 -36 5 0 9 6 9 14 0 8 10 14 25 14 14 0 25 -4 25
-9 0 -5 -5 -9 -11 -9 -18 0 -54 -34 -57 -54 -2 -11 1 -15 7 -11 6 3 11 1 11
-4 0 -6 5 -11 11 -11 8 0 9 4 0 13 -16 21 0 29 20 11 19 -17 15 -48 -5 -38 -6
3 -3 -1 7 -9 9 -8 17 -26 17 -39 0 -20 -5 -25 -24 -25 -15 0 -28 8 -34 21 -9
17 -11 8 -11 -45 -1 -58 2 -68 22 -82 12 -8 19 -18 15 -22 -4 -4 -14 -3 -21 3
-11 10 -14 1 -14 -46 0 -31 2 -48 5 -37 2 11 9 26 14 33 7 8 7 12 -1 12 -7 0
-9 5 -5 11 4 8 9 7 15 -2 5 -8 9 -11 10 -6 1 4 2 10 3 15 1 4 5 13 9 20 5 7 4
12 -3 12 -6 0 -8 5 -4 11 5 8 9 7 15 -4 10 -17 -5 -67 -19 -67 -5 0 -12 -18
-16 -40 -3 -22 -10 -40 -15 -40 -4 0 -9 -27 -10 -61 -2 -56 0 -60 14 -45 21
20 39 21 31 1 -3 -8 -1 -15 4 -15 6 0 10 -7 10 -15 0 -12 -4 -13 -19 -6 -16 9
-17 7 -13 -14 2 -14 0 -25 -6 -25 -6 0 -13 10 -15 23 -2 12 -4 5 -4 -15 0 -33
2 -36 15 -25 13 10 15 9 9 -6 -4 -10 -7 -24 -7 -30 0 -7 -4 -6 -10 3 -7 11
-10 1 -10 -35 0 -33 3 -45 9 -36 5 8 7 20 4 28 -8 21 6 15 32 -13 28 -30 33
-49 10 -40 -8 3 -15 1 -15 -5 0 -6 -9 -8 -20 -4 -18 6 -20 2 -20 -54 0 -33 4
-62 9 -66 5 -3 18 6 29 20 24 31 29 24 28 -34 -1 -28 -6 -46 -14 -49 -11 -3
-12 0 -3 17 8 13 8 21 2 21 -6 0 -8 7 -5 15 4 8 1 15 -6 15 -8 0 -10 -9 -6
-25 7 -26 -2 -33 -20 -15 -7 7 -11 -3 -12 -28 -1 -21 1 -32 6 -25 6 9 12 7 25
-7 23 -27 22 -30 -8 -24 -23 4 -25 2 -25 -35 0 -25 5 -41 15 -45 8 -3 15 -10
15 -17 0 -6 -6 -9 -14 -6 -10 4 -13 -13 -14 -84 -1 -49 2 -88 6 -88 17 3 32
-2 32 -10 0 -5 -8 -8 -17 -7 -16 1 -18 -13 -21 -136 -2 -90 1 -138 8 -138 5 0
10 -5 10 -11 0 -5 -4 -8 -9 -5 -5 3 -9 -22 -8 -57 0 -37 2 -47 4 -24 5 45 19
48 28 7 4 -17 11 -30 16 -30 6 0 7 -9 4 -20 -4 -11 -2 -20 4 -20 19 0 12 -18
-16 -46 -17 -17 -29 -22 -31 -15 -6 19 7 43 21 38 8 -3 14 1 14 9 0 8 -4 14
-8 14 -5 0 -6 7 -3 15 4 8 1 15 -5 15 -6 0 -11 -7 -11 -16 0 -8 -4 -13 -9 -9
-6 3 -9 -32 -9 -85 0 -49 3 -88 7 -86 4 3 13 1 20 -4 17 -10 5 -31 -13 -24 -9
4 -13 -5 -12 -28 1 -34 25 -47 34 -18 5 13 3 13 -11 1 -15 -12 -17 -11 -17 3
0 9 6 16 14 16 8 0 21 3 30 6 9 3 16 1 16 -6 0 -6 -5 -8 -11 -4 -8 5 -8 1 0
-14 15 -28 14 -32 -9 -32 -11 0 -20 -5 -20 -11 0 -5 4 -8 9 -4 13 8 22 -10 15
-29 -8 -20 -24 -21 -24 -1 0 8 -4 15 -9 15 -5 0 -11 8 -13 18 -3 9 -4 -32 -5
-93 0 -60 2 -96 4 -78 4 29 6 31 29 23 22 -9 23 -8 12 9 -7 11 -18 17 -27 13
-13 -4 -12 -1 3 16 27 31 46 8 44 -52 -2 -46 -13 -60 -25 -30 -8 22 -25 -5
-17 -28 3 -10 1 -18 -5 -18 -5 0 -12 8 -14 18 -3 9 -5 -10 -6 -44 -1 -55 1
-62 24 -72 19 -9 23 -8 19 2 -3 7 2 16 12 20 12 5 15 2 10 -10 -3 -8 -6 -20
-6 -26 0 -6 -12 -8 -30 -4 -33 6 -41 -12 -15 -34 8 -7 15 -18 15 -25 0 -8 8
-11 20 -8 11 3 20 0 20 -6 0 -16 -36 -13 -54 5 -15 14 -16 9 -16 -51 0 -36 4
-64 8 -61 4 2 7 17 6 33 0 15 4 31 10 35 16 11 46 10 46 -1 0 -6 -9 -8 -19 -6
-20 4 -36 -19 -25 -36 3 -5 14 -9 24 -9 17 0 19 -5 13 -32 -8 -42 -9 -44 -28
-28 -8 7 -15 9 -16 4 0 -5 -4 0 -8 10 -4 11 -8 -59 -9 -155 -1 -105 3 -176 9
-180 6 -3 6 -15 1 -30 -11 -29 18 -65 37 -46 6 6 11 7 11 1 0 -9 -35 -44 -44
-44 -3 0 -7 12 -9 28 -2 15 -4 -1 -3 -35 0 -34 4 -59 8 -57 4 3 8 -1 8 -9 0
-8 7 -17 15 -21 8 -3 15 -10 15 -16 0 -8 -6 -8 -20 0 -31 17 -36 -12 -11 -63
24 -50 26 -60 9 -55 -7 3 -16 18 -19 34 -3 16 -6 -20 -7 -79 -2 -104 -2 -108
18 -102 12 4 20 2 20 -5 0 -7 -9 -14 -20 -17 -19 -5 -20 -13 -19 -112 1 -61 4
-95 8 -81 4 15 14 24 24 24 9 -1 16 1 15 5 0 3 1 8 2 11 11 28 6 40 -16 40
-22 0 -24 4 -24 50 0 28 5 50 10 50 6 0 10 -18 10 -40 0 -29 4 -40 15 -40 28
0 32 -95 5 -117 -8 -7 -23 -13 -32 -13 -15 0 -18 -10 -18 -64 0 -36 4 -67 8
-70 5 -3 6 8 4 25 -5 31 8 38 27 15 10 -11 10 -20 1 -37 -7 -13 -8 -19 -1 -15
10 6 37 -31 28 -40 -8 -8 -37 8 -31 17 3 5 0 9 -6 9 -7 0 -10 -7 -6 -15 3 -8
2 -23 -1 -32 -6 -15 -7 -15 -14 3 -7 17 -8 17 -8 -3 -1 -20 4 -23 39 -23 l40
0 0 2505 c0 1838 -3 2505 -11 2505 -7 0 -9 -9 -6 -22z m-7 -132 c17 -18 18
-63 2 -69 -10 -4 -10 -7 0 -18 6 -7 12 -26 12 -41 0 -22 -5 -28 -21 -28 -11 0
-17 5 -14 10 4 6 10 8 14 6 4 -3 8 1 8 9 0 20 -17 19 -32 -2 -11 -15 -12 -14
-12 10 0 21 5 27 21 28 11 0 15 3 8 6 -10 4 -10 8 0 20 20 25 19 44 -2 33 -25
-13 -30 -13 -30 5 0 8 7 15 16 15 10 0 14 6 10 15 -7 19 1 19 20 1z m-16 -176
c0 -5 7 -7 15 -4 11 4 15 0 15 -16 0 -19 -2 -20 -15 -10 -11 9 -15 9 -15 1 0
-7 -4 -10 -9 -7 -5 4 -12 0 -15 -6 -2 -7 -3 -2 -1 12 2 14 4 28 4 33 1 11 21
9 21 -3z m20 -134 c0 -2 3 -11 6 -20 3 -9 1 -16 -6 -16 -6 0 -8 5 -5 10 3 6
-1 10 -9 10 -9 0 -16 5 -16 10 0 6 7 10 15 10 8 0 15 -2 15 -4z m-10 -71 c-7
-8 -17 -15 -23 -15 -5 0 -2 9 8 20 21 23 35 19 15 -5z m20 -15 c0 -5 -5 -10
-11 -10 -5 0 -7 5 -4 10 3 6 8 10 11 10 2 0 4 -4 4 -10z m-12 -66 c-2 -36 -5
-42 -14 -30 -6 9 -16 16 -23 16 -6 0 -11 7 -11 16 0 14 3 14 15 4 8 -7 16 -9
16 -4 1 5 2 14 4 19 1 6 3 13 3 18 1 4 4 7 7 7 2 0 4 -21 3 -46z m-8 -61 c16
-19 22 -93 8 -93 -5 0 -7 4 -3 9 3 5 -3 16 -14 23 -13 9 -19 25 -19 46 1 36 7
39 28 15z m-10 -73 c0 -5 -7 -10 -15 -10 -8 0 -15 5 -15 10 0 6 7 10 15 10 8
0 15 -4 15 -10z m10 -39 c13 -25 13 -31 0 -31 -5 0 -9 6 -7 13 1 6 -6 11 -15
11 -18 -2 -23 7 -11 19 11 12 22 8 33 -12z m0 -281 c0 -5 -4 -10 -10 -10 -5 0
-10 5 -10 10 0 6 5 10 10 10 6 0 10 -4 10 -10z m20 -91 c0 -12 -19 -21 -30
-14 -6 4 -8 10 -6 14 7 10 36 10 36 0z m-20 -178 c0 -11 3 -26 6 -35 3 -9 1
-16 -6 -16 -6 0 -8 5 -5 10 3 6 1 10 -5 10 -7 0 -9 9 -5 23 5 17 4 18 -4 7 -5
-8 -13 -11 -18 -7 -4 5 -1 12 7 17 22 14 30 12 30 -9z m10 -171 c0 -5 -2 -10
-4 -10 -3 0 -8 5 -11 10 -3 6 -1 10 4 10 6 0 11 -4 11 -10z m10 -81 c0 -5 -5
-7 -11 -3 -8 4 -9 -1 -4 -16 5 -15 3 -20 -3 -16 -6 3 -13 2 -17 -4 -8 -13 -25
-13 -25 -1 0 5 7 16 15 24 8 8 11 17 8 21 -4 3 3 6 15 6 12 0 22 -5 22 -11z
m-14 -166 c-10 -10 -19 5 -10 18 6 11 8 11 12 0 2 -7 1 -15 -2 -18z m-26 -223
c0 -5 -4 -10 -10 -10 -5 0 -10 5 -10 10 0 6 5 10 10 10 6 0 10 -4 10 -10z m0
-195 c0 -14 -4 -25 -10 -25 -5 0 -10 11 -10 25 0 14 5 25 10 25 6 0 10 -11 10
-25z m30 -11 c0 -8 -4 -12 -10 -9 -5 3 -10 10 -10 16 0 5 5 9 10 9 6 0 10 -7
10 -16z m10 -55 c0 -26 -3 -31 -20 -26 -11 3 -23 0 -27 -5 -3 -7 -1 -8 5 -4 7
4 12 1 12 -8 0 -9 -7 -16 -15 -16 -10 0 -15 10 -15 26 0 23 4 26 25 22 16 -4
22 -1 17 6 -12 20 -10 36 4 36 9 0 14 -11 14 -31z m0 -59 c0 -5 -5 -10 -11
-10 -5 0 -7 5 -4 10 3 6 8 10 11 10 2 0 4 -4 4 -10z m-25 -30 c0 -7 -6 -15
-12 -17 -8 -3 -13 4 -13 17 0 13 5 20 13 18 6 -3 12 -11 12 -18z m16 -50 c5 0
9 -7 9 -15 0 -8 -4 -15 -10 -15 -5 0 -9 5 -7 12 1 6 -9 14 -23 18 -24 6 -24 6
-5 17 16 9 21 9 23 -3 2 -8 8 -14 13 -14z m-9 -70 c10 0 18 -5 18 -12 0 -6 -3
-8 -7 -5 -3 4 -12 2 -19 -4 -17 -14 -34 -3 -34 24 0 16 3 18 12 9 7 -7 20 -12
30 -12z m4 -60 c8 0 14 -5 14 -11 0 -6 -8 -9 -18 -7 -15 4 -17 0 -14 -23 3
-17 0 -29 -7 -29 -6 0 -11 8 -11 18 0 9 -3 28 -7 41 -5 20 -3 23 11 18 10 -4
24 -7 32 -7z m11 -65 c-4 -8 -11 -15 -17 -15 -7 0 -7 6 0 21 13 23 26 19 17
-6z m-30 -31 c3 -9 -1 -30 -10 -47 l-16 -32 0 33 c-1 24 3 31 12 26 10 -6 10
-4 0 7 -7 7 -13 17 -13 21 0 14 20 8 27 -8z m29 -31 c-11 -11 -19 6 -11 24 8
17 8 17 12 0 3 -10 2 -21 -1 -24z m4 -43 c0 -11 -4 -20 -9 -20 -7 0 -8 17 -2
38 4 10 11 -2 11 -18z m-10 -71 c0 -18 -2 -19 -15 -9 -15 12 -12 30 6 30 5 0
9 -10 9 -21z m0 -39 c0 -5 -2 -10 -4 -10 -3 0 -8 5 -11 10 -3 6 -1 10 4 10 6
0 11 -4 11 -10z m0 -140 c0 -5 -5 -10 -11 -10 -5 0 -7 5 -4 10 3 6 8 10 11 10
2 0 4 -4 4 -10z m10 -30 c0 -5 -5 -10 -11 -10 -5 0 -7 5 -4 10 3 6 8 10 11 10
2 0 4 -4 4 -10z m-10 -32 c0 -6 -7 -8 -14 -5 -10 4 -13 1 -10 -8 3 -8 12 -11
20 -8 15 6 20 -12 5 -22 -5 -3 -19 7 -30 21 -16 21 -18 30 -10 41 9 10 15 10
25 2 8 -6 14 -16 14 -21z m-30 -218 c0 -5 -4 -10 -10 -10 -5 0 -10 5 -10 10 0
6 5 10 10 10 6 0 10 -4 10 -10z m30 -160 c0 -5 -2 -10 -4 -10 -3 0 -8 5 -11
10 -3 6 -1 10 4 10 6 0 11 -4 11 -10z m10 -35 c0 -13 -4 -14 -20 -5 -11 6 -20
13 -20 15 0 3 9 5 20 5 11 0 20 -7 20 -15z m-32 -24 c3 -8 -1 -12 -9 -9 -7 2
-15 10 -17 17 -3 8 1 12 9 9 7 -2 15 -10 17 -17z m22 -91 c0 -5 -5 -10 -11
-10 -5 0 -7 5 -4 10 3 6 8 10 11 10 2 0 4 -4 4 -10z m-16 -226 c9 -22 8 -24
-9 -18 -8 4 -15 12 -15 20 0 19 16 18 24 -2z m26 -34 c0 -5 -5 -10 -11 -10 -5
0 -7 5 -4 10 3 6 8 10 11 10 2 0 4 -4 4 -10z m-40 -30 c0 -6 8 -10 17 -8 10 2
19 -4 21 -14 2 -10 -1 -18 -7 -18 -6 0 -11 4 -11 9 0 5 -8 8 -17 7 -10 0 -19
7 -21 17 -2 9 1 17 7 17 6 0 11 -5 11 -10z m39 -73 c-2 -1 -11 -8 -20 -15 -13
-10 -19 -9 -29 3 -11 13 -8 15 20 15 19 0 31 -1 29 -3z m1 -53 c0 -14 -4 -23
-9 -20 -4 3 -6 -7 -4 -22 3 -17 1 -22 -4 -15 -5 7 -14 9 -23 3 -11 -7 -8 -10
13 -15 15 -4 27 -14 27 -21 0 -11 -5 -12 -17 -6 -10 5 -23 7 -30 5 -8 -3 -11
10 -10 42 2 39 4 43 15 28 15 -20 16 -9 2 18 -7 13 -7 19 0 19 5 0 10 -5 10
-11 0 -5 5 -7 10 -4 6 4 8 11 5 16 -4 5 -1 9 4 9 6 0 11 -12 11 -26z m0 -152
c0 -9 -6 -12 -16 -8 -9 3 -18 6 -20 6 -3 0 -3 4 0 8 9 14 36 10 36 -6z m-21
-101 c9 -6 11 -14 4 -26 -8 -14 -12 -15 -19 -4 -20 32 -12 47 15 30z m21 -106
c0 -6 -13 -11 -30 -11 -16 0 -30 5 -30 11 0 6 14 12 30 12 17 0 30 -6 30 -12z
m-13 -57 c0 -13 3 -30 7 -39 4 -10 1 -23 -9 -33 -10 -9 -19 -35 -22 -57 -7
-50 -23 -61 -23 -15 0 19 4 37 10 41 5 3 7 12 3 20 -3 10 1 15 13 15 15 0 16
2 5 9 -9 6 -10 11 -3 15 6 4 9 20 7 36 -2 17 0 30 5 30 4 0 8 -10 7 -22z m13
-108 c0 -11 -4 -20 -9 -20 -7 0 -8 17 -2 38 4 10 11 -2 11 -18z m0 -72 c0 -12
-3 -18 -7 -14 -11 10 -12 36 -2 36 5 0 9 -10 9 -22z m-10 -58 c0 -11 -4 -20
-9 -20 -6 0 -9 9 -8 20 1 11 5 20 9 20 4 0 8 -9 8 -20z m0 -40 c0 -5 -4 -10
-10 -10 -5 0 -10 5 -10 10 0 6 5 10 10 10 6 0 10 -4 10 -10z m-22 -69 c3 -8
-1 -12 -9 -9 -7 2 -15 10 -17 17 -3 8 1 12 9 9 7 -2 15 -10 17 -17z m-4 -107
c7 -17 0 -34 -13 -34 -5 0 -8 11 -8 25 0 28 12 33 21 9z m36 6 c0 -5 -2 -10
-4 -10 -3 0 -8 5 -11 10 -3 6 -1 10 4 10 6 0 11 -4 11 -10z m-3 -57 c3 -9 -8
-10 -35 -4 -2 1 0 6 3 12 8 12 27 7 32 -8z m3 -63 c0 -5 -2 -10 -4 -10 -3 0
-8 5 -11 10 -3 6 -1 10 4 10 6 0 11 -4 11 -10z"/>
<path d="M7073 5920 c-39 -23 -80 -83 -89 -128 -4 -18 -10 -35 -14 -37 -4 -3
-33 7 -64 21 -152 69 -371 26 -478 -95 -68 -77 -82 -119 -83 -246 0 -101 2
-115 28 -167 18 -36 50 -77 88 -111 l60 -54 -47 -12 c-29 -8 -60 -25 -81 -46
-28 -28 -33 -40 -33 -80 0 -56 24 -95 75 -119 19 -9 35 -20 35 -25 0 -4 -18
-15 -40 -25 -90 -39 -150 -126 -150 -216 0 -202 277 -324 603 -265 201 35 317
140 317 285 0 164 -116 231 -457 266 -207 21 -251 31 -285 64 -33 34 -34 40
-8 73 29 36 74 47 230 53 149 6 210 21 283 66 171 108 218 354 100 526 -34 50
-35 55 -24 92 14 46 45 73 111 95 56 19 70 43 46 80 -21 31 -77 34 -123 5z
m-197 -213 c180 -92 225 -347 85 -487 -54 -54 -101 -78 -177 -90 -104 -17
-198 14 -275 90 -143 143 -105 390 74 481 66 34 87 39 167 35 57 -2 87 -9 126
-29z m-114 -922 c204 -21 281 -49 332 -118 28 -38 27 -111 -2 -159 -100 -162
-518 -187 -674 -40 -60 56 -72 150 -26 217 39 58 137 113 203 114 17 1 92 -6
167 -14z"/>
<path d="M11970 5899 c0 -18 3 -29 7 -25 10 10 11 46 1 52 -4 3 -8 -9 -8 -27z"/>
<path d="M4273 5795 c-164 -45 -291 -183 -334 -365 -16 -71 -16 -239 0 -310
45 -191 186 -333 368 -370 82 -17 224 -8 295 20 74 28 156 102 188 169 25 55
25 55 -6 65 -17 5 -27 -4 -58 -48 -63 -91 -144 -135 -266 -143 -254 -18 -431
152 -443 422 l-2 60 408 3 407 2 0 58 c0 116 -43 237 -113 317 -97 112 -285
162 -444 120z m261 -83 c105 -47 188 -163 202 -285 l7 -57 -362 0 c-317 0
-361 2 -361 15 0 31 42 141 72 187 50 79 127 136 215 158 57 14 175 5 227 -18z"/>
<path d="M5191 5786 c-40 -42 -135 -86 -215 -98 -63 -10 -76 -16 -76 -31 0
-17 8 -18 113 -14 61 3 124 8 140 12 l27 7 0 -405 0 -405 -60 -6 c-33 -3 -87
-9 -120 -12 -55 -5 -60 -8 -60 -30 l0 -24 286 0 285 0 -3 23 c-3 20 -10 23
-83 30 -44 4 -95 10 -112 13 l-33 5 0 317 c0 361 -4 341 93 433 74 72 178 121
269 127 102 6 153 -10 209 -67 75 -75 79 -97 79 -482 l0 -328 -42 -5 c-24 -3
-77 -9 -118 -13 -67 -7 -75 -10 -78 -30 l-3 -23 275 0 276 0 0 24 c0 23 -5 25
-67 31 -38 3 -86 10 -108 13 l-40 8 -5 364 c-5 346 -6 367 -26 411 -50 109
-139 166 -269 176 -139 11 -268 -40 -378 -149 -37 -38 -70 -68 -72 -68 -3 0
-5 47 -5 104 0 85 -3 105 -16 110 -27 10 -40 7 -63 -18z"/>
<path d="M7475 5775 c-55 -48 -129 -82 -197 -90 -46 -6 -58 -11 -58 -25 0 -15
10 -19 53 -22 28 -3 77 -1 107 4 30 5 63 10 73 11 17 2 18 -15 17 -285 0 -158
4 -318 10 -355 30 -191 148 -282 349 -271 132 8 237 59 339 166 l52 56 0 -102
0 -102 43 1 c23 0 94 6 157 12 107 11 115 14 118 34 3 22 0 22 -110 25 l-113
3 -3 482 -2 483 -25 6 c-19 5 -33 -1 -60 -25 -55 -48 -128 -81 -210 -94 -61
-9 -75 -15 -75 -29 0 -16 11 -18 98 -18 54 1 113 7 134 14 21 7 40 11 43 8 3
-3 5 -140 5 -305 l0 -299 -35 -48 c-94 -129 -283 -215 -416 -190 -89 17 -141
58 -178 140 -20 43 -21 64 -21 436 0 401 -1 415 -39 414 -9 -1 -34 -16 -56
-35z"/>
<path d="M8884 5769 c-59 -45 -137 -76 -219 -85 -44 -5 -55 -10 -53 -23 5 -23
168 -28 229 -7 24 9 47 12 51 8 5 -5 7 -188 6 -407 l-3 -400 -45 -6 c-25 -4
-80 -10 -122 -14 -74 -6 -78 -8 -78 -31 l0 -24 288 2 c279 3 287 4 287 23 0
21 -22 27 -167 40 l-68 7 0 473 0 473 -22 6 c-31 8 -27 10 -84 -35z"/>
<path d="M9581 5786 c-40 -42 -135 -86 -215 -98 -63 -10 -76 -16 -76 -31 0
-17 8 -18 113 -14 61 3 124 8 140 12 l27 7 0 -405 0 -405 -67 -6 c-176 -17
-173 -16 -173 -42 l0 -24 285 0 285 0 0 24 c0 23 -3 24 -97 31 -54 4 -108 11
-120 16 l-23 9 0 308 0 309 31 42 c86 120 216 200 338 209 42 3 89 0 115 -8
59 -16 123 -72 149 -129 20 -44 22 -65 25 -392 l3 -347 -33 -5 c-18 -3 -72 -9
-120 -13 -84 -6 -88 -7 -88 -30 l0 -24 275 0 275 0 0 24 c0 26 13 22 -164 42
l-55 6 -3 362 c-4 314 -6 367 -22 407 -41 109 -138 176 -268 186 -144 11 -269
-38 -381 -149 -37 -38 -70 -68 -72 -68 -3 0 -5 47 -5 104 0 85 -3 105 -16 110
-27 10 -40 7 -63 -18z"/>
<path d="M1213 5451 c-1 -71 1 -89 12 -85 15 6 27 54 14 54 -5 0 -7 20 -4 44
2 25 -1 50 -8 60 -10 13 -12 -1 -14 -73z"/>
<path d="M11972 5510 c0 -14 2 -19 5 -12 2 6 2 18 0 25 -3 6 -5 1 -5 -13z"/>
<path d="M11996 5054 c-8 -20 1 -34 22 -34 12 0 13 3 5 11 -6 6 -9 18 -6 25 3
8 1 14 -5 14 -5 0 -13 -7 -16 -16z"/>
<path d="M1273 4815 c-9 -20 -8 -25 3 -25 8 0 14 10 14 25 0 31 -2 31 -17 0z"/>
<path d="M11970 4742 c0 -7 5 -12 10 -12 6 0 10 -7 10 -15 0 -9 9 -15 22 -15
12 0 19 1 17 3 -2 1 -16 13 -31 26 -16 14 -28 19 -28 13z"/>
<path d="M7336 4361 c-61 -62 -146 -108 -217 -119 -38 -5 -55 -12 -57 -24 -7
-37 154 -31 229 8 15 7 33 14 39 14 7 0 10 -81 10 -245 0 -135 -3 -245 -6
-245 -4 0 -27 18 -51 41 -167 154 -457 136 -615 -39 -51 -56 -83 -115 -110
-202 -30 -98 -32 -292 -4 -384 71 -234 225 -347 456 -333 126 7 242 64 291
143 11 19 25 34 30 34 5 0 9 -36 9 -80 0 -94 -21 -86 183 -68 133 12 137 13
137 35 0 23 -2 23 -115 23 l-115 0 0 735 c0 716 0 735 -19 745 -26 13 -21 16
-75 -39z m-199 -556 c60 -18 133 -72 174 -127 l29 -41 0 -256 0 -256 -29 -51
c-36 -63 -88 -109 -161 -143 -47 -22 -69 -26 -150 -26 -84 0 -102 3 -157 29
-145 67 -213 200 -214 416 0 163 25 247 98 337 41 52 102 95 163 116 58 20
182 21 247 2z"/>
<path d="M1241 4272 c-20 -23 -24 -39 -27 -112 -1 -47 0 -77 3 -67 3 11 11 16
20 13 8 -3 19 -6 24 -6 5 0 9 -4 9 -10 0 -5 -7 -10 -15 -10 -8 0 -15 5 -15 12
0 6 -3 8 -6 5 -4 -4 -1 -13 5 -21 8 -10 9 -16 1 -21 -5 -3 -10 0 -10 7 0 9 -3
9 -10 -2 -13 -20 -13 -120 0 -120 5 0 7 7 4 15 -4 8 -1 21 5 29 6 7 9 21 5 30
-3 9 -1 16 4 16 6 0 17 7 26 15 13 14 15 11 14 -25 0 -35 -3 -40 -19 -35 -11
4 -19 2 -19 -4 0 -10 14 -15 33 -12 4 0 7 -6 7 -14 0 -9 -6 -12 -17 -8 -11 4
-14 3 -9 -5 4 -7 2 -12 -6 -12 -7 0 -2 -10 12 -21 l25 -20 -25 7 c-14 4 -26
11 -28 15 -9 22 -20 5 -20 -31 -1 -46 21 -74 49 -65 16 5 19 1 19 -27 l0 -33
-19 24 c-18 23 -19 23 -30 5 -10 -16 -12 -16 -7 -1 3 9 1 17 -5 17 -6 0 -9
-43 -8 -115 1 -108 7 -132 26 -102 11 17 43 18 43 0 0 -20 -19 -53 -30 -53 -6
0 -10 7 -10 15 0 8 -7 15 -15 15 -10 0 -14 -9 -12 -30 2 -27 5 -30 25 -25 14
3 22 1 22 -7 0 -9 3 -8 11 2 8 12 9 11 7 -5 -2 -13 -11 -20 -25 -19 -15 0 -26
-8 -32 -25 -12 -29 -10 -325 2 -337 4 -4 13 -2 20 6 9 10 9 11 0 6 -7 -4 -13
-2 -13 3 0 6 4 11 9 11 5 0 9 6 8 13 -1 31 4 45 19 51 14 5 15 1 10 -31 -12
-63 -16 -73 -41 -79 l-23 -6 1 -163 c1 -90 5 -167 10 -171 4 -4 7 -2 7 4 0 6
8 9 18 5 11 -4 10 0 -5 11 -13 10 -23 22 -23 28 0 6 9 3 20 -7 18 -17 20 -17
14 -2 -3 9 -1 17 4 17 6 0 13 -8 16 -18 8 -25 3 -112 -6 -112 -4 0 -8 7 -8 15
0 8 -7 15 -15 15 -8 0 -15 6 -15 13 0 8 -4 7 -10 -3 -13 -20 -13 -63 0 -55 20
13 38 -9 28 -34 -7 -19 -11 -22 -21 -12 -9 9 -9 14 3 21 8 5 11 12 8 15 -4 4
-11 4 -17 1 -15 -9 -5 -86 13 -105 16 -15 17 -15 10 2 -3 9 -2 17 4 17 5 0 13
-7 16 -16 8 -21 8 -21 -10 -28 -10 -4 -22 1 -30 11 -12 16 -13 7 -14 -65 0
-83 0 -83 25 -80 13 2 23 -1 22 -7 -1 -5 -12 -8 -24 -7 -17 3 -23 -2 -23 -15
0 -22 46 -47 54 -29 3 7 8 6 15 -4 8 -11 11 64 11 263 0 183 -3 276 -10 272
-5 -3 -10 1 -10 9 0 9 5 16 10 16 16 0 13 557 -2 564 -10 5 -10 7 0 12 9 4 12
98 12 420 0 444 0 442 -49 386z m39 -29 c0 -6 -5 -15 -11 -19 -8 -4 -7 -9 2
-15 19 -11 7 -19 -19 -12 -21 5 -31 41 -16 56 10 10 44 3 44 -10z m-10 -82 c0
-16 -25 -30 -39 -22 -11 7 -9 11 5 20 23 13 34 14 34 2z m0 -295 c0 -3 -4 -8
-10 -11 -5 -3 -10 -1 -10 4 0 6 5 11 10 11 6 0 10 -2 10 -4z m-10 -145 c0 -11
-31 -24 -39 -16 -3 3 1 10 9 15 19 12 30 12 30 1z m-25 -61 c3 -5 1 -10 -4
-10 -6 0 -11 5 -11 10 0 6 2 10 4 10 3 0 8 -4 11 -10z m45 -40 c0 -5 -4 -10
-10 -10 -5 0 -10 5 -10 10 0 6 5 10 10 10 6 0 10 -4 10 -10z m-3 -244 c2 -35
1 -37 -13 -20 -12 17 -13 17 -8 2 4 -11 1 -18 -6 -18 -8 0 -11 9 -8 25 5 22 3
23 -10 13 -13 -11 -15 -10 -9 5 4 10 7 22 7 27 0 4 10 7 23 6 19 -1 23 -7 24
-40z m-3 -95 c-4 -3 -9 0 -11 7 -3 6 -14 12 -26 12 -18 0 -19 2 -7 10 15 9 56
-17 44 -29z m6 -37 c0 -14 -2 -15 -16 -3 -15 12 -16 11 -10 -7 8 -25 -18 -54
-27 -30 -3 8 -3 24 0 35 7 26 53 30 53 5z m0 -159 c0 -8 -7 -15 -15 -15 -26 0
-18 20 13 29 1 1 2 -6 2 -14z m-2 -65 c1 -22 -2 -40 -7 -40 -9 0 -7 -33 4 -65
4 -12 3 -15 -2 -9 -4 6 -16 10 -25 8 -20 -3 -25 12 -5 19 9 3 8 8 -3 22 -11
14 -12 19 -2 22 14 5 16 33 2 33 -5 0 -10 4 -10 10 0 5 7 7 16 3 13 -5 15 -2
9 15 -4 16 -2 22 8 22 9 0 14 -13 15 -40z m-23 -130 c-3 -5 -10 -10 -16 -10
-5 0 -9 5 -9 10 0 6 7 10 16 10 8 0 12 -4 9 -10z m5 -40 c0 -5 -5 -10 -11 -10
-5 0 -7 -4 -4 -10 3 -5 1 -10 -4 -10 -13 0 -13 3 -5 24 7 18 24 22 24 6z m16
-27 c-10 -10 -19 5 -10 18 6 11 8 11 12 0 2 -7 1 -15 -2 -18z m1 -215 c-3 -8
-6 -5 -6 6 -1 11 2 17 5 13 3 -3 4 -12 1 -19z m-22 -18 c-3 -5 -10 -10 -16
-10 -5 0 -9 5 -9 10 0 6 7 10 16 10 8 0 12 -4 9 -10z m5 -92 c0 -10 2 -10 8
-1 4 6 8 -12 9 -40 1 -51 1 -51 -12 -22 -22 53 -27 75 -16 75 6 0 11 -6 11
-12z m-24 -33 c1 -8 -2 -15 -7 -15 -5 0 -9 10 -9 22 0 23 12 17 16 -7z"/>
<path d="M2600 4241 l0 -29 133 -7 c72 -4 140 -11 150 -17 16 -8 17 -46 15
-626 l-3 -617 -145 -12 c-80 -6 -146 -12 -147 -12 -2 -1 -3 -12 -3 -26 l0 -25
355 0 355 0 0 24 c0 30 -11 33 -180 42 -75 4 -128 11 -132 18 -10 15 -10 498
0 514 7 9 57 12 218 10 l209 -3 149 -302 150 -303 183 0 183 0 0 24 c0 31 -3
31 -169 47 l-134 13 -123 251 c-68 139 -124 257 -124 262 0 5 27 15 61 21 204
38 317 191 307 416 -5 105 -32 177 -93 245 -43 48 -137 97 -214 111 -31 6
-252 10 -527 10 l-474 0 0 -29z m1020 -69 c73 -29 119 -69 155 -133 28 -51 30
-61 30 -164 0 -100 -2 -115 -27 -161 -33 -62 -94 -117 -157 -140 -39 -15 -92
-18 -330 -22 -225 -3 -285 -1 -292 9 -9 15 -11 593 -3 622 6 18 21 18 287 15
262 -4 286 -5 337 -26z"/>
<path d="M4474 3891 c-131 -21 -229 -80 -274 -164 -20 -37 -22 -51 -14 -74 8
-23 16 -29 46 -31 36 -3 38 -1 67 55 55 109 113 143 242 143 98 0 146 -13 194
-52 63 -52 79 -97 79 -223 l1 -110 -115 -6 c-293 -16 -479 -99 -540 -241 -57
-134 -2 -278 128 -334 51 -22 187 -30 253 -14 74 17 185 71 236 114 l41 36 24
-42 c31 -56 67 -80 127 -86 71 -6 134 19 166 66 14 20 25 47 25 59 0 30 -21
41 -34 18 -6 -11 -23 -32 -38 -47 -47 -49 -133 -33 -161 31 -7 17 -13 143 -17
356 -5 320 -6 332 -29 383 -30 67 -94 124 -163 145 -66 20 -177 28 -244 18z
m346 -676 l0 -155 -52 -41 c-180 -143 -429 -157 -515 -30 -30 45 -31 127 -2
188 55 114 243 185 502 191 l67 2 0 -155z"/>
<path d="M5469 3884 c-43 -52 -155 -103 -246 -113 -76 -8 -80 -32 -8 -45 45
-8 115 -2 208 20 l27 6 0 -405 0 -406 -52 -5 c-190 -19 -193 -20 -193 -41 0
-19 8 -20 283 -23 l282 -2 0 24 c0 23 -4 24 -87 30 -49 4 -100 9 -115 12 l-28
6 0 312 0 313 40 55 c84 119 218 191 355 192 103 1 165 -27 211 -96 47 -69 54
-134 54 -471 0 -272 -1 -297 -17 -306 -10 -5 -64 -12 -120 -16 -100 -7 -103
-8 -103 -31 l0 -24 275 0 275 0 0 24 c0 22 -5 24 -67 30 -38 4 -87 9 -110 12
l-42 6 -3 357 c-3 335 -4 359 -24 407 -44 108 -113 162 -232 184 -72 13 -171
2 -245 -27 -59 -23 -161 -96 -199 -143 -17 -22 -35 -40 -40 -40 -4 0 -8 47 -8
104 0 99 -1 104 -22 110 -32 8 -34 8 -49 -10z"/>
<path d="M8063 3890 c-252 -45 -403 -244 -403 -529 1 -319 197 -531 490 -531
309 0 504 228 487 570 -12 247 -144 428 -347 478 -68 17 -169 22 -227 12z
m255 -99 c72 -32 163 -131 192 -207 80 -216 37 -464 -102 -589 -123 -110 -327
-125 -470 -33 -59 37 -91 74 -129 151 -135 266 -27 615 214 693 67 22 229 13
295 -15z"/>
<path d="M8967 3855 c-63 -48 -162 -85 -228 -85 -32 0 -39 -4 -39 -19 0 -16
10 -20 58 -26 59 -7 156 6 191 25 11 5 22 10 25 10 3 0 6 -184 6 -409 l0 -409
-47 -6 c-27 -3 -81 -8 -120 -12 -69 -6 -73 -7 -73 -30 l0 -24 260 0 260 0 0
24 c0 23 -4 25 -77 31 -124 12 -113 -22 -113 339 l0 313 31 43 c81 112 194
186 301 197 103 10 176 -27 219 -114 24 -47 24 -53 27 -405 3 -337 2 -357 -15
-361 -10 -3 -55 -9 -100 -12 -79 -7 -83 -8 -83 -31 l0 -24 248 2 c239 3 247 4
247 23 0 20 -15 23 -197 44 -5 1 -8 148 -8 327 l0 325 30 44 c68 98 181 170
285 181 108 11 183 -25 228 -110 21 -40 22 -52 25 -403 3 -341 2 -362 -15
-366 -10 -3 -51 -9 -90 -12 -68 -7 -73 -9 -73 -31 l0 -24 250 0 250 0 0 24 c0
23 -4 25 -87 31 -47 4 -97 11 -110 14 l-24 6 1 300 c1 397 -14 500 -83 573
-56 61 -170 90 -276 72 -104 -18 -165 -51 -248 -135 -60 -61 -75 -72 -80 -58
-30 86 -72 141 -128 167 -58 28 -138 38 -202 26 -91 -16 -160 -56 -242 -137
-40 -40 -75 -73 -77 -73 -2 0 -4 47 -4 105 0 58 -4 105 -9 105 -5 0 -15 2 -23
5 -7 2 -39 -16 -71 -40z"/>
<path d="M1240 2741 c0 -5 7 -11 15 -15 8 -3 15 -1 15 3 0 5 -7 11 -15 15 -8
3 -15 1 -15 -3z"/>
<path d="M2600 2332 l0 -28 141 -11 c78 -6 145 -15 150 -20 5 -5 8 -273 7
-623 l-3 -614 -30 -7 c-16 -4 -83 -10 -147 -14 l-118 -7 0 -29 0 -29 350 0
350 0 0 29 0 29 -112 6 c-62 4 -130 9 -150 12 l-38 6 0 309 0 309 403 -2 402
-3 0 -305 0 -304 -35 -8 c-19 -4 -88 -10 -153 -14 l-118 -6 3 -27 3 -26 350 0
350 0 0 25 c0 25 -2 25 -105 33 -58 4 -125 11 -150 15 l-45 7 -3 618 c-2 548
0 618 13 623 9 4 77 11 153 18 136 11 137 11 137 36 l0 25 -353 3 -353 2 3
-27 3 -28 142 -10 c78 -5 147 -15 153 -21 7 -7 9 -100 8 -280 l-3 -269 -402
-3 -403 -2 0 279 c0 258 1 280 18 285 9 2 77 8 150 11 l132 7 0 29 0 29 -350
0 -350 0 0 -28z"/>
<path d="M1214 2162 c-1 -86 1 -149 3 -139 2 9 9 17 14 17 6 0 7 -4 4 -10 -4
-6 1 -7 11 -3 11 4 15 2 11 -4 -4 -6 2 -13 13 -16 19 -5 20 0 20 80 0 77 -1
83 -16 69 -8 -9 -20 -16 -25 -16 -15 0 -10 18 9 30 15 9 14 10 -5 5 -27 -8
-30 3 -6 21 13 9 22 9 30 2 10 -8 13 2 13 48 0 36 -4 54 -9 46 -7 -11 -9 -11
-14 2 -4 9 -13 13 -22 10 -8 -3 -15 -1 -15 5 0 6 -3 11 -7 11 -5 0 -9 -71 -9
-158z m46 118 c0 -5 -5 -10 -11 -10 -5 0 -8 -4 -4 -9 3 -5 1 -12 -5 -16 -11
-7 -13 5 -4 29 7 18 24 22 24 6z m17 -56 c2 -5 -8 -10 -22 -10 -26 -2 -34 11
-12 19 16 7 30 3 34 -9z m3 -130 c0 -7 -6 -11 -14 -8 -8 3 -17 1 -20 -4 -3 -5
4 -12 15 -15 12 -3 18 -10 15 -15 -10 -16 -44 -2 -50 21 -5 21 11 40 26 31 4
-3 5 3 1 13 -6 16 -5 16 10 4 9 -7 17 -20 17 -27z"/>
<path d="M12000 2281 c0 -5 5 -13 10 -16 6 -3 10 -2 10 4 0 5 -4 13 -10 16 -5
3 -10 2 -10 -4z"/>
<path d="M5463 1945 c-58 -49 -145 -85 -203 -85 -33 0 -40 -4 -40 -19 0 -10 7
-22 16 -25 23 -9 123 -7 164 3 19 5 42 10 50 12 13 4 16 -41 20 -341 5 -333 6
-347 28 -394 50 -109 113 -156 236 -176 144 -23 297 31 411 144 36 36 68 66
70 66 3 0 5 -45 5 -101 l0 -101 48 6 c26 3 79 8 117 11 135 11 145 14 145 41
0 24 0 24 -110 24 l-110 0 -2 481 c-3 478 -3 482 -24 489 -16 6 -32 -1 -70
-31 -59 -47 -138 -78 -219 -87 -44 -5 -61 -11 -63 -23 -2 -10 6 -19 20 -23 40
-10 142 -6 198 8 30 8 56 13 57 12 1 -1 3 -139 3 -305 l1 -303 -27 -40 c-41
-59 -109 -114 -193 -156 -70 -35 -81 -37 -165 -37 -105 0 -153 19 -203 80 -55
66 -56 79 -62 504 -6 382 -7 394 -26 401 -15 5 -33 -4 -72 -35z"/>
<path d="M7304 1910 c-3 -44 -8 -80 -10 -80 -2 0 -22 20 -45 45 -64 69 -134
98 -251 103 -81 4 -107 1 -164 -18 -192 -64 -243 -282 -97 -410 53 -47 159
-93 297 -129 239 -62 316 -121 316 -241 0 -61 -17 -96 -64 -138 -47 -41 -103
-56 -206 -57 -77 0 -92 3 -152 33 -79 39 -143 105 -220 227 -29 46 -57 85 -63
85 -35 0 -36 -15 -4 -200 17 -102 33 -188 35 -192 3 -5 14 -8 25 -8 17 0 19 8
19 90 0 50 3 90 8 90 4 -1 22 -21 40 -46 42 -56 135 -118 205 -135 120 -29
272 -9 359 48 107 71 141 250 67 355 -38 53 -128 102 -251 137 -228 65 -274
81 -320 111 -102 67 -116 193 -32 272 42 39 105 58 195 58 153 0 241 -59 333
-225 27 -47 51 -85 55 -85 3 0 13 4 21 10 12 8 10 32 -14 177 -34 205 -33 203
-56 203 -16 0 -20 -11 -26 -80z"/>
<path d="M1229 1967 c-19 -15 -28 -207 -9 -207 6 0 8 5 5 10 -3 6 1 10 9 10
10 0 13 -6 10 -15 -4 -8 -1 -15 5 -15 7 0 16 10 21 23 7 17 9 10 9 -33 0 -30
-3 -61 -8 -69 -10 -16 -4 -41 10 -41 5 0 9 61 9 135 0 83 -4 135 -10 135 -5 0
-10 7 -10 15 0 8 -4 15 -9 15 -5 0 -11 11 -13 24 -2 21 -6 23 -19 13z m44
-100 c4 3 7 -2 7 -11 0 -15 -5 -17 -27 -11 -35 8 -35 9 -27 29 6 15 8 15 24 1
9 -8 20 -12 23 -8z m-8 -57 c3 -5 1 -10 -4 -10 -6 0 -11 5 -11 10 0 6 2 10 4
10 3 0 8 -4 11 -10z"/>
<path d="M1276 1964 c-3 -9 -2 -23 4 -32 7 -14 9 -10 10 16 0 35 -5 41 -14 16z"/>
<path d="M4566 1969 c-165 -39 -298 -180 -341 -361 -21 -91 -19 -238 5 -333
24 -95 56 -152 127 -226 152 -160 449 -179 635 -42 190 139 253 477 134 719
-84 168 -231 255 -430 253 -50 -1 -108 -5 -130 -10z m242 -73 c144 -39 241
-151 277 -321 49 -233 -40 -463 -212 -550 -54 -28 -65 -30 -173 -30 -106 0
-120 2 -172 28 -107 53 -190 165 -217 295 -6 29 -11 90 -11 135 0 224 104 386
285 443 54 17 158 17 223 0z"/>
<path d="M7930 1962 c-76 -25 -107 -43 -161 -91 -155 -136 -208 -407 -128
-649 39 -118 145 -230 260 -273 170 -65 396 -33 499 70 57 57 100 139 79 152
-26 16 -44 9 -63 -26 -30 -54 -96 -110 -162 -135 -50 -19 -74 -21 -164 -18
-95 3 -112 6 -172 36 -122 60 -198 175 -219 330 -6 45 -8 89 -5 97 4 13 64 15
408 17 l403 3 3 39 c6 66 -18 174 -54 246 -43 86 -121 160 -202 191 -80 31
-244 37 -322 11z m256 -69 c72 -24 130 -67 169 -126 35 -53 69 -160 63 -200
l-3 -22 -355 0 -355 0 2 40 c6 87 107 241 188 283 84 44 205 54 291 25z"/>
<path d="M1212 1565 c-1 -101 2 -193 7 -206 9 -22 10 -22 11 -4 4 36 1 70 -6
93 -5 16 -2 22 9 22 25 0 47 -11 41 -21 -3 -5 -9 -7 -14 -4 -4 3 -10 -1 -13
-9 -3 -8 1 -13 10 -12 9 0 18 -5 20 -12 3 -8 -1 -10 -12 -5 -14 5 -16 2 -10
-15 4 -13 2 -22 -4 -22 -6 0 -11 -8 -10 -17 0 -11 3 -13 6 -5 2 6 12 12 20 12
10 0 13 -6 9 -16 -3 -9 -6 -18 -6 -20 0 -2 -14 -4 -31 -4 -16 0 -28 -4 -25 -9
3 -4 17 -6 31 -3 19 3 25 0 25 -13 0 -12 -5 -15 -19 -10 -25 7 -42 -22 -39
-64 1 -20 9 -31 21 -35 10 -2 16 -9 12 -15 -3 -7 0 -8 9 -5 18 7 17 8 21 -57
3 -50 -1 -62 -25 -73 -9 -4 -7 -5 6 -2 17 3 22 -2 22 -20 0 -18 -3 -21 -14
-11 -7 7 -20 18 -29 25 -20 17 -19 29 3 35 13 4 11 5 -5 6 -19 1 -23 -4 -23
-26 0 -29 12 -55 24 -54 3 1 5 -2 4 -6 -2 -5 -9 -7 -15 -7 -7 1 -13 -2 -13 -7
0 -5 18 -9 40 -9 l40 0 0 324 0 324 -31 6 c-25 5 -30 9 -24 23 4 10 7 26 7 36
-1 13 4 17 14 13 9 -3 14 -1 12 5 -2 6 -7 9 -11 7 -11 -4 -30 30 -23 40 3 5 0
9 -7 9 -9 0 -13 -48 -15 -182z m57 29 c2 -2 2 -6 0 -9 -8 -7 -49 7 -49 17 0 8
38 2 49 -8z m-6 -51 c-7 -2 -9 -11 -6 -19 7 -18 -4 -18 -23 0 -16 16 -19 30
-5 22 5 -3 12 2 15 11 5 13 9 14 19 3 9 -10 9 -14 0 -17z m2 -278 c10 0 16
-52 8 -67 -5 -9 -43 13 -43 25 0 5 9 5 20 2 11 -4 20 -2 20 4 0 11 -13 15 -37
12 -15 -2 -15 1 -7 23 3 9 11 13 18 9 6 -4 16 -8 21 -8z"/>
<path d="M1245 1730 c-3 -5 1 -10 10 -10 9 0 13 5 10 10 -3 6 -8 10 -10 10 -2
0 -7 -4 -10 -10z"/>
<path d="M11990 1220 c0 -13 11 -13 30 0 12 8 11 10 -7 10 -13 0 -23 -4 -23
-10z"/>
<path d="M1210 1170 c0 -5 5 -10 10 -10 6 0 10 5 10 10 0 6 -4 10 -10 10 -5 0
-10 -4 -10 -10z"/>
<path d="M1210 1116 c0 -15 7 -26 20 -29 17 -4 18 -2 9 14 -5 11 -7 24 -4 29
3 6 -1 10 -9 10 -10 0 -16 -9 -16 -24z"/>
</g>
</svg>
