<?xml version="1.0" encoding="UTF-8"?>
<svg version="1.1" xmlns="http://www.w3.org/2000/svg" width="1707" height="1707">
<path d="M0 0 C0.87100342 -0.00282738 1.74200684 -0.00565475 2.6394043 -0.00856781 C7.27083621 -0.0234439 11.90223804 -0.03273996 16.53369141 -0.03710938 C20.26003079 -0.04144298 23.98613194 -0.05515037 27.71240234 -0.078125 C113.78349763 -0.59755537 199.14354145 12.96461407 386.14453125 79.75146484 C389.27721323 81.24592305 392.41906519 82.71971593 395.5625 84.19140625 C408.43554319 90.25139084 421.02257712 96.70452807 433.43408203 103.66015625 C436.26270742 105.24526996 439.09795981 106.81808926 441.93359375 108.390625 C484.47166368 132.08606438 524.93807107 159.84339852 562.50048828 190.81591797 C564.02393159 192.0686249 565.55636635 193.3103776 567.08984375 194.55078125 C578.93631746 204.13581358 590.32411502 214.21418687 601.45629883 224.61547852 C602.67704442 225.73499743 603.91280559 226.83825018 605.15893555 227.92944336 C613.43180481 235.20598721 621.16075859 243.02558474 628.93823242 250.82348633 C631.37631632 253.26694422 633.81971789 255.70499307 636.26367188 258.14257812 C637.83625833 259.71582521 639.40853464 261.28938237 640.98046875 262.86328125 C641.70042526 263.58121353 642.42038177 264.29914581 643.16215515 265.03883362 C647.15662258 269.05160377 650.98277642 273.15743562 654.67393494 277.45144653 C656.90589695 280.03453985 659.2356875 282.51762059 661.5625 285.015625 C665.83589971 289.64093453 669.87633729 294.40394401 673.82421875 299.3125 C675.98071928 301.95020312 678.18952966 304.52573814 680.42773438 307.09350586 C687.15372441 314.82121595 693.3890918 322.86153311 699.55078125 331.04296875 C701.15483969 333.16001963 702.77666524 335.26192892 704.40625 337.359375 C736.15417661 378.28353253 763.14113121 422.76886141 786.52246094 468.92871094 C788.00004101 471.83447398 789.49855933 474.72779771 791.0078125 477.6171875 C831.53146265 555.86949492 856.35392749 643.44483999 876.1875 799.203125 C876.22986786 799.84040527 876.27223572 800.47768555 876.31588745 801.13427734 C877.34797976 816.8531651 877.37504904 832.57890277 877.37280273 848.32421875 C877.37272218 851.30182056 877.37956703 854.27926616 877.39331055 857.25683594 C877.52077242 885.36613202 876.43344422 913.36245844 873.4375 941.328125 C873.31394638 942.50708847 873.31394638 942.50708847 873.18789673 943.70986938 C866.81373753 1004.0820819 854.02231692 1063.49363273 835.1875 1121.203125 C834.78354004 1122.44932617 834.37958008 1123.69552734 833.96337891 1124.97949219 C815.73918409 1180.74776442 790.8276456 1235.02448668 760.83984375 1285.41601562 C759.346275 1287.93530949 757.87255531 1290.46477938 756.40625 1293 C750.01961075 1303.95462013 743.09216242 1314.52965931 736.0625 1325.078125 C735.59900146 1325.77436981 735.13550293 1326.47061462 734.65795898 1327.18795776 C726.56094272 1339.3315106 718.22668929 1351.2977894 709.4375 1362.953125 C708.70188843 1363.93019409 708.70188843 1363.93019409 707.95141602 1364.92700195 C699.13683097 1376.59730798 690.22828421 1388.16691736 680.6953125 1399.26171875 C678.32856999 1402.0376644 676.03367969 1404.85875693 673.75 1407.703125 C669.88359833 1412.4580355 665.80221132 1416.96974145 661.61157227 1421.4375 C658.93987957 1424.28730554 656.32509983 1427.17311607 653.76171875 1430.12109375 C643.88207045 1441.46434369 633.30681483 1452.18170694 622.6875 1462.828125 C621.76831787 1463.75189941 620.84913574 1464.67567383 619.90209961 1465.62744141 C615.41164945 1470.10767764 610.86914391 1474.44996531 606.05517578 1478.58056641 C602.9053944 1481.31696471 599.90273004 1484.20832845 596.875 1487.078125 C591.65283366 1491.99352563 586.33850768 1496.64832596 580.734375 1501.125 C578.1174167 1503.26030953 575.61907221 1505.48842863 573.125 1507.765625 C568.30861165 1512.13869523 563.31348924 1516.19990785 558.1875 1520.203125 C556.8658488 1521.24344306 555.54423747 1522.28381179 554.22265625 1523.32421875 C530.70126792 1541.78507194 506.4332386 1559.17524279 481.1875 1575.203125 C480.34606445 1575.7379248 479.50462891 1576.27272461 478.63769531 1576.82373047 C401.00243303 1625.9769804 315.72926937 1661.64129486 78.1875 1706.203125 C76.87185059 1706.28925049 75.55620117 1706.37537598 74.20068359 1706.46411133 C59.16615903 1707.38613629 44.12291302 1707.39058216 29.06640625 1707.38842773 C26.08880444 1707.38834718 23.11135884 1707.39519203 20.13378906 1707.40893555 C-7.97550702 1707.53639742 -35.97183344 1706.44906922 -63.9375 1703.453125 C-65.11646347 1703.32957138 -65.11646347 1703.32957138 -66.31924438 1703.20352173 C-97.74029209 1699.88605576 -128.9131551 1694.77844378 -159.8125 1688.203125 C-160.50974182 1688.05486267 -161.20698364 1687.90660034 -161.925354 1687.75384521 C-229.26971284 1673.34690171 -294.04834537 1649.45495584 -355.8125 1619.203125 C-356.82199707 1618.71199219 -357.83149414 1618.22085937 -358.87158203 1617.71484375 C-373.84464126 1610.41959779 -388.40585587 1602.5583816 -402.8125 1594.203125 C-403.58674316 1593.75727051 -404.36098633 1593.31141602 -405.15869141 1592.85205078 C-429.86032803 1578.62193852 -453.69825976 1562.87903289 -476.8125 1546.203125 C-477.57804199 1545.65156738 -478.34358398 1545.10000977 -479.13232422 1544.53173828 C-489.00413435 1537.39706613 -498.63373356 1530.0452055 -508.03125 1522.296875 C-511.67433484 1519.29712753 -515.39312623 1516.40351249 -519.125 1513.515625 C-524.43242889 1509.38911581 -529.43088668 1505.04502202 -534.36328125 1500.47265625 C-536.50364544 1498.48932038 -538.67186908 1496.55352311 -540.875 1494.640625 C-544.62457332 1491.3778117 -548.32988089 1488.0686907 -552.01513672 1484.73339844 C-553.78087574 1483.13625066 -555.55003978 1481.54287383 -557.32397461 1479.95483398 C-565.91402766 1472.19174711 -574.11220831 1464.05615346 -582.28686523 1455.85913086 C-584.63477056 1453.505832 -586.98801968 1451.1579711 -589.34179688 1448.81054688 C-590.85969597 1447.29198742 -592.37728506 1445.77311804 -593.89453125 1444.25390625 C-594.58633987 1443.56412186 -595.2781485 1442.87433746 -595.99092102 1442.16365051 C-599.91359158 1438.22228678 -603.66227294 1434.18092841 -607.28877258 1429.96496582 C-609.52501022 1427.37927056 -611.85743636 1424.89211975 -614.1875 1422.390625 C-618.45769259 1417.76878669 -622.49475373 1413.00888552 -626.44140625 1408.10546875 C-629.13082097 1404.81348335 -631.90446815 1401.6033148 -634.6875 1398.390625 C-640.62708799 1391.49958137 -646.26373551 1384.41074595 -651.8125 1377.203125 C-652.42673828 1376.4095459 -653.04097656 1375.6159668 -653.67382812 1374.79833984 C-661.81573754 1364.27076343 -669.80135289 1353.68954298 -677.1953125 1342.62158203 C-679.13217236 1339.72506425 -681.08237638 1336.83766638 -683.03125 1333.94921875 C-730.24451257 1263.83119406 -767.51764197 1188.18809526 -830.015625 877.390625 C-830.01845238 876.51962158 -830.02127975 875.64861816 -830.02419281 874.7512207 C-830.0390689 870.11978879 -830.04836496 865.48838696 -830.05273438 860.85693359 C-830.05706798 857.13059421 -830.07077537 853.40449306 -830.09375 849.67822266 C-830.29746562 815.90362092 -828.71359802 782.35993713 -824.5 748.828125 C-824.39611969 747.97988159 -824.29223938 747.13163818 -824.18521118 746.25769043 C-814.37171523 666.41081016 -792.93346812 587.65216887 -721.23925781 434.69384766 C-719.97867768 432.49322505 -718.74271797 430.28227701 -717.5234375 428.05859375 C-703.45564926 402.41728281 -687.09775784 377.7819572 -669.8125 354.203125 C-669.28446777 353.47818848 -668.75643555 352.75325195 -668.21240234 352.00634766 C-649.89257226 326.85854595 -630.36686348 302.68422997 -609.23046875 279.83984375 C-607.19320528 277.61827212 -605.21018947 275.36729732 -603.25 273.078125 C-599.77398536 269.06028553 -595.99637963 265.37274102 -592.21875 261.640625 C-590.15800655 259.55311865 -588.21734374 257.43143277 -586.3125 255.203125 C-580.36375037 248.27458131 -573.81034369 241.97547525 -566.875 236.046875 C-564.42325311 233.85516187 -562.12364427 231.54245396 -559.8125 229.203125 C-556.27936601 225.63228988 -552.67876905 222.23761275 -548.86328125 218.97265625 C-546.53683417 216.96526477 -544.27057314 214.89845862 -542 212.828125 C-537.70776382 208.95400619 -533.28471326 205.28294952 -528.7890625 201.6484375 C-526.06047012 199.40683799 -523.38289801 197.11977476 -520.71533203 194.80664062 C-514.22846781 189.18386021 -507.60007567 183.80613158 -500.73535156 178.64892578 C-498.53515367 176.99458704 -496.34201721 175.33107204 -494.1484375 173.66796875 C-453.35195041 142.81448377 -410.12178184 115.90084749 -364.8125 92.203125 C-363.42659668 91.47512695 -363.42659668 91.47512695 -362.01269531 90.73242188 C-288.31688867 52.23667921 -207.46687634 26.88297568 0 0 Z M-348.4375 388.578125 C-349.02732666 388.90441895 -349.61715332 389.23071289 -350.22485352 389.56689453 C-362.87134513 397.03669683 -373.07785482 408.12797609 -383.390625 418.41015625 C-384.97232584 419.98286965 -386.55409384 421.55551551 -388.13592529 423.12809753 C-391.43415068 426.40992513 -394.72804012 429.69603834 -398.01953125 432.98461914 C-402.21589993 437.17559403 -406.42821361 441.3501447 -410.64461136 445.52095509 C-413.91155148 448.75801635 -417.16704638 452.00640845 -420.41957855 455.25794029 C-421.96706554 456.80125159 -423.51862826 458.34048835 -425.07450104 459.87534523 C-436.74767035 471.40320911 -444.72180175 481.7427991 -450.125 497.453125 C-450.45822266 498.38125 -450.79144531 499.309375 -451.13476562 500.265625 C-454.16119137 508.81935525 -456.12178379 516.41014891 -456.078125 525.484375 C-456.08099014 526.36209564 -456.08385529 527.23981628 -456.08680725 528.14413452 C-456.09118082 530.99730159 -456.07859697 533.85000405 -456.0625 536.703125 C-456.05906586 537.68863342 -456.05563171 538.67414185 -456.05209351 539.68951416 C-455.98051184 557.25526422 -455.40114749 574.70255411 -453.8125 592.203125 C-453.73944641 593.01940369 -453.66639282 593.83568237 -453.59112549 594.67669678 C-449.89400786 635.64628702 -443.6764547 676.2486887 -433.8125 716.203125 C-433.51408203 717.43740234 -433.21566406 718.67167969 -432.90820312 719.94335938 C-427.79776562 741.00095494 -421.56460551 761.62082366 -414.8125 782.203125 C-414.49635742 783.17152313 -414.49635742 783.17152313 -414.17382812 784.15948486 C-397.50527614 835.19542296 -375.05732729 884.93848085 -347.8125 931.203125 C-347.26658203 932.14462402 -346.72066406 933.08612305 -346.15820312 934.05615234 C-331.51716069 959.30063015 -315.34587528 983.8677123 -297.8125 1007.203125 C-297.02770264 1008.25161621 -297.02770264 1008.25161621 -296.22705078 1009.32128906 C-285.35740434 1023.80329328 -273.94606282 1037.83513851 -262.18066406 1051.59667969 C-260.78733444 1053.23267342 -259.40470031 1054.87724868 -258.0234375 1056.5234375 C-252.69404821 1062.84752866 -247.21471553 1069.00409341 -241.54296875 1075.0234375 C-240.85400513 1075.7547287 -240.1650415 1076.4860199 -239.4552002 1077.23947144 C-232.13189565 1084.97546515 -224.63395973 1092.53318246 -217.09130859 1100.0546875 C-214.78233764 1102.35821627 -212.47887223 1104.66715636 -210.17578125 1106.9765625 C-208.68000859 1108.47167547 -207.18392636 1109.96647881 -205.6875 1111.4609375 C-204.67635132 1112.47512253 -204.67635132 1112.47512253 -203.64477539 1113.50979614 C-199.7412576 1117.39433951 -195.73248979 1121.10098488 -191.55915833 1124.69458008 C-189.15682553 1126.76941457 -186.83149431 1128.92430288 -184.5 1131.078125 C-180.01587072 1135.16750287 -175.40982762 1139.04931521 -170.6875 1142.859375 C-168.11905787 1144.95321369 -165.59236704 1147.08469479 -163.07543945 1149.23950195 C-156.78180354 1154.623192 -150.33930772 1159.77294586 -143.72509766 1164.75878906 C-141.5965998 1166.3661663 -139.47631155 1167.98409992 -137.35546875 1169.6015625 C-111.59610086 1189.16930084 -84.69427479 1206.82052005 -56.8125 1223.203125 C-56.00586914 1223.67927246 -55.19923828 1224.15541992 -54.36816406 1224.64599609 C-38.83722654 1233.78347764 -22.89751888 1242.09488512 -6.8125 1250.203125 C-5.78205566 1250.72374512 -4.75161133 1251.24436523 -3.68994141 1251.78076172 C75.02429529 1291.27460455 161.08965153 1315.25368847 329.1875 1333.203125 C329.88584961 1333.23059814 330.58419922 1333.25807129 331.30371094 1333.28637695 C347.12946859 1333.90047111 361.17888739 1333.48386935 376.1875 1328.203125 C377.2695874 1327.84226807 377.2695874 1327.84226807 378.37353516 1327.47412109 C398.79898553 1320.64426092 411.75790126 1307.79241849 426.6640625 1292.89453125 C428.04301068 1291.51880498 429.42203018 1290.14315021 430.80111694 1288.76756287 C433.6754957 1285.89913465 436.54783841 1283.02868535 439.41894531 1280.15698242 C443.07614745 1276.49967851 446.74019532 1272.84931707 450.40603065 1269.20066929 C453.25097564 1266.36690245 456.0913036 1263.52854161 458.93040085 1260.68891716 C460.27862157 1259.34186648 461.6284407 1257.99641341 462.97996902 1256.65268135 C477.54467806 1242.1641985 489.04485098 1227.7297914 496.1875 1208.203125 C496.54585937 1207.2234375 496.90421875 1206.24375 497.2734375 1205.234375 C507.92676856 1173.51468251 503.60829679 1141.08703884 488.87890625 1111.33203125 C484.81929207 1103.66085103 479.93717364 1096.70612775 474.1875 1090.203125 C473.10662109 1088.95982422 473.10662109 1088.95982422 472.00390625 1087.69140625 C469.76724955 1085.16014659 467.48896091 1082.67550615 465.1875 1080.203125 C464.51332031 1079.46320312 463.83914063 1078.72328125 463.14453125 1077.9609375 C450.85888581 1065.00684231 434.43710796 1053.93837608 417.40478516 1048.42260742 C416.6436825 1048.17301112 415.88257984 1047.92341482 415.09841347 1047.666255 C403.35568614 1043.89059899 391.42264762 1040.74125435 379.5234375 1037.50390625 C377.54604968 1036.9638946 375.56883886 1036.42323842 373.59164488 1035.88251752 C367.39957361 1034.18917366 361.20612419 1032.50094576 355.01171875 1030.81616211 C348.67159232 1029.09165707 342.33378492 1027.35882352 335.99706876 1025.62183315 C330.50392726 1024.1163751 325.00942746 1022.61595118 319.51383746 1021.11945599 C316.25436547 1020.23183839 312.99555779 1019.34197289 309.73771286 1018.44838905 C270.66438637 1007.74040102 235.08002197 1005.18912298 198.32373047 1025.21875 C185.09664271 1032.79525979 174.85326019 1043.44628687 164.29296875 1054.28125 C162.495481 1056.11852704 160.69795438 1057.95576607 158.90039062 1059.79296875 C156.1145348 1062.64088633 153.3332839 1065.49256638 150.57348633 1068.36572266 C147.8768979 1071.17177982 145.14831638 1073.94551717 142.41796875 1076.71875 C141.59491745 1077.58622864 140.77186615 1078.45370728 139.9238739 1079.34747314 C134.12716929 1085.17259755 134.12716929 1085.17259755 129.44506836 1085.32470703 C127.83257202 1084.76952393 127.83257202 1084.76952393 126.1875 1084.203125 C125.28950684 1083.98092285 124.39151367 1083.7587207 123.46630859 1083.52978516 C58.6178347 1064.11256065 -0.96328325 1032.78328563 -52.8125 989.203125 C-53.328125 988.77241699 -53.84375 988.34170898 -54.375 987.89794922 C-70.08313251 974.75072392 -85.7578481 960.82250294 -99.078125 945.21875 C-101.07162581 942.90197879 -103.12804388 940.64892516 -105.1875 938.390625 C-150.79332365 887.71748761 -183.54344276 825.93824951 -204.0625 761.203125 C-204.45767822 759.97456787 -204.85285645 758.74601074 -205.26000977 757.48022461 C-205.78872681 755.7652478 -205.78872681 755.7652478 -206.328125 754.015625 C-206.64040039 753.01144531 -206.95267578 752.00726562 -207.27441406 750.97265625 C-207.87887357 747.86149986 -207.72743458 746.22706102 -206.8125 743.203125 C-205.05116272 740.98095703 -205.05116272 740.98095703 -202.72680664 738.7109375 C-201.85822525 737.85234131 -200.98964386 736.99374512 -200.09474182 736.10913086 C-199.14695358 735.19139893 -198.19916534 734.27366699 -197.22265625 733.328125 C-196.2380359 732.35861381 -195.25452833 731.38797135 -194.27207947 730.41625977 C-191.15080916 727.33382178 -188.01346121 724.26804169 -184.875 721.203125 C-163.17206206 700.65213758 -163.17206206 700.65213758 -146.5625 676.015625 C-146.1512085 675.21664795 -145.73991699 674.4176709 -145.31616211 673.59448242 C-137.33841203 657.63114095 -132.77556202 640.0343643 -131.8125 622.203125 C-131.75964844 621.34332031 -131.70679688 620.48351562 -131.65234375 619.59765625 C-131.04985921 600.60629572 -136.99089408 582.02928366 -141.98661065 563.92368984 C-142.94709998 560.43583576 -143.89716728 556.94514027 -144.84892273 553.45489502 C-146.44633855 547.60334834 -148.05204807 541.75412715 -149.6628418 535.90625 C-151.51303693 529.18881567 -153.34954276 522.46775216 -155.17888099 515.74461055 C-156.95564536 509.2160756 -158.7424953 502.69034002 -160.53368187 496.1657486 C-161.28840383 493.41585857 -162.03966769 490.66506086 -162.78795815 487.913414 C-174.30544633 445.60203022 -193.63029928 411.69968912 -232.5625 389.078125 C-268.80153891 369.74564598 -312.3002462 368.52686712 -348.4375 388.578125 Z " fill="#000000" transform="translate(829.8125,-0.203125)"/>
</svg>
