<?xml version="1.0" encoding="UTF-8"?>
<svg version="1.1" xmlns="http://www.w3.org/2000/svg" width="980" height="980">
<path d="M0 0 C0.69109863 0.09945923 1.38219727 0.19891846 2.09423828 0.3013916 C33.7822673 4.86670558 64.59840294 11.85458739 95 22 C96.07588379 22.35819824 97.15176758 22.71639648 98.26025391 23.08544922 C152.92510549 41.50943514 204.94582738 70.71318522 249 108 C250.03073806 108.85738666 251.0620156 109.71412505 252.09375 110.5703125 C264.19210958 120.65327526 275.59247455 131.41965342 286.70458984 142.57421875 C288.39175958 144.26681347 290.08430196 145.95390597 291.77734375 147.640625 C297.39848831 153.25807481 302.87121264 158.92287083 308 165 C308.845625 165.96421875 309.69125 166.9284375 310.5625 167.921875 C372.99125362 240.35523658 410.44822404 329.83464222 424 424 C424.18079102 425.22589844 424.36158203 426.45179688 424.54785156 427.71484375 C430.05502531 466.99861988 429.78406543 510.7797061 424 550 C423.90054077 550.69109863 423.80108154 551.38219727 423.6986084 552.09423828 C419.13329442 583.7822673 412.14541261 614.59840294 402 645 C401.64180176 646.07588379 401.28360352 647.15176758 400.91455078 648.26025391 C380.63028389 708.44464855 347.22370092 765.85146245 304.16015625 812.62890625 C302.97999413 813.92431024 301.80731266 815.22735686 300.67431641 816.56420898 C295.14792935 823.05294075 289.13651221 829.04958305 283.11328125 835.07202148 C281.26271033 836.92477468 279.42029924 838.78538706 277.578125 840.64648438 C271.40484658 846.84832985 265.1902897 852.74073784 258.30810547 858.15942383 C256.07408017 859.94092549 253.96990084 861.80806874 251.875 863.75 C244.9553685 869.95677426 237.44338472 875.4445689 230 881 C228.92202148 881.80727539 228.92202148 881.80727539 227.82226562 882.63085938 C160.82177586 932.59216918 82.35246001 962.14827327 0 974 C-1.22589844 974.18079102 -2.45179688 974.36158203 -3.71484375 974.54785156 C-42.98856604 980.05361586 -86.79081215 979.80135943 -126 974 C-127.05078735 973.84727631 -127.05078735 973.84727631 -128.12280273 973.69146729 C-158.77658523 969.22300784 -188.47970398 962.38791208 -218 953 C-218.91410645 952.71044434 -219.82821289 952.42088867 -220.77001953 952.12255859 C-282.33073742 932.33648159 -341.10417724 897.91165536 -388.62890625 854.16015625 C-389.92242276 852.9817137 -391.22369951 851.81082354 -392.55981445 850.6809082 C-399.10409011 845.11510213 -405.12181762 839.02915248 -411.18188477 832.94848633 C-413.05829475 831.06671726 -414.93998969 829.19035262 -416.82226562 827.31445312 C-422.76040976 821.37984858 -428.59799617 815.43433145 -434 809 C-434.845625 808.03578125 -435.69125 807.0715625 -436.5625 806.078125 C-498.98840332 733.6480705 -536.4495279 644.1562978 -550 550 C-550.18079102 548.77410156 -550.36158203 547.54820312 -550.54785156 546.28515625 C-556.05502531 507.00138012 -555.78406543 463.2202939 -550 424 C-549.85081116 422.96335205 -549.85081116 422.96335205 -549.6986084 421.90576172 C-545.13329442 390.2177327 -538.14541261 359.40159706 -528 329 C-527.64180176 327.92411621 -527.28360352 326.84823242 -526.91455078 325.73974609 C-507.47299325 268.05571065 -476.07355974 213.8176619 -436 168 C-435.36964844 167.27039063 -434.73929687 166.54078125 -434.08984375 165.7890625 C-432.40573185 163.84792214 -430.70400821 161.92368871 -429 160 C-428.09834106 158.97108643 -428.09834106 158.97108643 -427.1784668 157.92138672 C-421.10223493 151.06410149 -414.71324322 144.55969612 -408.22485352 138.09448242 C-406.4332405 136.3082533 -404.64706945 134.51670653 -402.86132812 132.72460938 C-397.07706327 126.93673268 -391.26467748 121.27285455 -385 116 C-384.03578125 115.154375 -383.0715625 114.30875 -382.078125 113.4375 C-309.64476342 51.00874638 -220.16535778 13.55177596 -126 0 C-124.16115234 -0.27118652 -124.16115234 -0.27118652 -122.28515625 -0.54785156 C-83.00138012 -6.05502531 -39.2202939 -5.78406543 0 0 Z M-27 331 C-27.76183594 331.68707031 -28.52367187 332.37414062 -29.30859375 333.08203125 C-45.75616442 348.4463997 -55.47396543 371.79436335 -56.30859375 394.125 C-56.47271618 403.68932575 -56.22212062 412.66146777 -54 422 C-103.67923938 417.51921496 -151.45706804 404.57318885 -193 376 C-193.58330078 375.5992627 -194.16660156 375.19852539 -194.76757812 374.78564453 C-205.69577451 367.23787998 -215.91053941 359.01425074 -225.72265625 350.0546875 C-227.6737616 348.29434202 -229.66013544 346.60815677 -231.6875 344.9375 C-234.7838801 342.30197648 -237.39315627 339.38855004 -240.03125 336.30078125 C-242.42484032 333.50351002 -244.85782065 330.74356909 -247.3125 328 C-248.57513672 326.576875 -248.57513672 326.576875 -249.86328125 325.125 C-251.73409922 322.76494676 -251.73409922 322.76494676 -254 323 C-266.53193605 345.18419317 -269.25188427 371.29856671 -262.52880859 395.81445312 C-256.24589245 417.04458761 -242.7617467 436.90909657 -224 449 C-230.16935093 449.15834464 -235.67986046 448.75585249 -241.6875 447.375 C-242.45771484 447.20258789 -243.22792969 447.03017578 -244.02148438 446.85253906 C-250.49139065 445.31119475 -256.36166871 442.98366417 -262.375 440.171875 C-264.82526217 438.86411639 -264.82526217 438.86411639 -267 439 C-265.57500058 462.53705941 -259.20049412 484.21621151 -243 502 C-242.12730469 502.96550781 -241.25460937 503.93101562 -240.35546875 504.92578125 C-227.51184255 518.66613724 -211.96840276 527.56478555 -193.79296875 532.45703125 C-192 533 -192 533 -191 534 C-199.91934605 536.0827853 -208.56627473 536.24069342 -217.6875 536.125 C-219.0826758 536.11494059 -220.4778587 536.10582002 -221.87304688 536.09765625 C-225.2488837 536.07429406 -228.62434618 536.04153668 -232 536 C-224.08726223 560.69019858 -207.96242236 579.15758367 -185.04296875 591.27270508 C-173.76102816 597.01479219 -162.6693993 600.20932877 -150.1171875 601.60546875 C-147 602 -147 602 -144 603 C-186.39400552 634.44114695 -231.20218723 643.59919164 -283 643 C-256.5304337 665.18190434 -215.39398236 676.67373071 -182 682 C-181.07687012 682.14953125 -180.15374023 682.2990625 -179.20263672 682.453125 C-108.95873268 693.33383656 -34.65240315 676.77974785 23 635 C28.49406806 630.85632577 33.78258625 626.48478889 39 622 C40.29164063 620.90365234 40.29164063 620.90365234 41.609375 619.78515625 C54.1384018 608.83276873 65.93179952 596.98347203 75.82080078 583.58496094 C76.93848013 582.08268882 78.0913902 580.60681668 79.24609375 579.1328125 C119.99097236 526.69466213 136.85237452 462.43613636 136 397 C136.61625244 396.7014209 137.23250488 396.4028418 137.86743164 396.09521484 C154.78707138 387.40586123 170.60398246 368.53258413 181 353 C181 352.34 181 351.68 181 351 C176.06104052 352.47112392 171.12685891 353.95341798 166.2109375 355.5 C140.96550339 363.37453332 140.96550339 363.37453332 130 363 C130.71542969 362.50113281 131.43085937 362.00226563 132.16796875 361.48828125 C149.1609566 349.2436574 162.92480216 334.0566478 170 314 C169.67 313.34 169.34 312.68 169 312 C168.07703125 312.4846875 167.1540625 312.969375 166.203125 313.46875 C123.45790909 335.57911243 123.45790909 335.57911243 109 333 C106.5625 331.09375 106.5625 331.09375 104 328.5 C84.97708406 310.14878799 59.79594835 303.3860905 34.04296875 303.7265625 C10.62369318 304.47167097 -10.27324326 314.9803907 -27 331 Z " fill="#010101" transform="translate(553,3)"/>
<path d="M0 0 C0.66 0.33 1.32 0.66 2 1 C0.68 2.32 -0.64 3.64 -2 5 C-0.35 5.33 1.3 5.66 3 6 C3 6.33 3 6.66 3 7 C-2.94 7.495 -2.94 7.495 -9 8 C-6.14723863 5.06799526 -3.34920216 2.35684596 0 0 Z " fill="#7D7D7D" transform="translate(691,359)"/>
</svg>
