<?xml version="1.0" encoding="UTF-8"?>
<svg version="1.1" xmlns="http://www.w3.org/2000/svg" width="512" height="512">
<path d="M0 0 C28.49987033 26.62873101 48.41797743 60.77830399 56.375 99.125 C56.53049316 99.86814453 56.68598633 100.61128906 56.84619141 101.37695312 C66.66099289 150.25065846 56.25499742 200.97365389 29.3125 242.6875 C22.73081758 252.06639744 15.79052403 261.31217928 7.375 269.125 C6.570625 269.929375 5.76625 270.73375 4.9375 271.5625 C4.091875 272.408125 3.24625 273.25375 2.375 274.125 C1.83746094 274.69734375 1.29992187 275.2696875 0.74609375 275.859375 C-9.54025177 286.59668765 -21.87686467 294.62646691 -34.625 302.125 C-35.23037598 302.48335938 -35.83575195 302.84171875 -36.45947266 303.2109375 C-52.86962015 312.79666187 -71.07622014 319.16915358 -89.625 323.125 C-90.75784424 323.37056641 -90.75784424 323.37056641 -91.91357422 323.62109375 C-117.16685492 328.80784862 -145.62774464 328.0734716 -170.625 322.125 C-171.96208008 321.81151611 -171.96208008 321.81151611 -173.32617188 321.49169922 C-186.30740547 318.34537626 -198.35955807 313.57824474 -210.46289062 307.96948242 C-216.95408994 305.43413255 -220.5839133 306.86706932 -226.859375 309.39453125 C-228.21402359 309.9227951 -228.21402359 309.9227951 -229.59603882 310.46173096 C-232.52725294 311.60827605 -235.45100515 312.77268199 -238.375 313.9375 C-240.37570773 314.7236741 -242.37684826 315.50874767 -244.37841797 316.29272461 C-256.20920369 320.93641377 -268.02721984 325.62208111 -279.79199219 330.4309082 C-280.68821289 330.79531006 -281.58443359 331.15971191 -282.5078125 331.53515625 C-283.26465332 331.84590088 -284.02149414 332.15664551 -284.80126953 332.47680664 C-286.625 333.125 -286.625 333.125 -288.625 333.125 C-286.47116909 323.03865945 -283.81183632 313.16903102 -280.8125 303.30078125 C-280.47379883 302.17606415 -280.13509766 301.05134705 -279.78613281 299.89254761 C-278.37597715 295.21060737 -276.96475446 290.52958922 -275.51220703 285.8605957 C-274.4422044 282.40999129 -273.40589932 278.95073705 -272.375 275.48828125 C-272.03879639 274.43514236 -271.70259277 273.38200348 -271.35620117 272.29695129 C-269.5168204 266.33991424 -269.5168204 266.33991424 -271.34130859 260.55297852 C-272.09492676 259.75174561 -272.84854492 258.9505127 -273.625 258.125 C-274.51058594 257.03058594 -274.51058594 257.03058594 -275.4140625 255.9140625 C-276.01992188 255.19992187 -276.62578125 254.48578125 -277.25 253.75 C-282.71934224 246.96152142 -287.21734391 239.6303021 -291.625 232.125 C-292.01864746 231.45581543 -292.41229492 230.78663086 -292.81787109 230.09716797 C-308.86400018 202.39215466 -316.07281809 171.08113695 -316 139.25 C-315.99978851 138.39460632 -315.99957703 137.53921265 -315.99935913 136.65789795 C-315.94947706 116.3821375 -313.14797113 97.35008937 -306.625 78.125 C-306.21894531 76.87460938 -305.81289063 75.62421875 -305.39453125 74.3359375 C-289.76991502 28.29280935 -254.15491145 -9.55488134 -210.91235352 -30.93896484 C-140.97523557 -64.56114523 -57.25544603 -52.26610297 0 0 Z M-208.625 46.125 C-209.28371094 46.70894531 -209.94242188 47.29289062 -210.62109375 47.89453125 C-218.25581441 54.88310629 -224.45393262 64.28588682 -224.9609375 74.78515625 C-225.70462903 118.42725071 -205.31338796 156.30202397 -175.625 187.125 C-175.07263672 187.69927734 -174.52027344 188.27355469 -173.95117188 188.86523438 C-166.57859681 196.48493486 -159.09287269 203.71254015 -150.625 210.125 C-149.97547363 210.6185498 -149.32594727 211.11209961 -148.65673828 211.62060547 C-138.42312299 219.34746084 -128.0332378 226.26332416 -116.625 232.125 C-115.95678223 232.47401367 -115.28856445 232.82302734 -114.60009766 233.18261719 C-103.35299678 238.99777299 -91.85647031 242.91452166 -79.625 246.125 C-78.655625 246.393125 -77.68625 246.66125 -76.6875 246.9375 C-70.41263395 248.38554601 -63.97493271 248.38653377 -57.5625 248.5 C-56.63969238 248.52626465 -55.71688477 248.5525293 -54.76611328 248.57958984 C-41.15486965 248.61113667 -32.28255843 241.75266413 -22.875 232.625 C-21.44890098 231.13396478 -20.03132942 229.634696 -18.625 228.125 C-18.07199219 227.58488281 -17.51898438 227.04476562 -16.94921875 226.48828125 C-12.82829848 221.87981548 -13.16937214 217.07651184 -13.3515625 211.11328125 C-13.7173045 205.77867293 -14.16254592 200.45200965 -14.625 195.125 C-15.70281738 194.73231934 -16.78063477 194.33963867 -17.89111328 193.93505859 C-21.95929585 192.45170661 -26.02555648 190.96314387 -30.09130859 189.47314453 C-31.83819893 188.83374096 -33.58558089 188.19567863 -35.33349609 187.55908203 C-44.88945059 184.0777102 -54.33712761 180.53422427 -63.57763672 176.27587891 C-67.42215783 174.82394232 -71.64273355 173.32974291 -75.6015625 174.91796875 C-76.14554688 175.37816406 -76.68953125 175.83835937 -77.25 176.3125 C-77.90484375 176.85777344 -78.5596875 177.40304687 -79.234375 177.96484375 C-80.02328125 178.67769531 -80.8121875 179.39054688 -81.625 180.125 C-82.15029297 180.59824707 -82.67558594 181.07149414 -83.21679688 181.55908203 C-87.7600565 185.66666912 -92.29348511 189.79348511 -96.625 194.125 C-101.69146621 194.75473026 -104.26574193 193.51258675 -108.375 190.625 C-109.41914063 189.89152344 -110.46328125 189.15804687 -111.5390625 188.40234375 C-118.78849434 183.05244658 -125.60481953 177.35200976 -132.25390625 171.2734375 C-134.36263367 169.36272896 -136.51280105 167.52199852 -138.6875 165.6875 C-149.25726944 156.42838197 -168.37064278 137.47193133 -171.2109375 123.17578125 C-170.35411826 118.71460908 -167.85046923 116.78223534 -164.5625 113.8125 C-163.3680105 112.6698812 -162.17658966 111.52404569 -160.98828125 110.375 C-160.41029785 109.82070312 -159.83231445 109.26640625 -159.23681641 108.6953125 C-157.13579391 106.64839085 -155.15300131 104.54494145 -153.25 102.3125 C-152.70601563 101.68730469 -152.16203125 101.06210938 -151.6015625 100.41796875 C-149.36804632 95.17367277 -151.61365003 89.84583147 -153.55859375 84.82421875 C-154.38487078 82.81685162 -155.21998895 80.81310782 -156.0625 78.8125 C-159.97789844 69.29106077 -163.6983669 59.72379148 -167.25 50.0625 C-167.68755615 48.87293701 -168.1251123 47.68337402 -168.57592773 46.45776367 C-169.59498308 43.6811506 -170.61155481 40.90366468 -171.625 38.125 C-173.0332605 38.02759521 -173.0332605 38.02759521 -174.4699707 37.92822266 C-175.71351318 37.8410498 -176.95705566 37.75387695 -178.23828125 37.6640625 C-179.46587158 37.57850098 -180.69346191 37.49293945 -181.95825195 37.40478516 C-184.3070741 37.22556216 -186.65406608 37.01898675 -188.99731445 36.77758789 C-198.01399032 35.88850971 -202.42774248 40.02595575 -208.625 46.125 Z " fill="#000000" transform="translate(378.625,102.875)"/>
<path d="M0 0 C0.94093506 0.00021149 1.88187012 0.00042297 2.85131836 0.00064087 C18.60065776 0.03584033 33.74466742 1.05040647 49.1875 4.375 C50.04553223 4.55691895 50.90356445 4.73883789 51.78759766 4.92626953 C89.89072908 13.31450563 125.34836344 31.95352343 153.96875 58.34375 C155.95765799 60.16458125 157.99432976 61.89587406 160.0625 63.625 C202.13087849 100.55075106 225.19598239 157.680348 229.875 212.4375 C232.77383718 264.19382217 220.15143357 318.10951898 189.1875 360.375 C188.3111789 361.6106636 187.43487827 362.84634171 186.55859375 364.08203125 C179.219287 374.27710423 170.98278563 383.42094595 162.1875 392.375 C161.58156006 392.99342773 160.97562012 393.61185547 160.35131836 394.24902344 C119.19809933 435.87348369 59.63905585 458.12296078 1.6875 458.5625 C-25.99398624 458.51493731 -55.41106879 454.69488892 -80.8203125 443.1953125 C-87.30372745 441.41787498 -93.45266045 443.71131983 -99.46484375 446.19140625 C-100.54468033 446.62300552 -100.54468033 446.62300552 -101.64633179 447.06332397 C-103.20197278 447.6863377 -104.75590376 448.31363515 -106.30825806 448.9447937 C-108.80855383 449.96130545 -111.3131073 450.96659437 -113.8190918 451.96899414 C-116.46444872 453.02722055 -119.10953435 454.08607035 -121.75331116 455.14823914 C-131.18463376 458.93633915 -140.65284935 462.62796029 -150.125 466.3125 C-153.51839597 467.6336865 -156.91156511 468.9554548 -160.3046875 470.27734375 C-161.57539093 470.77220024 -161.57539093 470.77220024 -162.87176514 471.27705383 C-168.42251805 473.43987424 -173.96950041 475.612134 -179.51429749 477.79017639 C-183.33736887 479.29178382 -187.16138144 480.79098618 -190.98544312 482.29006958 C-192.81942808 483.00980376 -194.65294996 483.73071916 -196.48599243 484.45285034 C-199.01943096 485.45076756 -201.55444363 486.44457933 -204.08984375 487.4375 C-204.84609039 487.7366481 -205.60233704 488.0357962 -206.38150024 488.3440094 C-211.5847579 490.375 -211.5847579 490.375 -213.8125 490.375 C-212.53326833 482.7925118 -210.90260329 475.36877078 -208.98339844 467.92431641 C-208.70679382 466.83834167 -208.43018921 465.75236694 -208.14520264 464.63348389 C-207.54973955 462.29623341 -206.9527692 459.95936651 -206.35442352 457.62285233 C-205.40877252 453.92533143 -204.46972596 450.22619347 -203.53277588 446.52645874 C-200.87062242 436.01476765 -198.20558186 425.50387642 -195.51464844 414.99951172 C-193.86465636 408.55827783 -192.2307203 402.11310122 -190.60596466 395.66544724 C-189.98470883 393.21199842 -189.3578756 390.75995497 -188.7253952 388.30937576 C-187.84420377 384.89274316 -186.9819793 381.47184558 -186.12402344 378.04931641 C-185.8581543 377.03729156 -185.59228516 376.02526672 -185.31835938 374.98257446 C-185.08840271 374.04921265 -184.85844604 373.11585083 -184.621521 372.15420532 C-184.41579342 371.34717478 -184.21006584 370.54014423 -183.9981041 369.70865822 C-183.60683086 364.78905775 -186.40481716 361.38764558 -189.3125 357.6875 C-194.97392158 350.04663211 -199.40020869 341.78230178 -203.8125 333.375 C-204.163125 332.71854492 -204.51375 332.06208984 -204.875 331.38574219 C-232.1365972 279.76441701 -235.35086905 216.46610287 -218.66015625 161.1484375 C-216.11405584 153.04514986 -213.19831606 145.16359799 -209.8125 137.375 C-209.48556152 136.61558105 -209.15862305 135.85616211 -208.82177734 135.07373047 C-198.9695383 112.4841876 -185.12340657 91.83048406 -168.20703125 73.921875 C-166.26129182 71.85234465 -164.42567042 69.7563087 -162.625 67.5625 C-159.37803483 63.7376851 -155.6397147 60.60322723 -151.8125 57.375 C-150.87535156 56.55 -149.93820313 55.725 -148.97265625 54.875 C-107.78532966 18.82226034 -54.47882806 -0.11344754 0 0 Z M-144.8125 66.375 C-145.8025 67.24253906 -146.7925 68.11007813 -147.8125 69.00390625 C-153.2433781 73.8370926 -158.15925426 78.80090142 -162.8125 84.375 C-163.62074219 85.28378906 -164.42898437 86.19257812 -165.26171875 87.12890625 C-202.45092274 129.21587099 -220.49754634 186.31502282 -217.41430664 242.05664062 C-214.60990229 282.31448385 -202.07344736 327.70451724 -174.4375 358.375 C-172.54442162 360.70078678 -171.78935895 361.78045597 -171.90765858 364.81983185 C-172.10166595 365.70400536 -172.29567331 366.58817886 -172.49555969 367.49914551 C-172.70305155 368.47231216 -172.9105434 369.44547882 -173.12432289 370.44813538 C-173.35142134 371.4140007 -173.57851978 372.37986603 -173.8125 373.375 C-174.00423483 374.20797104 -174.19596966 375.04094208 -174.39351463 375.89915466 C-174.99004932 378.40262923 -175.61940588 380.89574721 -176.25854492 383.38867188 C-176.49452896 384.32180206 -176.730513 385.25493225 -176.97364807 386.21633911 C-177.48063003 388.21966539 -177.98919769 390.22259095 -178.49922752 392.22514343 C-179.30552721 395.39309216 -180.10643676 398.56235959 -180.90583801 401.73205566 C-183.17731316 410.7358063 -185.45625791 419.73764706 -187.74389648 428.73730469 C-189.14720184 434.25953013 -190.54255715 439.78371335 -191.93288612 445.30921936 C-192.46370716 447.41200504 -192.99762189 449.51401223 -193.53465843 451.61521912 C-194.28212722 454.54047734 -195.01951904 457.46810247 -195.75463867 460.39648438 C-195.97950958 461.26608795 -196.20438049 462.13569153 -196.43606567 463.03164673 C-196.63374039 463.82763275 -196.8314151 464.62361877 -197.03507996 465.44372559 C-197.21038836 466.13461021 -197.38569677 466.82549484 -197.56631756 467.53731537 C-197.98019946 469.60422065 -197.98019946 469.60422065 -196.8125 472.375 C-175.72725211 464.24413706 -154.64506868 456.10571128 -133.59390259 447.88693237 C-131.01466281 446.88072025 -128.43454935 445.87677745 -125.85424805 444.87329102 C-118.67692994 442.07904193 -111.51020508 439.26898982 -104.38671875 436.33984375 C-103.31591064 435.90414063 -102.24510254 435.4684375 -101.1418457 435.01953125 C-99.26087666 434.25104014 -97.38501912 433.46982651 -95.51635742 432.671875 C-85.97330483 428.79138511 -78.66942142 432.34356882 -69.375 435.625 C-15.66607732 453.99613682 43.4538116 450.92912379 94.87255859 426.42871094 C117.49959323 415.19748104 136.94263272 400.74455131 155.1875 383.375 C156.27611328 382.34826172 156.27611328 382.34826172 157.38671875 381.30078125 C172.95614726 366.22076503 185.32695611 347.5675349 195.1875 328.375 C195.53619141 327.71274414 195.88488281 327.05048828 196.24414062 326.36816406 C222.26165105 276.59661688 225.75335039 216.40841372 209.18017578 163.17382812 C190.95025014 107.32925031 151.60112841 60.71210615 99.29296875 33.80078125 C81.01949251 24.74476631 62.0982961 18.67288028 42.1875 14.375 C41.37780762 14.19420898 40.56811523 14.01341797 39.73388672 13.82714844 C-25.45436554 -0.09333167 -95.84500918 22.90353318 -144.8125 66.375 Z " fill="#000000" transform="translate(249.8125,11.625)"/>
</svg>
