<?xml version="1.0" encoding="UTF-8"?>
<svg version="1.1" xmlns="http://www.w3.org/2000/svg" width="1000" height="800">
<path d="M0 0 C2.84349736 1.42766442 3.7653966 3.34426103 5.37768555 6.06982422 C6.03414062 7.16544678 6.6905957 8.26106934 7.36694336 9.38989258 C8.07774552 10.60470645 8.7883518 11.81963495 9.4987793 13.03466797 C10.24601415 14.29128585 10.99440947 15.54721431 11.74389648 16.80249023 C13.74402531 20.1592 15.7290363 23.52460841 17.71075439 26.89221191 C19.74066867 30.33737446 21.78194594 33.77578352 23.82299805 37.21435547 C24.63477686 38.58210596 25.44654446 39.94986311 26.25830078 41.31762695 C26.65878632 41.99236053 27.05927185 42.66709412 27.47189331 43.36227417 C28.69185265 45.41906437 29.9100268 47.47690367 31.12792969 49.53491211 C35.48792676 56.89624295 39.90037102 64.21734169 44.4362793 71.47216797 C50.24629939 80.76483524 55.83665514 90.18107383 61.41577148 99.61328125 C67.03001714 109.10318181 72.6959067 118.55803788 78.4362793 127.97216797 C84.91988002 138.60525035 91.30105576 149.29584041 97.64428711 160.01318359 C103.18332907 169.3690067 108.77613525 178.68913325 114.4362793 187.97216797 C121.05539141 198.82938295 127.57040645 209.74518068 134.04858398 220.68701172 C138.85962508 228.81164296 143.7007601 236.91372087 148.65649414 244.95117188 C153.33775069 252.57227896 157.87854498 260.27685181 162.4362793 267.97216797 C167.87912123 277.16113104 173.33549037 286.33771724 178.93188477 295.43432617 C184.79237102 304.96866851 190.51871067 314.58429997 196.26782227 324.18603516 C198.3842595 327.72024379 200.5036821 331.25265419 202.6237793 334.78466797 C203.31911584 335.94350771 204.01442813 337.10236201 204.7097168 338.26123047 C205.06259766 338.84936523 205.41547852 339.4375 205.77905273 340.04345703 C209.7253418 346.62060547 209.7253418 346.62060547 211.2199707 349.11181641 C212.23768281 350.8078949 213.2555859 352.5038588 214.27368164 354.19970703 C216.89491154 358.56648126 219.51258798 362.93532001 222.1237793 367.30810547 C223.16523188 369.05042095 224.20689476 370.79261075 225.2487793 372.53466797 C225.74772705 373.3694165 226.2466748 374.20416504 226.76074219 375.06420898 C230.00701714 380.47647586 233.3410496 385.81174981 236.8269043 391.07373047 C237.9362793 392.97216797 237.9362793 392.97216797 237.9362793 394.97216797 C214.40677369 395.72199992 190.87907275 396.28505503 167.3399992 396.63015747 C156.40780978 396.79471707 145.48306804 397.01866983 134.55566406 397.38623047 C125.02272221 397.70673133 115.49517075 397.91195853 105.95699149 397.9829998 C100.90986519 398.02451172 95.87814438 398.12073886 90.83600426 398.35552979 C61.01303592 399.69069388 61.01303592 399.69069388 53.12152529 393.56303406 C45.72426166 386.23125711 41.6326311 376.53372476 37.72777748 367.0504303 C35.01254252 360.60942076 31.18620502 354.85067918 27.4362793 348.97216797 C26.04065069 346.70348475 24.6602315 344.42608836 23.2800293 342.14794922 C22.69523804 341.18606186 22.69523804 341.18606186 22.09863281 340.20474243 C16.49366244 330.95686896 10.99790054 321.64335937 5.48973083 312.33764648 C-1.74010438 300.12536886 -9.05407576 287.96572857 -16.43676758 275.8453064 C-22.71246034 265.53881246 -28.9130332 255.19336576 -35.00463867 244.77685547 C-39.6054077 236.93709414 -44.33166258 229.17145392 -49.0559082 221.40576172 C-50.53776484 218.96961598 -52.0195449 216.5334237 -53.5012207 214.09716797 C-53.87667023 213.47989838 -54.25211975 212.86262878 -54.63894653 212.22665405 C-58.82841332 205.33628395 -63.00184219 198.43882408 -67.0637207 191.47216797 C-71.28686964 184.23001363 -75.63908318 177.06875158 -80.0012207 169.90966797 C-86.25930143 159.63834425 -92.43780189 149.32282604 -98.5637207 138.97216797 C-104.73779838 128.54248815 -110.95567489 118.14153592 -117.2512207 107.78466797 C-117.9215332 106.681875 -118.5918457 105.57908203 -119.2824707 104.44287109 C-119.92571289 103.38648438 -120.56895508 102.33009766 -121.23168945 101.24169922 C-121.85221191 100.2177002 -122.47273438 99.19370117 -123.11206055 98.13867188 C-124.50407283 95.8801781 -125.91567772 93.64894555 -127.36303711 91.42675781 C-127.73922684 90.84053146 -128.11541656 90.25430511 -128.50300598 89.65031433 C-129.55539088 88.01333376 -130.62035163 86.38445789 -131.68603516 84.75610352 C-133.0637207 81.97216797 -133.0637207 81.97216797 -132.98486328 79.74169922 C-131.26334589 76.43463374 -127.60586877 75.02350107 -124.4387207 73.28466797 C-122.85892705 72.38687519 -121.27950565 71.4884271 -119.70043945 70.58935547 C-118.90943848 70.14430664 -118.1184375 69.69925781 -117.3034668 69.24072266 C-114.2541192 67.51362323 -111.25298263 65.71846707 -108.2512207 63.90966797 C-107.36817261 63.37925903 -107.36817261 63.37925903 -106.46728516 62.83813477 C-102.31103621 60.33848777 -98.16692506 57.81912547 -94.0246582 55.29638672 C-91.7253049 53.89643975 -89.42587664 52.49661759 -87.1262207 51.09716797 C-86.53312103 50.7362204 -85.94002136 50.37527283 -85.32894897 50.00338745 C-74.94589033 43.68829548 -64.50755901 37.46994897 -54.04953003 31.27999878 C-41.99360747 24.14221804 -30.00400049 16.89995506 -18.0402832 9.60888672 C-17.03126953 8.99835449 -16.02225586 8.38782227 -14.98266602 7.75878906 C-13.0411386 6.57042359 -11.1130863 5.35974939 -9.19946289 4.12695312 C-8.31677734 3.56669434 -7.4340918 3.00643555 -6.5246582 2.42919922 C-5.37296143 1.68053589 -5.37296143 1.68053589 -4.19799805 0.91674805 C-2.0637207 -0.02783203 -2.0637207 -0.02783203 0 0 Z " fill="#000000" transform="translate(594.063720703125,76.02783203125)"/>
<path d="M0 0 C1.47779791 2.04110061 2.71895701 4.00904493 3.95703125 6.19140625 C4.52630844 7.16330147 4.52630844 7.16330147 5.10708618 8.15483093 C6.35224325 10.28505449 7.58208406 12.42373424 8.8125 14.5625 C9.67131006 16.03623856 10.53142619 17.50921677 11.39282227 18.98144531 C12.69483343 21.20684751 13.99616203 23.43260734 15.29350281 25.66073608 C18.93081587 31.90560912 22.65991984 38.08879264 26.4375 44.25 C30.59212228 51.04513137 34.7239056 57.85242171 38.8125 64.6875 C43.17157686 71.97457712 47.57285547 79.23504655 51.98934937 86.48745728 C58.97356142 97.95832795 65.86564815 109.48058143 72.70608521 121.03771973 C78.24576566 130.39464603 83.83929879 139.71581338 89.5 149 C95.57166203 158.95820857 101.55909433 168.96325383 107.5 179 C113.48901901 189.11577106 119.51652376 199.20586719 125.625 209.25 C126.30618896 210.37067871 126.98737793 211.49135742 127.68920898 212.64599609 C130.98910636 218.06895621 134.29690679 223.48693193 137.61474609 228.89892578 C139.21439985 231.50975963 140.81075224 234.1226034 142.40667725 236.73571777 C143.17228242 237.987159 143.9395552 239.23758166 144.70855713 240.48693848 C145.76927356 242.2102316 146.82423904 243.93706059 147.87890625 245.6640625 C148.4829126 246.64842285 149.08691895 247.6327832 149.70922852 248.64697266 C151 251 151 251 151 253 C163.54 253 176.08 253 189 253 C189 321.97 189 390.94 189 462 C176.13 462 163.26 462 150 462 C149.67 460.02 149.34 458.04 149 456 C147.58460938 456.70576172 147.58460938 456.70576172 146.140625 457.42578125 C123.71666118 468.38534681 101.73431616 469.55053557 77.9375 461.875 C56.66650367 453.81744108 40.99710522 437.48284202 31.28125 417.1875 C22.46108675 395.24465485 23.03793957 372.58357695 31.625 350.75 C41.07491145 330.20774917 57.36564195 315.86529456 78 307 C85.12537649 304.52777818 92.42831941 302.3193679 100 302 C101.61068359 301.92265625 101.61068359 301.92265625 103.25390625 301.84375 C118.96789138 301.45049073 135.66722888 304.11148592 149 313 C149.33 293.86 149.66 274.72 150 255 C104.46 255 58.92 255 12 255 C12 267.21 12 279.42 12 292 C-1.86 292 -15.72 292 -30 292 C-29.9375 274.5 -29.9375 274.5 -29.84741211 269.08789062 C-29.86534935 257.75309736 -32.52608208 250.19501903 -38.79446411 240.81884766 C-40.63541902 238.04131399 -42.3048299 235.16500134 -44 232.296875 C-45.33071483 230.11298564 -46.66411698 227.93073182 -48 225.75 C-48.73549701 224.54413324 -49.47067729 223.33807326 -50.20556641 222.13183594 C-51.72068789 219.64567771 -53.23711255 217.16032333 -54.75488281 214.67578125 C-58.30093957 208.87084848 -61.84082219 203.06217242 -65.375 197.25 C-65.72167725 196.68003296 -66.06835449 196.11006592 -66.42553711 195.52282715 C-72.59227125 185.37812926 -78.66027298 175.17638157 -84.7074585 164.96008301 C-90.24667256 155.60388206 -95.83977482 146.28346758 -101.5 137 C-109.75937068 123.45052441 -117.86104693 109.80958404 -125.94345093 96.1539917 C-128.94209394 91.09047725 -131.96349226 86.0408838 -135 81 C-131.97983405 77.72014691 -128.86331556 75.53380094 -125.03125 73.26953125 C-124.44758667 72.92214401 -123.86392334 72.57475677 -123.26257324 72.21684265 C-122.00341755 71.46829004 -120.74265877 70.72242871 -119.48046875 69.97900391 C-116.77150035 68.38341083 -114.07026123 66.77493043 -111.3684082 65.16732788 C-109.9702135 64.33561138 -108.57160901 63.5045834 -107.17260742 62.67422485 C-100.41904651 58.66402796 -93.70714873 54.5871913 -87 50.5 C-71.75656448 41.22258183 -56.44939924 32.05186462 -41.13885498 22.88577271 C-34.46953925 18.89254706 -27.80743373 14.88897068 -21.171875 10.83984375 C-20.10582031 10.19208984 -19.03976562 9.54433594 -17.94140625 8.87695312 C-15.76396153 7.55369572 -13.58960494 6.22534664 -11.41796875 4.89257812 C-9.84208984 3.93834961 -9.84208984 3.93834961 -8.234375 2.96484375 C-7.29819336 2.3937085 -6.36201172 1.82257324 -5.39746094 1.23413086 C-3 0 -3 0 0 0 Z M72 358 C64.02231115 368.38400261 62.64741812 380.27698386 64 393 C65.62378591 400.56849365 69.26496388 406.94007543 74 413 C74.47824219 413.61617187 74.95648438 414.23234375 75.44921875 414.8671875 C82.28543101 422.61604271 93.1538345 427.51270001 103.34765625 428.23828125 C117.5705238 428.52243949 128.4986302 424.98663842 139 415.12109375 C147.38799667 406.17269213 150.19990796 396.89477444 150.3125 384.9375 C150.34150391 383.93783203 150.37050781 382.93816406 150.40039062 381.90820312 C150.50437522 369.59802631 145.75183033 361.00661638 137.34375 352.28125 C127.69320604 343.35904898 115.89010538 340.36461463 103.01171875 340.6875 C90.69080414 341.38408881 79.81881062 348.79335049 72 358 Z " fill="#000000" transform="translate(436,216)"/>
<path d="M0 0 C12.87 0 25.74 0 39 0 C39 68.97 39 137.94 39 209 C26.13 209 13.26 209 0 209 C0 206.69 0 204.38 0 202 C-0.83660156 202.45890625 -1.67320312 202.9178125 -2.53515625 203.390625 C-22.59306576 213.9637866 -43.93967729 216.9706743 -66 211 C-79.69918949 206.71114824 -90.73244502 199.96240037 -101 190 C-101.61359375 189.45988281 -102.2271875 188.91976562 -102.859375 188.36328125 C-115.68739891 176.6827182 -123.60818308 157.983061 -125.30371094 140.94873047 C-125.43557222 137.87576763 -125.46831598 134.82557966 -125.4375 131.75 C-125.42847656 130.65953369 -125.41945312 129.56906738 -125.41015625 128.44555664 C-124.96022432 107.32218987 -116.8971161 89.83636211 -102.625 74.4375 C-101.75875 73.633125 -100.8925 72.82875 -100 72 C-99.36320312 71.34644531 -98.72640625 70.69289063 -98.0703125 70.01953125 C-82.84766333 55.13003771 -62.4110949 48.73897055 -41.40698242 48.7512207 C-26.41374822 48.98839603 -12.91597427 53.61944327 0 61 C0 40.87 0 20.74 0 0 Z M-76.8125 102.8125 C-85.35444016 113.22802609 -88.17625041 124.74456268 -87 138 C-84.62211233 150.86768328 -77.9855533 160.52694528 -67.58984375 168.34375 C-57.21885398 174.97617784 -45.28446766 176.53655986 -33.21484375 174.5390625 C-26.83505135 172.82025948 -21.4625203 169.65146966 -16 166 C-14.6696875 165.13375 -14.6696875 165.13375 -13.3125 164.25 C-4.6885473 155.85912711 0.02229323 145.97799269 0.47094727 134.00952148 C0.63011001 120.26133791 -2.82122496 110.48524302 -12 100 C-21.89239394 90.75943047 -33.55076721 87.3462149 -46.92578125 87.69140625 C-58.81577409 88.36013163 -68.78132685 94.2447614 -76.8125 102.8125 Z " fill="#000000" transform="translate(350,469)"/>
<path d="M0 0 C0 -2.64 0 -5.28 0 -8 C12.87 -8 25.74 -8 39 -8 C39 43.48 39 94.96 39 148 C26.13 148 13.26 148 0 148 C-0.495 144.535 -0.495 144.535 -1 141 C-1.48726563 141.30292969 -1.97453125 141.60585938 -2.4765625 141.91796875 C-20.92433582 152.81892571 -41.53086085 155.62113142 -62.359375 150.98046875 C-75.566872 147.42351409 -86.49927403 141.64981267 -97 133 C-97.97839844 132.22269531 -98.95679687 131.44539062 -99.96484375 130.64453125 C-115.99360256 117.2134583 -123.48381647 96.10595248 -126 76 C-127.83205779 53.52206023 -118.88651753 31.60509209 -104.515625 14.66796875 C-77.6913026 -13.78080795 -33.6102984 -21.26753345 0 0 Z M-79.171875 44.4296875 C-86.14229409 54.22997758 -87.90684928 65.24982438 -87 77 C-84.53480117 89.87546618 -77.82613636 100.50498252 -67 108 C-55.07031084 114.03996857 -42.66887386 116.41558304 -29.625 112.375 C-24.19068813 110.29610217 -19.54882665 107.61618521 -15 104 C-14.38511719 103.52175781 -13.77023438 103.04351563 -13.13671875 102.55078125 C-5.77674919 96.07204973 -0.39214922 85.06866987 0.23828125 75.3125 C0.58809091 61.82208274 -1.41978026 51.12712204 -11 41 C-19.53421298 32.3890405 -28.5523449 26.932657 -41.00024414 26.56884766 C-56.92920756 26.52126027 -68.80152482 32.38538316 -79.171875 44.4296875 Z " fill="#000000" transform="translate(173,530)"/>
<path d="M0 0 C0 -2.64 0 -5.28 0 -8 C12.87 -8 25.74 -8 39 -8 C39 43.48 39 94.96 39 148 C26.13 148 13.26 148 0 148 C-0.495 144.535 -0.495 144.535 -1 141 C-2.010625 141.721875 -3.02125 142.44375 -4.0625 143.1875 C-21.14923741 153.85156306 -43.17429372 155.31600772 -62.40625 150.97265625 C-84.19168772 145.07638017 -102.54215304 131.72657971 -114.625 112.5625 C-125.09606084 93.92593299 -128.69175147 70.27665067 -123.5 49.4375 C-119.07757537 34.56631857 -111.41587071 21.5805631 -100 11 C-99.03320312 10.07767578 -99.03320312 10.07767578 -98.046875 9.13671875 C-92.76188774 4.23055051 -87.31587375 0.45819973 -81 -3 C-80.37867188 -3.36867188 -79.75734375 -3.73734375 -79.1171875 -4.1171875 C-55.29704116 -17.41934714 -22.52815968 -14.14558864 0 0 Z M-78.65625 44.05859375 C-85.9065066 54.53352844 -88.72657198 66.23407722 -86.5 78.828125 C-83.61005034 90.58496568 -77.14857134 101.09655279 -66.95703125 107.90625 C-55.92577065 114.07142559 -43.09089372 116.19980497 -30.75 112.875 C-23.15772888 110.22333365 -16.3189975 106.05774715 -11 100 C-10.52046875 99.53464844 -10.0409375 99.06929687 -9.546875 98.58984375 C-1.31563321 90.12995636 0.74616201 79.43768838 0.59155273 68.03271484 C0.07596093 56.74861996 -4.09377362 47.10306189 -12 39 C-22.06768738 29.98355708 -33.30174209 26.25322324 -46.7890625 26.625 C-59.67545209 27.45218686 -70.67269447 34.14567897 -78.65625 44.05859375 Z " fill="#000000" transform="translate(762,530)"/>
<path d="M0 0 C10.03129934 11.27228482 12.26801565 21.73181276 13.515625 36.703125 C-0.344375 36.703125 -14.204375 36.703125 -28.484375 36.703125 C-30.134375 32.413125 -31.784375 28.123125 -33.484375 23.703125 C-40.38702702 17.10725752 -49.74806726 17.31928072 -58.77734375 17.4453125 C-65.39712247 17.90569753 -71.4166804 19.23162977 -76.484375 23.703125 C-77.69213706 27.32641119 -77.88478392 29.89924027 -77.484375 33.703125 C-71.75208605 40.39079545 -60.66273323 42.36732111 -52.41015625 44.2890625 C-50.50581663 44.74982337 -48.60152114 45.21076667 -46.69726562 45.671875 C-43.75421892 46.37521701 -40.81037169 47.07493714 -37.86547852 47.77050781 C0.59843263 56.8952407 0.59843263 56.8952407 12.515625 73.703125 C18.63796704 85.14762455 19.47926602 98.22477987 15.890625 110.703125 C10.53931978 125.61167359 1.6909492 134.09161797 -12.23046875 141.08203125 C-20.37968388 144.78621994 -28.68536461 146.47499457 -37.484375 147.703125 C-38.56976562 147.85910156 -39.65515625 148.01507812 -40.7734375 148.17578125 C-62.79419872 150.50644576 -89.06472286 147.25675485 -107.1953125 133.671875 C-115.59653907 126.50686495 -121.77582517 118.49398751 -124.484375 107.703125 C-124.71125 106.89875 -124.938125 106.094375 -125.171875 105.265625 C-125.67894701 101.10763451 -125.484375 96.8919204 -125.484375 92.703125 C-111.294375 92.703125 -97.104375 92.703125 -82.484375 92.703125 C-81.164375 96.993125 -79.844375 101.283125 -78.484375 105.703125 C-69.77726523 114.12475576 -58.88055652 115.00058784 -47.22265625 114.85546875 C-40.16020312 114.46255053 -34.25033297 112.85461474 -28.484375 108.703125 C-26.25010192 105.49135744 -25.5184645 103.53831765 -25.359375 99.640625 C-26.97291637 95.42748919 -29.60418065 93.68262577 -33.484375 91.703125 C-44.16254888 87.41339554 -55.57620147 85.25136106 -66.77661133 82.78125 C-84.11025968 78.93961823 -103.62944864 74.44448386 -114.2734375 58.84765625 C-121.18890377 46.60058856 -121.9708983 34.41950087 -118.515625 20.90234375 C-114.35386301 7.99142303 -105.90242628 -2.13369788 -94.05834961 -8.66503906 C-68.71677157 -21.64758443 -21.80474217 -20.92374249 0 0 Z " fill="#000000" transform="translate(941.484375,532.296875)"/>
<path d="M0 0 C1.4033481 2.01554314 2.63721103 3.98762733 3.8515625 6.11328125 C4.22256073 6.74558151 4.59355896 7.37788177 4.97579956 8.02934265 C5.77868883 9.39985969 6.57753256 10.7727529 7.37280273 12.14770508 C9.07091773 15.08340125 10.78810344 18.00777153 12.50445557 20.93283081 C13.38608519 22.43561694 14.26673182 23.93898015 15.14642334 25.44290161 C19.18640451 32.34374729 23.32990691 39.17706747 27.5 46 C34.49528941 57.47359372 41.38090315 69.00968214 48.22387695 80.57470703 C51.74847515 86.53028382 55.27957561 92.4804753 58.8671875 98.3984375 C59.72026489 99.80706055 59.72026489 99.80706055 60.59057617 101.24414062 C61.62339965 102.94567033 62.65978521 104.64504515 63.70043945 106.34179688 C67 111.7804615 67 111.7804615 67 114 C43.44349647 114.3740762 19.8874391 114.6560582 -3.67143822 114.82899475 C-14.61090867 114.91143485 -25.54853189 115.02378018 -36.48681641 115.20703125 C-46.0229293 115.36671507 -55.55770451 115.46977718 -65.09511721 115.50541592 C-70.14411036 115.52624575 -75.18927759 115.5750272 -80.23704147 115.69168091 C-84.99406383 115.80071965 -89.74570713 115.83371301 -94.50386047 115.8097229 C-96.24474535 115.81410707 -97.98581912 115.84571388 -99.72562027 115.9072876 C-110.44854395 116.26800861 -110.44854395 116.26800861 -115 114 C-119.17455958 110.07628501 -121.68674673 105.0184199 -124.09385991 99.88952637 C-125.27754628 97.42124731 -126.69460861 95.13120601 -128.1640625 92.82421875 C-128.9863859 91.44651077 -129.80682137 90.06767346 -130.625 88.6875 C-131.05683594 87.97400391 -131.48867187 87.26050781 -131.93359375 86.52539062 C-135 81.35143849 -135 81.35143849 -135 78 C-132.78222656 76.36865234 -132.78222656 76.36865234 -129.640625 74.5859375 C-129.07363388 74.259422 -128.50664276 73.93290649 -127.92247009 73.59649658 C-126.68783829 72.88692107 -125.45030291 72.18237985 -124.21029663 71.48223877 C-120.85782373 69.58865393 -117.52656357 67.65823605 -114.19140625 65.734375 C-113.50407913 65.33936798 -112.81675201 64.94436096 -112.1085968 64.53738403 C-105.40025073 60.67558395 -98.78968409 56.66538423 -92.1875 52.625 C-82.16966993 46.50671122 -72.10210469 40.47805403 -62 34.5 C-52.2119191 28.70676489 -42.44855102 22.87653137 -32.73092651 16.96575928 C-30.96712744 15.89301936 -29.20251586 14.82162717 -27.43774414 13.75048828 C-22.62160697 10.82430784 -17.81185852 7.89017287 -13.03125 4.90625 C-12.32234619 4.46812988 -11.61344238 4.03000977 -10.88305664 3.57861328 C-9.11408175 2.48424182 -7.35158864 1.37941037 -5.58984375 0.2734375 C-3 -1 -3 -1 0 0 Z " fill="#000000" transform="translate(277,357)"/>
<path d="M0 0 C13.86 0 27.72 0 42 0 C42 52.8 42 105.6 42 160 C28.14 160 14.28 160 0 160 C0 107.2 0 54.4 0 0 Z " fill="#000000" transform="translate(406,518)"/>
<path d="M0 0 C6.35946371 3.63988817 10.28068272 9.09315396 12.5625 16 C13.63075842 24.5798018 12.84515791 31.97762061 7.5625 39 C1.9071558 44.48431565 -3.81854827 47.28001255 -11.75 47.375 C-19.22987094 47.24822253 -23.54292062 45.43407812 -29.1875 40.6875 C-34.84451299 33.93051226 -36.80336479 27.83575576 -36.71875 19.078125 C-36.08684691 12.16229679 -32.64101183 7.460153 -27.4375 3 C-19.15356365 -2.96443417 -9.53500914 -4.31828681 0 0 Z M-26.75 10.5 C-30.67704576 16.31784557 -31.35711007 21.01096346 -30.4375 28 C-28.45772832 33.46969479 -24.79588247 37.336299 -19.74609375 40.15234375 C-14.723549 41.99649301 -9.42608795 42.00367213 -4.35546875 40.30078125 C0.78287154 37.6476513 4.73350155 33.48699536 6.5625 28 C7.06998917 21.78325771 7.3344833 16.23210587 3.5625 11 C-1.22190778 6.20428156 -4.76433853 3.87121518 -11.6875 3.6875 C-18.4321225 3.75877738 -22.09918146 5.47208806 -26.75 10.5 Z " fill="#000000" transform="translate(939.4375,454)"/>
<path d="M0 0 C3.83625 -0.061875 3.83625 -0.061875 7.75 -0.125 C8.54889648 -0.14320801 9.34779297 -0.16141602 10.17089844 -0.18017578 C13.94006066 -0.20960753 16.85836552 -0.20149449 20 2 C22.09837129 4.69790595 21.99493423 6.14690743 21.875 9.625 C21 13 21 13 18.9453125 14.2109375 C18.30335938 14.47132813 17.66140625 14.73171875 17 15 C17.433125 15.68707031 17.86625 16.37414062 18.3125 17.08203125 C18.869375 17.98308594 19.42625 18.88414062 20 19.8125 C20.556875 20.70582031 21.11375 21.59914063 21.6875 22.51953125 C23 25 23 25 23 28 C20.3125 28.5 20.3125 28.5 17 28 C14.52424998 25.19798835 12 21.83491389 12 18 C10.02 17.67 8.04 17.34 6 17 C6 20.63 6 24.26 6 28 C4.02 28 2.04 28 0 28 C0 18.76 0 9.52 0 0 Z M6 5 C6 6.98 6 8.96 6 11 C8.64 11 11.28 11 14 11 C14.33 9.35 14.66 7.7 15 6 C12.03 5.67 9.06 5.34 6 5 Z " fill="#000000" transform="translate(916,463)"/>
</svg>
