<?xml version="1.0" standalone="no"?>
<!DOCTYPE svg PUBLIC "-//W3C//DTD SVG 20010904//EN"
 "http://www.w3.org/TR/2001/REC-SVG-20010904/DTD/svg10.dtd">
<svg version="1.0" xmlns="http://www.w3.org/2000/svg"
 width="4644.000000pt" height="1969.000000pt" viewBox="0 0 4644.000000 1969.000000"
 preserveAspectRatio="xMidYMid meet">

<g transform="translate(0.000000,1969.000000) scale(0.100000,-0.100000)"
fill="#000000" stroke="none">
<path d="M4955 18504 c-206 -9 -486 -26 -650 -40 -339 -28 -1041 -130 -1335
-194 -595 -130 -1017 -326 -1342 -622 -77 -72 -279 -416 -339 -578 -58 -159
-57 -304 3 -427 30 -61 32 -63 107 -94 417 -174 829 -210 1118 -99 42 16 101
46 130 65 53 35 53 35 53 88 -1 116 -62 182 -266 285 -157 80 -235 144 -212
175 7 9 50 36 95 61 81 43 84 44 310 74 1526 207 3242 141 4913 -189 676 -134
1179 -264 1640 -424 1853 -646 3176 -1243 4350 -1963 1084 -665 2041 -1484
2756 -2362 456 -559 839 -1155 1007 -1565 228 -559 308 -1213 221 -1815 -56
-389 -209 -802 -407 -1097 -217 -322 -756 -778 -1268 -1071 -778 -446 -1699
-712 -2789 -806 -354 -31 -618 -38 -1110 -33 -582 6 -998 31 -1615 97 -183 19
-193 21 -272 60 -103 51 -183 123 -212 190 -25 57 -27 89 -60 700 -27 488 -41
817 -50 1160 -11 393 -10 1313 1 1615 l9 250 52 52 c51 52 53 53 146 68 162
25 394 38 581 31 306 -12 533 -41 1100 -141 168 -30 363 -64 434 -75 71 -12
152 -30 180 -41 99 -37 269 -80 544 -135 329 -66 434 -91 572 -139 168 -59
297 -130 416 -231 l51 -43 -8 -60 c-23 -163 -88 -254 -377 -520 -136 -125
-200 -203 -239 -288 l-26 -56 29 -24 c52 -43 207 -112 309 -137 106 -27 262
-51 385 -61 143 -12 319 38 481 136 140 85 379 271 464 361 183 194 300 424
340 672 25 152 21 199 -30 353 -229 696 -777 1189 -1665 1498 -432 151 -867
252 -1596 370 -331 54 -349 55 -894 65 -511 9 -646 16 -810 46 -97 17 -258 64
-335 99 l-53 23 -25 108 c-50 212 -72 391 -112 929 -26 356 -52 581 -85 740
-85 414 -231 702 -479 944 -121 119 -156 136 -276 135 -74 0 -99 -4 -139 -24
-46 -22 -52 -29 -97 -124 -66 -140 -151 -401 -193 -597 -60 -283 -89 -507
-136 -1054 -38 -438 -63 -668 -95 -866 -25 -152 -91 -447 -104 -461 -3 -4
-424 -113 -934 -243 l-928 -236 -232 -98 c-128 -55 -335 -143 -462 -196 -597
-253 -901 -439 -1191 -729 -196 -196 -351 -414 -394 -553 -69 -224 -39 -457
91 -716 115 -229 426 -617 837 -1046 706 -735 1773 -1496 2876 -2049 169 -85
241 -153 310 -293 60 -121 88 -236 131 -533 19 -133 45 -285 59 -337 76 -301
220 -479 433 -534 78 -20 199 -19 383 5 85 11 202 23 260 26 93 6 110 10 152
36 113 71 183 178 302 460 67 161 113 238 141 238 11 0 117 -16 235 -34 542
-87 1133 -149 1680 -176 255 -13 1004 -13 1240 0 656 36 1234 113 1795 241
1278 292 2377 849 3144 1594 675 657 1107 1433 1286 2310 68 335 96 641 89
986 l-4 205 -44 160 c-365 1317 -1171 2618 -2366 3815 -542 543 -1068 990
-1680 1429 -860 615 -1617 1043 -2675 1510 -2454 1083 -4461 1623 -6505 1750
-166 10 -977 20 -1125 14z m3085 -8576 l38 -67 -13 -132 c-28 -263 -37 -584
-30 -1114 3 -286 8 -556 11 -600 6 -100 -12 -651 -26 -799 -17 -178 -63 -492
-74 -503 -1 -2 -53 2 -115 7 -302 27 -519 108 -1027 382 -138 75 -296 159
-351 187 -181 90 -666 407 -944 616 -377 283 -746 638 -975 940 -91 120 -99
137 -99 230 0 89 17 133 82 212 68 82 154 130 345 189 629 197 1310 362 1808
438 407 62 682 84 1059 82 l273 -1 38 -67z"/>
<path d="M21765 17263 c-881 -54 -1635 -384 -2341 -1025 -322 -292 -640 -640
-779 -853 -213 -325 -300 -699 -250 -1065 28 -209 102 -420 186 -535 67 -91
121 -200 152 -305 32 -106 41 -151 72 -367 49 -340 76 -432 166 -564 139 -203
243 -280 386 -287 65 -4 78 -1 119 23 67 39 156 132 254 264 l85 114 125 -7
c69 -4 242 -16 385 -28 197 -17 343 -22 605 -22 382 -1 497 11 737 74 145 38
210 64 428 173 971 484 1744 1093 2128 1677 225 343 367 789 367 1155 0 187
-110 424 -284 612 -114 123 -281 233 -354 233 -107 0 -270 54 -405 133 -76 45
-128 83 -398 288 -248 188 -373 245 -614 278 -260 36 -541 48 -770 34z m-1230
-1495 c-16 -131 -82 -301 -153 -397 -95 -129 -185 -208 -476 -420 -126 -91
-270 -205 -320 -253 l-92 -86 -47 5 -47 6 0 57 c0 234 210 570 500 799 226
179 261 200 454 273 100 37 183 68 184 68 2 0 1 -24 -3 -52z m2810 11 c50 -6
102 -17 117 -25 49 -25 97 -85 148 -186 l51 -99 -11 -92 c-25 -209 -139 -452
-304 -652 -125 -149 -319 -331 -396 -370 -19 -10 -61 -37 -93 -61 -70 -52
-101 -67 -397 -189 -538 -221 -854 -311 -1191 -337 -164 -13 -358 -2 -507 28
-98 20 -106 29 -105 122 1 105 57 196 251 407 35 39 85 99 110 134 47 65 125
144 392 392 219 203 296 271 449 393 384 308 764 492 1103 534 105 13 278 14
383 1z"/>
<path d="M32079 12710 c-87 -10 -182 -35 -246 -65 -141 -64 -228 -241 -203
-412 19 -135 135 -604 266 -1073 303 -1084 384 -1412 459 -1838 65 -372 105
-793 105 -1102 0 -155 -12 -204 -62 -257 -39 -42 -60 -31 -146 75 -242 299
-422 582 -767 1202 -436 786 -573 1002 -859 1360 -175 221 -558 585 -728 694
-71 45 -115 63 -189 76 -157 29 -319 -77 -417 -273 -50 -98 -164 -354 -220
-492 -344 -851 -541 -1848 -666 -3375 l-23 -275 33 -240 c19 -132 43 -289 54
-349 26 -135 88 -325 135 -414 78 -149 196 -273 325 -341 210 -112 438 -86
590 68 47 47 62 71 94 155 99 260 161 553 195 921 13 139 28 513 36 895 13
663 59 1129 124 1264 25 51 71 79 121 74 33 -3 39 -10 113 -131 94 -155 261
-455 502 -902 197 -366 253 -466 393 -699 306 -511 652 -938 989 -1221 113
-96 126 -104 195 -121 98 -24 238 -22 342 5 104 28 253 100 404 195 126 80
194 144 327 311 699 872 734 2312 103 4164 -39 114 -97 263 -129 333 -68 147
-95 214 -214 548 -172 483 -265 695 -387 876 -181 271 -398 392 -649 364z"/>
<path d="M41509 11840 c-130 -39 -394 -280 -621 -565 -878 -1107 -1306 -1846
-1492 -2575 -71 -277 -96 -482 -97 -768 0 -450 82 -823 283 -1274 l69 -156
-76 -204 c-350 -923 -624 -1827 -829 -2723 -77 -340 -170 -825 -266 -1390 -62
-365 -67 -696 -14 -940 39 -184 125 -375 228 -504 79 -101 233 -252 328 -324
231 -173 490 -242 699 -187 l36 10 52 262 c271 1363 643 2772 1093 4152 l101
309 103 138 103 137 73 6 c40 3 123 8 183 12 637 34 1102 164 1577 440 811
470 1501 1046 1815 1514 121 180 359 640 436 840 101 263 159 519 188 823 17
183 7 562 -21 740 -67 443 -211 825 -432 1144 -113 163 -389 390 -563 462
-126 53 -188 65 -320 65 -103 -1 -131 -5 -198 -28 -180 -61 -611 -342 -982
-640 -594 -478 -1186 -1097 -1982 -2070 -131 -161 -146 -176 -306 -298 l-167
-129 -25 28 c-24 26 -25 32 -19 103 9 113 49 329 88 480 131 504 361 973 863
1756 85 132 107 176 128 248 14 48 58 169 99 269 117 290 137 363 138 500 0
105 -14 171 -54 252 -45 91 -50 95 -127 94 -36 0 -78 -4 -92 -9z m2850 -1884
c37 -19 66 -61 130 -181 l53 -100 6 -160 c13 -396 -78 -766 -285 -1165 -185
-357 -436 -627 -828 -891 -125 -84 -179 -112 -486 -253 -331 -151 -470 -189
-675 -184 l-119 3 -3 58 c-2 32 2 84 9 115 18 88 109 253 244 442 69 96 146
211 172 255 25 44 67 110 93 146 26 36 150 216 275 400 445 653 617 877 889
1157 96 99 261 247 361 325 66 51 110 60 164 33z"/>
<path d="M25835 11764 c-841 -23 -1823 -197 -2610 -464 -690 -234 -1198 -734
-1289 -1271 -25 -146 -23 -392 4 -494 42 -156 140 -313 286 -458 78 -77 79
-78 189 -112 453 -139 762 -183 1730 -245 796 -51 911 -64 1543 -170 590 -100
785 -151 1002 -267 106 -57 186 -113 274 -195 79 -71 105 -121 106 -194 0
-154 -126 -416 -258 -536 -43 -39 -246 -153 -415 -233 -274 -130 -539 -193
-957 -227 -187 -15 -1002 -15 -1260 1 -250 15 -561 39 -660 51 -233 29 -394
95 -510 210 -80 79 -98 114 -107 204 -9 100 10 160 71 221 56 56 110 78 267
111 114 25 341 25 464 0 181 -35 276 -67 670 -224 442 -175 574 -211 817 -219
266 -9 641 50 863 136 186 72 319 184 393 331 l41 84 -27 50 c-40 75 -144 175
-229 219 -40 21 -167 69 -283 107 -115 39 -238 83 -272 99 -99 46 -602 152
-948 200 -392 55 -818 65 -1100 26 -376 -50 -688 -158 -935 -323 -247 -164
-363 -390 -420 -816 -21 -153 -19 -193 11 -266 145 -358 420 -676 810 -937
305 -205 803 -437 1104 -516 856 -223 1785 -173 2585 140 396 155 839 426
1061 648 192 192 314 454 361 773 38 262 11 783 -50 942 -33 89 -124 265 -184
358 -325 507 -832 801 -1613 937 -283 49 -574 77 -1115 110 -917 55 -1216 89
-1595 181 -108 27 -161 45 -210 74 -90 53 -113 80 -114 132 l-1 43 159 53
c294 98 655 182 1021 236 379 56 732 88 1525 136 1176 72 1535 117 1787 223
168 71 319 174 382 262 164 229 124 449 -98 533 -327 125 -747 227 -1156 281
-298 39 -782 63 -1110 55z"/>
<path d="M37490 11733 c-577 -25 -982 -78 -1895 -248 -393 -73 -677 -122 -845
-146 -70 -10 -110 -24 -231 -81 -161 -77 -179 -94 -179 -170 0 -41 21 -130 57
-243 20 -64 80 -152 136 -201 72 -63 144 -101 303 -159 282 -104 401 -180 458
-293 l23 -47 -76 -230 c-162 -485 -283 -645 -549 -727 -94 -29 -130 -49 -184
-105 -70 -72 -101 -141 -106 -238 -3 -70 0 -90 27 -162 84 -228 81 -466 -10
-731 -22 -62 -85 -216 -140 -340 -171 -387 -201 -501 -216 -832 -19 -420 5
-583 115 -793 85 -162 201 -287 479 -519 161 -134 231 -179 368 -234 433 -175
949 -124 1678 166 316 125 451 186 558 253 58 36 211 120 340 187 367 192 509
279 652 403 155 135 280 351 302 522 6 45 1 63 -44 174 -62 154 -102 221 -166
278 -79 71 -124 89 -276 108 -107 14 -181 16 -369 12 -311 -7 -378 -17 -995
-148 -366 -78 -625 -124 -757 -135 l-87 -7 -67 44 -67 43 6 151 c3 82 12 191
21 240 37 200 131 418 251 577 l63 83 78 13 c54 9 278 16 694 22 338 4 658 13
710 19 242 28 406 69 575 143 90 40 99 46 120 88 57 114 86 242 86 380 -1 113
-15 187 -57 286 -25 61 -26 62 -104 98 -43 19 -118 47 -166 61 -182 53 -238
57 -829 64 l-551 6 -63 55 c-34 30 -66 61 -70 70 -11 22 4 204 24 285 35 143
116 272 212 337 51 36 99 40 923 73 586 24 946 62 1285 135 233 51 365 130
435 262 28 53 34 74 34 130 1 63 -3 74 -67 200 -138 274 -344 505 -591 667
-138 90 -167 99 -359 121 -271 30 -645 44 -897 33z"/>
<path d="M20535 11601 c-91 -24 -187 -87 -228 -150 -77 -116 -233 -952 -296
-1586 -65 -655 -81 -1021 -88 -2110 -5 -769 -4 -881 10 -965 9 -52 23 -167 32
-255 43 -451 71 -595 143 -747 40 -86 106 -180 164 -235 24 -23 63 -41 145
-66 165 -52 271 -71 403 -70 129 0 208 17 302 64 77 39 120 79 206 191 l70 93
11 160 c34 511 40 1552 11 2125 -26 535 -146 2378 -175 2700 -12 135 -117 391
-229 560 -75 112 -206 242 -274 272 -51 23 -158 32 -207 19z"/>
</g>
</svg>
