<?xml version="1.0" encoding="UTF-8"?>
<svg version="1.1" xmlns="http://www.w3.org/2000/svg" width="980" height="976">
<path d="M0 0 C0.69109863 0.09945923 1.38219727 0.19891846 2.09423828 0.3013916 C33.7822673 4.86670558 64.59840294 11.85458739 95 22 C96.07588379 22.35819824 97.15176758 22.71639648 98.26025391 23.08544922 C155.94428935 42.52700675 210.1823381 73.92644026 256 114 C256.72960937 114.63035156 257.45921875 115.26070313 258.2109375 115.91015625 C260.15207786 117.59426815 262.07631129 119.29599179 264 121 C264.68594238 121.60110596 265.37188477 122.20221191 266.07861328 122.8215332 C272.93589851 128.89776507 279.44030388 135.28675678 285.90551758 141.77514648 C287.6917467 143.5667595 289.48329347 145.35293055 291.27539062 147.13867188 C297.06326732 152.92293673 302.72714545 158.73532252 308 165 C308.845625 165.96421875 309.69125 166.9284375 310.5625 167.921875 C318.87899491 177.57114153 326.45285684 187.74357061 334 198 C334.46792969 198.63019043 334.93585937 199.26038086 335.41796875 199.90966797 C389.98184047 273.46596426 421.52126458 364.77659737 427.203125 469.70703125 C427.21018463 470.97847488 427.21724426 472.24991852 427.22451782 473.55989075 C427.24405384 477.64409966 427.24921009 481.72824874 427.25 485.8125 C427.25044186 486.85684834 427.25044186 486.85684834 427.25089264 487.92229462 C427.25231729 508.75882035 427.05623027 529.34409885 424 550 C423.84727631 551.05078735 423.84727631 551.05078735 423.69146729 552.12280273 C416.72994581 599.87907482 404.15657105 646.05266697 384 690 C383.54254395 690.99999023 383.08508789 691.99998047 382.61376953 693.03027344 C372.36403001 715.27498791 360.72555851 736.70407409 347 757 C346.56123535 757.65726074 346.1224707 758.31452148 345.67041016 758.99169922 C335.91987852 773.59437429 325.29939411 787.56027698 314 801 C313.56397461 801.52094238 313.12794922 802.04188477 312.67871094 802.57861328 C302.20102527 815.06955821 291.12368442 826.94476467 279.625 838.5 C278.98336914 839.14630371 278.34173828 839.79260742 277.68066406 840.45849609 C273.84770274 844.27859513 269.89509972 847.90490647 265.79931641 851.44140625 C263.6157047 853.33288212 261.49708525 855.28996489 259.375 857.25 C253.72266163 862.34835728 247.76543138 867.00842754 241.74072266 871.65332031 C240.12579789 872.90267866 238.52141307 874.16562873 236.91796875 875.4296875 C214.73641125 892.79907142 190.89881817 907.83926595 166 921 C165.08009277 921.48791016 164.16018555 921.97582031 163.21240234 922.47851562 C115.62641504 947.50654759 64.05294862 963.68267321 11 972 C9.75863281 972.20625 8.51726563 972.4125 7.23828125 972.625 C3.51498441 973.05616586 -0.25182132 973 -4 973 C-4 846.28 -4 719.56 -4 589 C34.94 589 73.88 589 114 589 C114.33 585.04 114.66 581.08 115 577 C115.22423614 574.94772393 115.46235398 572.89679603 115.72767639 570.84942627 C115.86339837 569.79172657 115.99912035 568.73402687 116.13895512 567.64427567 C116.28525081 566.52577602 116.4315465 565.40727638 116.58227539 564.25488281 C116.7409909 563.02432537 116.8997064 561.79376793 117.06323147 560.52592087 C117.4022901 557.9003118 117.7422865 555.2748478 118.08409119 552.64959717 C118.57407392 548.88434255 119.06135735 545.11874986 119.54772949 541.35302734 C120.71636323 532.31830199 121.88971166 523.28418699 123.0625 514.25 C125.681875 494.0375 128.30125 473.825 131 453 C86.45 453 41.9 453 -4 453 C-4.04125 436.62375 -4.0825 420.2475 -4.125 403.375 C-4.14320801 398.2295459 -4.16141602 393.0840918 -4.18017578 387.78271484 C-4.18920898 381.43481445 -4.18920898 381.43481445 -4.19088745 378.45059204 C-4.1939319 376.39369844 -4.20090969 374.3368081 -4.21115112 372.27993774 C-4.31181488 350.97304509 -4.02585144 329.91947743 10.7734375 312.96875 C22.94221133 301.26208151 41.47634071 297.81220082 57.78100586 297.88647461 C58.64420976 297.88635407 59.50741365 297.88623354 60.39677525 297.88610935 C63.16949167 297.88685112 65.94213947 297.89444561 68.71484375 297.90234375 C70.43526172 297.90381545 72.15568013 297.90483476 73.87609863 297.90539551 C80.22990595 297.91062196 86.58370366 297.92458322 92.9375 297.9375 C114.2534375 297.9684375 114.2534375 297.9684375 136 298 C136 257.74 136 217.48 136 176 C130.06 175.67 124.12 175.34 118 175 C110.5234375 174.5 110.5234375 174.5 106.97705078 174.25146484 C100.65294088 173.80996876 94.3267217 173.40210752 88 173 C86.55270508 172.9067041 86.55270508 172.9067041 85.07617188 172.81152344 C54.31204467 170.92130664 21.37831602 169.13269758 -9 175 C-9.90024902 175.17160645 -10.80049805 175.34321289 -11.72802734 175.52001953 C-51.51227971 183.41758533 -89.05231906 204.17212854 -112.41015625 238.03515625 C-133.2670094 269.4421075 -143.0081897 306.72074331 -143.20532227 344.24267578 C-143.21522186 345.42431808 -143.22512146 346.60596039 -143.23532104 347.82341003 C-143.26670222 351.69735771 -143.2916003 355.57131762 -143.31640625 359.4453125 C-143.33648352 362.14387736 -143.35794781 364.84243071 -143.37937927 367.54098511 C-143.42907519 373.89779475 -143.47409862 380.25462836 -143.51740164 386.61148441 C-143.57184494 394.5665424 -143.63259956 402.52155067 -143.69335938 410.4765625 C-143.80159514 424.65100328 -143.90035867 438.82549042 -144 453 C-182.94 453 -221.88 453 -262 453 C-262 497.88 -262 542.76 -262 589 C-223.06 589 -184.12 589 -144 589 C-144 714.73 -144 840.46 -144 970 C-228.83993871 961.51600613 -313.57233065 917.15256691 -378 863 C-378.515625 862.56929199 -379.03125 862.13858398 -379.5625 861.69482422 C-396.36166367 847.63443929 -413.20540902 832.65214745 -427.37890625 815.8984375 C-429.2809365 813.67099967 -431.2660772 811.52977029 -433.25 809.375 C-438.27350115 803.80086213 -442.86234077 797.934278 -447.44628906 791.99951172 C-449.10465796 789.86531291 -450.78126398 787.74637195 -452.4609375 785.62890625 C-459.29429045 776.98647825 -465.80235299 768.25657149 -471.73730469 758.97216797 C-473.07608943 756.88115808 -474.43248163 754.80215805 -475.7890625 752.72265625 C-522.76214915 680.15566131 -552.88666976 592.03858014 -553.203125 505.07421875 C-553.21018463 503.78053375 -553.21724426 502.48684875 -553.22451782 501.15396118 C-553.24405551 496.9984684 -553.24921 492.84303441 -553.25 488.6875 C-553.25029457 487.97939053 -553.25058914 487.27128105 -553.25089264 486.54171371 C-553.25230388 465.55318584 -553.08232643 444.80982419 -550 424 C-549.90054077 423.30996887 -549.80108154 422.61993774 -549.6986084 421.90899658 C-545.13069606 390.21965479 -538.14606092 359.4035398 -528 329 C-527.64180176 327.92411621 -527.28360352 326.84823242 -526.91455078 325.73974609 C-507.47299325 268.05571065 -476.07355974 213.8176619 -436 168 C-435.36964844 167.27039063 -434.73929687 166.54078125 -434.08984375 165.7890625 C-432.40573185 163.84792214 -430.70400821 161.92368871 -429 160 C-428.09834106 158.97108643 -428.09834106 158.97108643 -427.1784668 157.92138672 C-421.10223493 151.06410149 -414.71324322 144.55969612 -408.22485352 138.09448242 C-406.4332405 136.3082533 -404.64706945 134.51670653 -402.86132812 132.72460938 C-397.07706327 126.93673268 -391.26467748 121.27285455 -385 116 C-384.03578125 115.154375 -383.0715625 114.30875 -382.078125 113.4375 C-309.64476342 51.00874638 -220.16535778 13.55177596 -126 0 C-124.16115234 -0.27118652 -124.16115234 -0.27118652 -122.28515625 -0.54785156 C-83.00138012 -6.05502531 -39.2202939 -5.78406543 0 0 Z " fill="#010101" transform="translate(553,3)"/>
<path d="M0 0 C0.66 0.33 1.32 0.66 2 1 C-1.96 4.96 -5.92 8.92 -10 13 C-10 8.41771462 -7.08388033 6.1816619 -4 3 C-1.625 1.0625 -1.625 1.0625 0 0 Z " fill="#6F6F6F" transform="translate(570,311)"/>
</svg>
