<?xml version="1.0" encoding="UTF-8"?>
<svg version="1.1" xmlns="http://www.w3.org/2000/svg" width="1366" height="768">
<path d="M0 0 C0.80211914 -0.00983917 1.60423828 -0.01967834 2.43066406 -0.02981567 C53.07261665 -0.51960541 100.65638212 9.71021363 146.2421875 32.23828125 C147.01949219 32.61807129 147.79679687 32.99786133 148.59765625 33.38916016 C171.80921941 44.82547679 192.8081582 60.25608832 212.2421875 77.23828125 C213.07878906 77.96273437 213.91539062 78.6871875 214.77734375 79.43359375 C224.94414592 88.39360476 234.70810326 97.89803057 243.109375 108.546875 C245.37461039 111.40538632 247.74125537 114.1588258 250.1171875 116.92578125 C259.25389647 127.87848206 267.03158447 139.95096738 274.2421875 152.23828125 C274.62197754 152.8842627 275.00176758 153.53024414 275.39306641 154.19580078 C293.26513343 184.82231918 305.39236612 218.11736225 311.9921875 252.92578125 C312.29044434 254.49078369 312.29044434 254.49078369 312.59472656 256.08740234 C315.81870928 273.99626689 316.61845963 291.69419105 316.5546875 309.86328125 C316.55253235 310.96900482 316.5503772 312.07472839 316.54815674 313.21395874 C316.49847261 329.09292078 316.16745327 344.58955491 313.2421875 360.23828125 C313.04351074 361.35750977 312.84483398 362.47673828 312.64013672 363.62988281 C302.50470269 419.85686737 278.17336279 473.77881194 239.265625 516.03125 C237.49769887 517.95958642 235.80372704 519.92676103 234.1171875 521.92578125 C225.0550359 532.29456866 215.08514408 541.76536982 204.2421875 550.23828125 C203.07861506 551.1888242 201.91729166 552.14212456 200.7578125 553.09765625 C192.26785079 560.06263534 183.5265739 566.37640353 174.2421875 572.23828125 C173.66597656 572.6048584 173.08976562 572.97143555 172.49609375 573.34912109 C119.28889714 606.9655727 59.76438088 621.69685193 -2.7578125 620.23828125 C-2.10791804 616.57175435 -1.1256301 613.20247651 0.13378906 609.70019531 C0.52722504 608.60101273 0.92066101 607.50183014 1.32601929 606.36933899 C1.75726105 605.17624619 2.18850281 603.98315338 2.6328125 602.75390625 C3.08958059 601.48289519 3.54608671 600.21178995 4.00234985 598.94059753 C5.23663685 595.50516489 6.47572355 592.07148176 7.71596527 588.63819504 C8.49483436 586.48095021 9.27233193 584.32321602 10.04937744 582.16531372 C18.1631964 559.63453558 26.39443804 537.14864427 34.70117188 514.68823242 C41.27911725 496.89679626 47.75836774 479.07112708 54.17919922 461.22241211 C54.51597687 460.28738861 54.85275452 459.35236511 55.19973755 458.38900757 C55.82529973 456.65173078 56.44977565 454.91406231 57.07296753 453.17593384 C59.13044074 447.46177477 59.13044074 447.46177477 60.2421875 445.23828125 C61.39539993 445.23463562 62.54861237 445.23098999 63.73677063 445.22723389 C74.63817423 445.19019162 85.53929776 445.13231827 96.44048786 445.05437851 C102.04407688 445.01497536 107.64751044 444.98275172 113.2512207 444.96728516 C118.66549641 444.95207147 124.07934451 444.91754223 129.49342918 444.86997223 C131.55249489 444.85520697 133.61162166 444.84724304 135.67074013 444.8463974 C151.76349515 444.83314915 163.74367331 443.37259165 176.2421875 432.23828125 C180.72197524 427.48281426 182.96721001 421.69595968 185.28125 415.671875 C185.72958694 414.51106163 185.72958694 414.51106163 186.1869812 413.32679749 C190.2804103 402.63735178 194.11015939 391.85007462 197.9699707 381.07470703 C200.39981872 374.29199194 202.8395713 367.51283882 205.28125 360.734375 C205.53059044 360.04207668 205.77993088 359.34977837 206.03682709 358.63650131 C211.19887339 344.30999784 216.45963148 330.02078942 221.7421875 315.73828125 C229.14910963 295.69842425 236.48641521 275.6345566 243.74923706 255.54208374 C244.48744728 253.50138504 245.22703742 251.46119158 245.96704102 249.42114258 C247.33916177 245.63779719 248.70515333 241.85226926 250.0703125 238.06640625 C250.68431915 236.37532745 250.68431915 236.37532745 251.31072998 234.65008545 C251.68417542 233.61087952 252.05762085 232.57167358 252.44238281 231.50097656 C252.76764954 230.60034485 253.09291626 229.69971313 253.42803955 228.77178955 C256.61574982 218.85210549 256.84688142 206.41226716 252.68359375 196.765625 C247.44908908 187.58750977 240.18235828 181.73684314 230.2421875 178.23828125 C222.65760717 176.24285089 215.34969862 175.96207072 207.54052734 176.01123047 C206.31011719 176.01093842 205.07970703 176.01064636 203.81201172 176.01034546 C200.46963594 176.01149228 197.12751349 176.02145694 193.78518248 176.03549337 C190.28051228 176.04807647 186.77583798 176.04917716 183.27114868 176.05154419 C176.64866381 176.05773685 170.02624571 176.07411738 163.40379012 176.09424317 C155.85836659 176.11667149 148.31293972 176.12761296 140.7674911 176.13763404 C125.25901802 176.15848581 109.75061141 176.19361827 94.2421875 176.23828125 C93.96694213 177.00686588 93.69169676 177.77545052 93.40811062 178.56732559 C82.54672824 208.89485115 71.67106774 239.2134761 60.4921875 269.42578125 C53.81489184 287.47618734 47.21868735 305.55231619 40.7421875 323.67578125 C40.35671753 324.75442444 39.97124756 325.83306763 39.57409668 326.94439697 C39.18838501 328.02380554 38.80267334 329.10321411 38.40527344 330.21533203 C37.62177882 332.40788976 36.83825004 334.60043529 36.0546875 336.79296875 C35.6646051 337.88453278 35.27452271 338.9760968 34.87261963 340.10073853 C30.1954927 353.17934463 25.47204599 366.24116875 20.7421875 379.30078125 C20.30262726 380.51447388 19.86306702 381.7281665 19.41018677 382.9786377 C12.41764011 402.27990861 5.38371077 421.56590474 -1.66845703 440.84545898 C-7.3381112 456.34600369 -12.99236467 471.85208416 -18.6328125 487.36328125 C-19.04357025 488.49276184 -19.454328 489.62224243 -19.87753296 490.78594971 C-25.1193369 505.20196952 -30.34780601 519.6227797 -35.56291199 534.04847717 C-37.8008663 540.23864148 -40.04087422 546.4280476 -42.28637695 552.61547852 C-43.14795182 554.98974515 -44.00952412 557.36401272 -44.87109375 559.73828125 C-45.28813065 560.88727402 -45.70516754 562.03626678 -46.13484192 563.22007751 C-48.45346225 569.61544128 -50.75267643 576.0172083 -53.0289917 582.42774963 C-54.32016611 586.05822804 -55.62303807 589.68443207 -56.92852783 593.30978394 C-57.51680547 594.9530035 -58.09941616 596.59826436 -58.67596436 598.24563599 C-59.45070793 600.45823941 -60.24425312 602.66314788 -61.04296875 604.8671875 C-61.47488525 606.0847876 -61.90680176 607.3023877 -62.35180664 608.55688477 C-63.7578125 611.23828125 -63.7578125 611.23828125 -65.62329102 612.20849609 C-68.17669785 612.24412638 -70.17119291 611.80531826 -72.625 611.0859375 C-73.58108154 610.8087085 -74.53716309 610.53147949 -75.5222168 610.24584961 C-76.54871338 609.93397705 -77.57520996 609.62210449 -78.6328125 609.30078125 C-80.24313354 608.81653687 -80.24313354 608.81653687 -81.88598633 608.32250977 C-125.3981965 595.03821889 -164.80621232 573.69317022 -198.7578125 543.23828125 C-199.5319751 542.54871338 -199.5319751 542.54871338 -200.32177734 541.84521484 C-210.74981721 532.53363918 -220.85366503 522.97017401 -229.5546875 512 C-231.84930077 509.12359649 -234.23646189 506.34275578 -236.6328125 503.55078125 C-270.40566781 463.06530874 -290.91620125 411.77698794 -299.7578125 360.23828125 C-299.92297363 359.33851563 -300.08813477 358.43875 -300.25830078 357.51171875 C-305.76416362 326.6287818 -305.51925439 291.05914829 -299.7578125 260.23828125 C-299.55913574 259.11905273 -299.36045898 257.99982422 -299.15576172 256.84667969 C-289.02033582 200.61974019 -264.68942677 146.70376916 -225.78515625 104.44921875 C-223.9963791 102.49845214 -222.27938131 100.5084773 -220.5703125 98.48828125 C-212.61168901 89.38479777 -203.93272349 80.8493705 -194.4375 73.36328125 C-191.64093061 71.14559357 -188.95802597 68.82198375 -186.2578125 66.48828125 C-159.97481896 44.56874189 -111.95211956 11.23828125 -76.7578125 11.23828125 C-77.34697357 15.32282523 -78.25096814 19.01004884 -79.64941406 22.88989258 C-80.04288025 23.98908524 -80.43634644 25.08827789 -80.84173584 26.22077942 C-81.27294739 27.40862534 -81.70415894 28.59647125 -82.1484375 29.8203125 C-82.605073 31.0890649 -83.06130075 32.35796411 -83.51715088 33.6269989 C-84.74993016 37.0543364 -85.9894242 40.47920984 -87.2303772 43.90359497 C-88.27627348 46.7922394 -89.31825903 49.68228855 -90.36039734 52.57229042 C-97.66340423 72.82043461 -105.07439361 93.02782491 -112.54431152 113.21499634 C-119.56186533 132.1830704 -126.44014046 151.19776625 -133.2578125 170.23828125 C-140.49210919 190.44235293 -147.80903812 210.61196635 -155.2578125 230.73828125 C-162.72159288 250.90811426 -170.06374277 271.1182428 -177.3203125 291.36328125 C-177.56148552 292.03609383 -177.80265854 292.7089064 -178.05113983 293.40210724 C-178.53750053 294.75894527 -179.02385536 296.1157854 -179.51020432 297.47262764 C-180.71626772 300.83728168 -181.92250037 304.20187499 -183.12890625 307.56640625 C-183.36609375 308.22794582 -183.60328125 308.8894854 -183.84765625 309.57107162 C-188.81879255 323.43324642 -193.8424138 337.27614253 -198.8828125 351.11328125 C-199.28282471 352.21143158 -199.68283691 353.30958191 -200.0949707 354.44100952 C-200.69281372 356.08222275 -200.69281372 356.08222275 -201.30273438 357.7565918 C-202.11200579 359.97834317 -202.92125049 362.20010427 -203.73046875 364.421875 C-204.13230377 365.52508591 -204.53413879 366.62829681 -204.94815063 367.76493835 C-208.16389516 376.59761565 -211.36740315 385.43468693 -214.56640625 394.2734375 C-214.80832199 394.94182144 -215.05023773 395.61020538 -215.29948425 396.29884338 C-217.43463339 402.19834016 -219.56914656 408.09806682 -221.70245361 413.99822998 C-222.58166099 416.42982596 -223.46103385 418.8613621 -224.34059143 421.29283142 C-225.13635886 423.49268586 -225.93174646 425.69267775 -226.72666931 427.89283752 C-227.08314041 428.87815964 -227.43961151 429.86348175 -227.80688477 430.87866211 C-228.11296158 431.72536972 -228.41903839 432.57207733 -228.73439026 433.44444275 C-230.05512998 437.0499277 -231.40957735 440.64298751 -232.7578125 444.23828125 C-211.9678125 444.23828125 -191.1778125 444.23828125 -169.7578125 444.23828125 C-158.79957891 414.61326354 -147.90506149 384.97555318 -137.2578125 355.23828125 C-129.49945009 333.57025175 -121.63706159 311.9453086 -113.64904785 290.3605957 C-106.36797871 270.68476023 -99.22280579 250.96279924 -92.17651367 231.20166016 C-91.81677963 230.19595978 -91.45704559 229.1902594 -91.08641052 228.15408325 C-90.41500213 226.27692012 -89.74590323 224.39892881 -89.07948303 222.51998901 C-88.78609543 221.70063873 -88.49270782 220.88128845 -88.19042969 220.03710938 C-87.93622253 219.32300903 -87.68201538 218.60890869 -87.42010498 217.87316895 C-86.7578125 216.23828125 -86.7578125 216.23828125 -85.7578125 215.23828125 C-84.19234202 215.14501409 -82.62268478 215.12082543 -81.05444336 215.12475586 C-80.05348129 215.12483139 -79.05251923 215.12490692 -78.02122498 215.12498474 C-76.9326973 215.13014603 -75.84416962 215.13530731 -74.72265625 215.140625 C-73.0600753 215.14274742 -73.0600753 215.14274742 -71.36390686 215.14491272 C-67.80768181 215.15053092 -64.25151867 215.1630865 -60.6953125 215.17578125 C-58.29101653 215.18079391 -55.88671958 215.18535722 -53.48242188 215.18945312 C-47.57419746 215.20050626 -41.6660094 215.21726208 -35.7578125 215.23828125 C-37.13776354 222.23042187 -39.22631525 228.67427001 -41.73828125 235.3359375 C-42.13868118 236.4133873 -42.53908112 237.4908371 -42.95161438 238.60093689 C-43.8209856 240.93951859 -44.69283709 243.27717943 -45.56689453 245.61401367 C-47.96058317 252.01626165 -50.33379284 258.42608653 -52.70703125 264.8359375 C-53.07872499 265.83904402 -53.07872499 265.83904402 -53.4579277 266.86241531 C-58.92256345 281.61476665 -64.2408961 296.41839331 -69.53967667 311.23096085 C-77.59625906 333.75057546 -85.7690691 356.22236088 -94.06771851 378.65402222 C-102.1323024 400.4578585 -109.98350597 422.32887194 -117.7578125 444.23828125 C-96.9678125 444.23828125 -76.1778125 444.23828125 -54.7578125 444.23828125 C-51.6228125 435.57578125 -48.4878125 426.91328125 -45.2578125 417.98828125 C-38.7704846 400.06698785 -32.27695653 382.1480293 -25.7578125 364.23828125 C-19.2116158 346.25393502 -12.69252905 328.25984307 -6.18270874 310.26229858 C-1.38750822 297.00514846 3.41496435 283.75077719 8.24638748 270.50678825 C8.95073215 268.57586242 9.65478241 266.6448295 10.35873413 264.71376038 C12.5771214 258.62868281 14.79771675 252.54442667 17.02246094 246.46166992 C17.81847156 244.27917503 18.61437588 242.09664136 19.41015625 239.9140625 C19.95082985 238.4400145 19.95082985 238.4400145 20.50242615 236.93618774 C25.18546165 224.07062784 28.96509851 210.94798087 23.1328125 197.72265625 C21.93088112 195.48201874 20.64113492 193.36037687 19.2421875 191.23828125 C18.406875 189.90796875 18.406875 189.90796875 17.5546875 188.55078125 C8.98396146 179.98005521 -3.13539448 176.20234831 -15.0168457 176.03295898 C-16.25775467 176.01301376 -17.49866364 175.99306854 -18.7771759 175.97251892 C-20.12098061 175.95553868 -21.46478659 175.93865973 -22.80859375 175.921875 C-24.19150893 175.90128599 -25.5744181 175.88028902 -26.95732117 175.85890198 C-30.58549099 175.80388226 -34.21371571 175.75438495 -37.84197998 175.70605469 C-41.5489995 175.65569227 -45.25593996 175.60008338 -48.96289062 175.54492188 C-56.2277975 175.43758641 -63.49277042 175.33608752 -70.7578125 175.23828125 C-70.19743629 171.41880099 -69.43297732 167.95455552 -68.08154297 164.34033203 C-67.73451324 163.40364685 -67.38748352 162.46696167 -67.02993774 161.50189209 C-66.64880829 160.48935364 -66.26767883 159.47681519 -65.875 158.43359375 C-65.47300385 157.35144592 -65.07100769 156.2692981 -64.65682983 155.15435791 C-63.7810656 152.79747683 -62.90305264 150.4414304 -62.02307129 148.08612061 C-59.62226986 141.65724699 -57.24067109 135.22127515 -54.859375 128.78515625 C-54.61057083 128.1131506 -54.36176666 127.44114494 -54.10542297 126.74877548 C-48.55242183 111.745739 -43.12968323 96.69677977 -37.73304749 81.6369133 C-36.76792924 78.94393205 -35.80207535 76.25121489 -34.83624268 73.5584898 C-33.17812556 68.93562262 -31.52040007 64.31261519 -29.86340332 59.68934631 C-25.58750087 47.75913846 -21.30451891 35.83150017 -17.00378418 23.91021729 C-16.2618919 21.85230036 -15.52107163 19.79399662 -14.78137207 17.73529053 C-13.77873262 14.94497387 -12.77266293 12.15591914 -11.765625 9.3671875 C-11.32523392 8.13792793 -11.32523392 8.13792793 -10.87594604 6.88383484 C-8.32212955 -0.16538648 -7.17592804 0.0705488 0 0 Z " fill="#1D1D1B" transform="translate(610.7578125,73.76171875)"/>
<path d="M0 0 C0.88602402 0.00222061 1.77204803 0.00444122 2.68492126 0.00672913 C3.68588333 0.00680466 4.6868454 0.00688019 5.71813965 0.00695801 C6.80666733 0.01211929 7.89519501 0.01728058 9.01670837 0.02259827 C10.67928932 0.02472069 10.67928932 0.02472069 12.37545776 0.02688599 C15.93168281 0.03250418 19.48784596 0.04505977 23.04405212 0.05775452 C25.44834809 0.06276717 27.85264504 0.06733048 30.25694275 0.07142639 C36.16516716 0.08247952 42.07335522 0.09923535 47.98155212 0.12025452 C47.32307947 6.103219 45.1665136 11.43761441 43.06358337 17.03041077 C42.65903427 18.12030807 42.25448517 19.21020538 41.837677 20.33312988 C40.9575846 22.70325881 40.07519195 25.07253457 39.19078064 27.4410553 C37.0321344 33.22385764 34.88815294 39.01207315 32.74543381 44.80079269 C32.24663501 46.14830126 31.74766321 47.4957458 31.24852371 48.8431282 C25.96553454 63.10699391 20.80197248 77.41275877 15.661026 91.72831345 C7.09279608 115.58586947 -1.60323482 139.39355611 -10.40711975 163.16517639 C-10.82975601 164.30766846 -11.25239227 165.45016052 -11.68783569 166.62727356 C-12.47000397 168.7410956 -13.25341739 170.85445755 -14.03839111 172.96723938 C-14.38847733 173.91331055 -14.73856354 174.85938171 -15.09925842 175.8341217 C-15.39930283 176.64274658 -15.69934723 177.45137146 -16.00848389 178.28450012 C-17.40606031 182.20858408 -18.70119107 186.16848411 -20.01844788 190.12025452 C-36.84844788 190.12025452 -53.67844788 190.12025452 -71.01844788 190.12025452 C-67.6426857 178.86771394 -67.6426857 178.86771394 -65.89979553 174.01454163 C-65.50652573 172.91577698 -65.11325592 171.81701233 -64.70806885 170.68495178 C-64.28713455 169.51762512 -63.86620026 168.35029846 -63.43251038 167.14759827 C-62.97854481 165.88333791 -62.52475844 164.6190132 -62.07113647 163.35462952 C-60.85245465 159.96048909 -59.63008972 156.5676865 -58.40673447 153.17522812 C-57.63849069 151.04400253 -56.87129989 148.91240066 -56.10441589 146.78068542 C-47.95690361 124.13618747 -39.68138546 101.54105365 -31.33485413 78.96913147 C-25.65154816 63.59382058 -20.04478805 48.19354556 -14.54164124 32.75282288 C-11.78859254 25.02908468 -9.01303764 17.31388253 -6.19813538 9.61244202 C-5.89626312 8.78060394 -5.59439087 7.94876587 -5.28337097 7.09172058 C-2.74047539 0.16327127 -2.74047539 0.16327127 0 0 Z " fill="#1D1D1B" transform="translate(757.0184478759766,288.87974548339844)"/>
</svg>
