<?xml version="1.0" encoding="UTF-8"?>
<svg version="1.1" xmlns="http://www.w3.org/2000/svg" width="512" height="512">
<path d="M0 0 C0.98226563 0.77988281 1.96453125 1.55976562 2.9765625 2.36328125 C18.64397598 15.04268112 32.3761623 29.55367738 44 46 C44.4424707 46.61375488 44.88494141 47.22750977 45.34082031 47.85986328 C64.53598833 74.60687178 76.77201758 106.55881107 82 139 C82.20496094 140.21816406 82.40992188 141.43632812 82.62109375 142.69140625 C86.09669115 166.12057906 85.37385615 191.77465163 81 215 C80.83371094 215.89895996 80.66742188 216.79791992 80.49609375 217.72412109 C73.22856922 255.71039516 56.25325283 290.77499144 31 320 C30.20851563 320.92167969 29.41703125 321.84335937 28.6015625 322.79296875 C12.24128671 341.36808332 -6.58720371 356.58643131 -28 369 C-28.59522461 369.34885254 -29.19044922 369.69770508 -29.80371094 370.05712891 C-80.08313424 399.20139639 -141.64667691 404.85489882 -197.39550781 390.37792969 C-201.99612612 389.09917678 -206.49865862 387.59601701 -211 386 C-211.64163086 385.77731445 -212.28326172 385.55462891 -212.94433594 385.32519531 C-244.62133453 374.27797839 -272.02851551 356.33546157 -296 333 C-296.86496094 332.175 -297.72992188 331.35 -298.62109375 330.5 C-314.40257639 315.18348305 -326.98863752 296.48608777 -337 277 C-337.34869141 276.33774414 -337.69738281 275.67548828 -338.05664062 274.99316406 C-347.7502278 256.44931325 -354.54602621 235.63294868 -358 215 C-358.14663086 214.15066895 -358.29326172 213.30133789 -358.44433594 212.42626953 C-368.34993578 152.76899562 -353.60351007 93.11662153 -319.1015625 43.828125 C-311.89798561 33.78185928 -303.65175307 24.80918778 -295 16 C-294.39623535 15.38302246 -293.7924707 14.76604492 -293.17041016 14.13037109 C-288.09311448 8.98996934 -282.69091165 4.45313837 -277 0 C-276.4534375 -0.42829102 -275.906875 -0.85658203 -275.34375 -1.29785156 C-198.69837782 -60.82866052 -92.02496437 -62.09495724 0 0 Z M-224 66 C-224.84949219 66.41894531 -225.69898438 66.83789062 -226.57421875 67.26953125 C-241.93884152 75.63927081 -251.52869945 89.93697882 -256.54248047 106.35620117 C-258.84904805 114.43536051 -259.1522899 122.04573961 -259.16113281 130.38867188 C-259.16609772 131.516521 -259.17106262 132.64437012 -259.17617798 133.80639648 C-259.19074738 137.52718728 -259.19759409 141.2479354 -259.203125 144.96875 C-259.20888218 147.56840007 -259.21463983 150.16805013 -259.22039795 152.7677002 C-259.22955467 157.52263564 -259.23585998 162.2775542 -259.2388947 167.03249693 C-259.24336269 173.99172487 -259.26085904 180.95075516 -259.2898953 187.90992308 C-259.31428871 193.97060467 -259.32184739 200.03120597 -259.32357025 206.0919342 C-259.32657908 208.65292942 -259.33454708 211.21392416 -259.34775543 213.77488708 C-259.46648978 238.57279236 -257.61985256 259.79651301 -239.75 278.6875 C-225.57582431 292.26310408 -208.0079291 297.3064805 -188.81176758 297.29052734 C-187.63471252 297.29724457 -186.45765747 297.30396179 -185.24493408 297.31088257 C-181.37808943 297.32978156 -177.51141913 297.33378282 -173.64453125 297.3359375 C-172.30199293 297.33878887 -170.95945528 297.34198169 -169.61691856 297.34550858 C-162.58403192 297.36396266 -155.5512206 297.37218525 -148.51831055 297.37060547 C-142.00401057 297.36940618 -135.49004302 297.39047841 -128.97582704 297.4220928 C-123.34909501 297.44840874 -117.72247051 297.45896637 -112.09567755 297.45769465 C-108.75006718 297.45718936 -105.40498602 297.46452428 -102.05939674 297.48405075 C-79.1313236 297.60533582 -57.54076184 295.72491245 -40 279 C-21.42040737 259.58223026 -20.37880136 236.43276555 -20.46875 211.09375 C-20.46785485 208.39725157 -20.46216668 205.70076592 -20.45715332 203.00427246 C-20.44992152 197.37630221 -20.45934582 191.74854344 -20.47851562 186.12060547 C-20.50027593 179.65842595 -20.49322135 173.19675164 -20.47121 166.73458433 C-20.45292714 161.13826096 -20.45055988 155.54208769 -20.46096468 149.94574404 C-20.46712972 146.62427189 -20.46660937 143.30322184 -20.45481873 139.98173523 C-20.39081283 116.88923658 -22.00911055 95.65081283 -38.74047852 78.0612793 C-53.95337963 62.83802751 -73.08473567 57.86221422 -94.02734375 57.83886719 C-95.10496475 57.83390228 -96.18258575 57.82893738 -97.29286194 57.82382202 C-100.84108126 57.80927594 -104.38925582 57.80240987 -107.9375 57.796875 C-109.76655884 57.79263393 -109.76655884 57.79263393 -111.63256836 57.78830719 C-118.08952041 57.77334257 -124.5464503 57.76409676 -131.00341797 57.75976562 C-137.63579557 57.75429495 -144.26796119 57.73028854 -150.90028381 57.70179367 C-156.03249684 57.68306132 -161.16466121 57.677956 -166.29690552 57.67642975 C-168.7398491 57.67342497 -171.18279228 57.66547107 -173.6257019 57.65224457 C-191.39089569 57.56294894 -207.7671622 57.89519257 -224 66 Z " fill="#000000" transform="translate(394,94)"/>
<path d="M0 0 C1.7000972 -0.00788544 1.7000972 -0.00788544 3.43453979 -0.01593018 C7.14270228 -0.02902279 10.85042768 -0.02043003 14.55859375 -0.01025391 C17.15828533 -0.01227772 19.75797636 -0.01519171 22.35766602 -0.01895142 C27.79091357 -0.02336026 33.22399999 -0.01728112 38.65722656 -0.00292969 C44.90802016 0.01339227 51.15852003 0.00810204 57.40930653 -0.0084089 C63.4620291 -0.02374701 69.51460986 -0.02201726 75.56735229 -0.0132637 C78.12523439 -0.01127244 80.68312407 -0.01368293 83.24099731 -0.02070236 C86.82492502 -0.02838082 90.40830057 -0.01662288 93.9921875 0 C95.0335788 -0.00607269 96.07497009 -0.01214539 97.1479187 -0.0184021 C110.97673423 0.09952293 122.91137219 3.94484701 133.1484375 13.38818359 C144.06204267 25.20164204 146.14861092 40.61842863 146.14135742 56.02001953 C146.14471603 57.05529785 146.14807465 58.09057617 146.15153503 59.15722656 C146.16099388 62.56234962 146.16298565 65.96742323 146.1640625 69.37255859 C146.16727877 71.75376404 146.17064311 74.13496928 146.17414856 76.51617432 C146.18012729 81.50248675 146.18198977 86.48878189 146.18139648 91.47509766 C146.18129497 97.84102789 146.19494149 104.20684632 146.21216869 110.57275009 C146.22332841 115.49034121 146.22531447 120.40790564 146.22478676 125.32550812 C146.22596111 127.67127111 146.23035202 130.01703491 146.23811913 132.36278534 C146.2479987 135.65485801 146.24500962 138.94669241 146.23901367 142.23876953 C146.24463318 143.19293762 146.25025269 144.14710571 146.25604248 145.13018799 C146.18796558 159.95901948 143.366755 173.33747898 132.99609375 184.38818359 C121.45442457 195.14736673 107.03275176 197.70154291 91.7800293 197.6628418 C90.71826477 197.66795273 89.65650024 197.67306366 88.56256104 197.67832947 C85.0859193 197.69212062 81.60947817 197.69127649 78.1328125 197.68896484 C75.69342476 197.69285772 73.2540377 197.6971936 70.81465149 197.70195007 C65.71340737 197.70938995 60.61223249 197.70913736 55.51098633 197.70385742 C49.00514939 197.69806805 42.49959763 197.71499221 35.99380779 197.7382021 C30.95860667 197.75300361 25.9234732 197.75380238 20.88825417 197.75069237 C18.49111174 197.75120243 16.0939652 197.75638025 13.6968441 197.76650429 C-6.20262819 197.84023902 -24.36775258 197.52713224 -39.671875 183.11474609 C-48.67233195 172.59159877 -51.30961105 160.12373956 -51.27856445 146.63891602 C-51.28367538 145.48498856 -51.28878632 144.3310611 -51.29405212 143.14216614 C-51.3079068 139.34260819 -51.30699426 135.54323249 -51.3046875 131.74365234 C-51.30759302 129.76206611 -51.31050379 127.78047981 -51.31409425 125.7988947 C-51.3251621 119.57237297 -51.32564267 113.34591156 -51.31958008 107.11938477 C-51.31354641 100.72211546 -51.32584197 94.32506643 -51.34715015 87.92783469 C-51.36483721 82.41245866 -51.37075625 76.89715228 -51.3675124 71.38174897 C-51.36571017 68.09783038 -51.36956643 64.81410247 -51.38222694 61.53020287 C-51.3946335 57.86184351 -51.38777359 54.19398675 -51.3762207 50.52563477 C-51.38386444 49.45566254 -51.39150818 48.38569031 -51.39938354 47.28329468 C-51.31016228 34.39476122 -47.75967405 22.11832383 -38.81640625 12.57568359 C-28.0489865 2.5012166 -14.34188755 -0.08363223 0 0 Z M99.99609375 24.38818359 C97.2529647 28.28165708 96.4528638 31.75500435 96.640625 36.43115234 C97.39046841 40.5594111 99.91880461 43.27241984 102.74609375 46.20068359 C106.83534202 48.35889796 110.71920624 49.01102782 115.15234375 47.79833984 C119.46363834 45.92421365 122.37769526 43.6573742 124.43359375 39.38037109 C125.51380276 35.55463087 125.18674804 32.15174602 123.99609375 28.38818359 C121.90070555 24.74065598 119.11657747 21.56546466 114.99609375 20.38818359 C108.59799675 19.75886258 105.17494079 20.52943482 99.99609375 24.38818359 Z M-0.00390625 58.38818359 C-11.79838027 72.9246208 -15.08797198 89.13766708 -14.00390625 107.38818359 C-12.02821558 121.92491679 -3.1754811 136.6642048 8.0390625 145.89208984 C21.26617185 155.7644396 36.42570276 160.95697801 52.99609375 159.38818359 C71.36908391 156.1448072 86.28377868 148.25885501 97.953125 133.38818359 C107.46872634 119.41498697 110.82880591 103.25299746 107.7734375 86.63818359 C103.64962364 69.39691156 94.1474157 55.68925897 79.18847656 46.1940918 C53.06587243 30.47619212 20.57598407 36.01036214 -0.00390625 58.38818359 Z " fill="#000000" transform="translate(207.00390625,172.61181640625)"/>
<path d="M0 0 C9.47574402 6.56716622 15.76522542 14.92830873 18.4140625 26.16796875 C20.14334049 36.60768399 18.78747681 47.18111044 13.2578125 56.32421875 C6.04326863 66.00860647 -2.44445803 71.82202999 -14.1640625 74.71484375 C-26.55549186 75.87823122 -36.86329301 73.80188591 -47.03125 66.53125 C-54.67256741 60.02353462 -60.31077954 51.77532028 -61.3828125 41.6484375 C-62.28122154 28.73380756 -60.71984535 17.96801809 -52.13671875 7.78125 C-38.31423115 -6.6981479 -17.50010352 -10.39266076 0 0 Z " fill="#000000" transform="translate(275.1640625,236.28515625)"/>
</svg>
