<?xml version="1.0" encoding="UTF-8"?>
<svg version="1.1" xmlns="http://www.w3.org/2000/svg" width="1829" height="512">
<path d="M0 0 C0.03867187 1.95679687 0.03867187 1.95679687 0.078125 3.953125 C0.83086406 30.40797456 13.12982123 46.76883525 29 67 C60.94736105 107.73288534 60.94736105 107.73288534 59 132 C58.67 132.99 58.34 133.98 58 135 C58.89525391 135.12955078 58.89525391 135.12955078 59.80859375 135.26171875 C89.0900283 140.00417992 122.71064686 153.69742574 142 177 C150.04429678 188.61805259 153.42741531 199.86145131 152 214 C151.13203822 217.95514404 149.79393332 221.37817878 148 225 C147.43345703 226.2065625 147.43345703 226.2065625 146.85546875 227.4375 C133.59133228 252.44300198 102.81864869 265.55664587 77.25390625 273.47265625 C13.74159466 292.29593297 -63.46437444 291.0808678 -123 260.0625 C-140.79835557 250.36097613 -154.44888321 237.88813596 -162 219 C-164.68277068 208.87863787 -163.47103218 198.38287034 -159 189 C-142.26280726 161.15505407 -110.07229064 147.97990756 -80.5 138.5 C-79.70480957 138.24452393 -78.90961914 137.98904785 -78.09033203 137.72583008 C-74.54665164 136.63022361 -71.74047061 136 -68 136 C-67.77828125 136.66902344 -67.5565625 137.33804688 -67.328125 138.02734375 C-61.37988014 154.08329454 -49.34904299 167.25786146 -38.89892578 180.57861328 C-8.2880265 219.61164221 -8.2880265 219.61164221 -7 237 C0.84616557 228.93588539 2.60876005 219.76617205 2.47021484 208.83813477 C1.59822588 186.50915523 -12.33069808 168.90573172 -26.0625 152.4375 C-43.68318007 131.26386339 -55.33132497 111.20060564 -53 83 C-51.51402817 73.76641406 -47.57787064 65.72486216 -41 59 C-38.24609375 57.69921875 -38.24609375 57.69921875 -36 57 C-35.94392578 58.52367187 -35.94392578 58.52367187 -35.88671875 60.078125 C-34.693359 87.09354807 -21.23065844 104.69142756 -4.078125 124.4375 C5.14873136 135.07747851 13.8712324 145.82554623 21 158 C21.45117188 158.73863281 21.90234375 159.47726563 22.3671875 160.23828125 C26.33794963 167.70157504 26.32169215 176.72642926 27 185 C35.71801147 176.64223694 38.00666438 167.67290712 38.375 155.8125 C37.99990058 135.99145701 27.60279882 120.49211095 15.41601562 105.72216797 C-3.20764084 83.07194854 -20.62217006 59.76253166 -18 29 C-16.29547677 17.85504044 -12.54457987 8.46146781 -3.76953125 1.1796875 C-2 0 -2 0 0 0 Z " fill="#000000" transform="translate(289,79)"/>
<path d="M0 0 C0.00238835 0.9797539 0.00477671 1.95950781 0.00723743 2.96895123 C0.06600303 26.79632579 0.14186762 50.623599 0.23571491 74.45086193 C0.28070172 85.97349827 0.32010974 97.4961035 0.34643555 109.01879883 C0.36939225 119.06067893 0.4027642 129.10246083 0.44870156 139.14426309 C0.47266516 144.46249977 0.49137338 149.78063899 0.49761391 155.09892845 C0.50365055 160.10332816 0.52359897 165.10747842 0.55427551 170.11178589 C0.56307854 171.94959597 0.56677365 173.78743862 0.56500816 175.62526894 C0.56335957 178.13301185 0.58001884 180.63999057 0.60127258 183.14762878 C0.59642501 183.8762357 0.59157743 184.60484262 0.58658296 185.35552853 C0.64782016 189.72842681 1.31220675 192.51993967 4 196 C6.43148333 197.21574166 7.51820532 196.96497901 10.1875 196.625 C10.98414063 196.52574219 11.78078125 196.42648437 12.6015625 196.32421875 C15.73740224 195.90031859 18.87012057 195.46615226 22 195 C22 197.97 22 200.94 22 204 C16.88798792 206.00938109 11.76965275 208.00134334 6.64453125 209.97705078 C4.88245612 210.65865111 3.12202731 211.34452299 1.36328125 212.03466797 C-1.19075586 213.03538094 -3.75073864 214.0192572 -6.3125 215 C-7.10567627 215.31461182 -7.89885254 215.62922363 -8.71606445 215.95336914 C-16.06145625 218.73068017 -16.06145625 218.73068017 -20 217 C-21.765625 215.14453125 -21.765625 215.14453125 -23.25 212.8125 C-23.75015625 212.05582031 -24.2503125 211.29914063 -24.765625 210.51953125 C-26.16001809 207.6733808 -26.61919545 205.13257074 -27 202 C-28.03898437 202.74765625 -29.07796875 203.4953125 -30.1484375 204.265625 C-44.78739794 214.65751217 -56.83189931 219.44473124 -75 218 C-90.18494163 215.412012 -102.19530044 207.7592831 -112 196 C-122.76435881 180.15557996 -125.79957211 160.37375815 -122.31640625 141.64453125 C-117.79800933 123.55219504 -108.01348869 108.83245803 -92 99 C-80.22303274 92.05095614 -69.17018596 89.76356222 -55.625 89.5625 C-54.24477661 89.52890381 -54.24477661 89.52890381 -52.83666992 89.49462891 C-46.99834258 89.5139898 -41.73125731 90.45658473 -36.12255859 92.03100586 C-35.43437546 92.21954887 -34.74619232 92.40809189 -34.03715515 92.60234833 C-32.35678491 93.06345388 -30.67820006 93.53105754 -29 94 C-29.08433959 85.57670118 -29.17919771 77.15361487 -29.28752708 68.73059368 C-29.33749615 64.81953677 -29.383826 60.90850694 -29.421875 56.99731445 C-29.45872031 53.22355715 -29.50507793 49.45002617 -29.55806351 45.67646217 C-29.57661153 44.23599017 -29.59171801 42.79546965 -29.60334396 41.35492516 C-29.62019865 39.33897807 -29.65036894 37.32315556 -29.68115234 35.30737305 C-29.69447601 34.15931686 -29.70779968 33.01126068 -29.7215271 31.82841492 C-29.79612833 28.79609334 -29.79612833 28.79609334 -32 26 C-38.11853432 24.94233515 -44.14172757 26.26421558 -50 28 C-50 24.7 -50 21.4 -50 18 C-44.68001191 15.75739813 -39.35977413 13.51539004 -34.03930664 11.27392578 C-32.23031899 10.51171825 -30.42139903 9.74935006 -28.61254883 8.98681641 C-26.00880535 7.88922297 -23.40481699 6.79221233 -20.80078125 5.6953125 C-19.99538406 5.3556546 -19.18998688 5.0159967 -18.36018372 4.66604614 C-16.87335661 4.03999813 -15.38495969 3.41765923 -13.89468384 2.79986572 C-12.37654886 2.15896506 -10.87814323 1.47141372 -9.38745117 0.76904297 C-6.22046692 -0.25110228 -3.30823095 -0.04745478 0 0 Z M-81.75 113.6875 C-92.71634941 127.29389649 -94.44757607 144.10715497 -93 161 C-91.38007913 173.05088052 -87.04240429 183.98605019 -78.0625 192.46484375 C-68.95696304 199.24226046 -59.06341498 200.88757341 -48 200 C-40.84093327 198.39585573 -34.96540088 195.46506386 -30 190 C-28.53831925 187.07663851 -28.82402384 184.4634555 -28.77539062 181.19873047 C-28.75830551 180.14955193 -28.75830551 180.14955193 -28.74087524 179.07917786 C-28.63012101 171.75321145 -28.58277119 164.4262367 -28.54003906 157.09960938 C-28.51779239 153.62677388 -28.47606972 150.15501789 -28.41699219 146.68261719 C-28.34572076 142.4850742 -28.30918025 138.28854437 -28.29692078 134.0904274 C-28.28654876 132.49483031 -28.26419207 130.89926209 -28.22932434 129.3040123 C-27.80586202 119.04282166 -27.80586202 119.04282166 -32.25585938 110.10986328 C-38.60283763 104.04098546 -47.06838129 101.63887087 -55.69921875 101.78515625 C-65.53115713 102.70324897 -74.95703206 106.42605151 -81.75 113.6875 Z " fill="#000000" transform="translate(1448,131)"/>
<path d="M0 0 C18.96308287 -0.36926965 37.02862801 3.139751 54.97265625 9.12109375 C54.97265625 24.96109375 54.97265625 40.80109375 54.97265625 57.12109375 C52.33265625 57.12109375 49.69265625 57.12109375 46.97265625 57.12109375 C46.60914063 55.93773437 46.245625 54.754375 45.87109375 53.53515625 C42.39867738 42.50903869 39.04187209 31.89470733 29.97265625 24.12109375 C29.43382812 23.62996094 28.895 23.13882813 28.33984375 22.6328125 C19.54161872 15.21506211 8.8056836 13.37556199 -2.44921875 13.74609375 C-12.24454566 14.77267823 -19.58258961 18.64678345 -26.02734375 26.12109375 C-30.94011297 33.01224841 -30.95602093 40.94304878 -30.02734375 49.12109375 C-27.49344432 58.7869236 -21.04110124 64.99916731 -12.7265625 70.046875 C-2.42261309 75.92766564 8.23942038 81.21787829 18.8203125 86.578125 C37.62602701 96.18588714 54.15296903 108.30310117 60.97265625 129.12109375 C64.65413927 142.12278695 62.25509916 157.9353804 56.65234375 169.953125 C47.95485857 185.42324208 34.4577649 194.14266715 17.67578125 199.09375 C-7.88117667 204.98940016 -35.50478439 201.2952802 -60.02734375 193.12109375 C-60.02734375 175.63109375 -60.02734375 158.14109375 -60.02734375 140.12109375 C-57.38734375 140.12109375 -54.74734375 140.12109375 -52.02734375 140.12109375 C-51.73601563 141.14847656 -51.4446875 142.17585937 -51.14453125 143.234375 C-46.58223721 158.86193444 -39.94641997 173.05997142 -25.453125 181.87109375 C-14.17952275 187.68035739 -2.44615303 188.96872807 9.91015625 185.87109375 C19.70209016 182.7376749 27.46778716 178.35981569 32.34765625 168.93359375 C35.86429916 161.42632563 36.49775626 152.78643657 33.9140625 144.8828125 C26.25202708 128.5412898 11.22911969 121.64681879 -4.23828125 114.0546875 C-5.34301285 113.51056969 -5.34301285 113.51056969 -6.47006226 112.95545959 C-10.18827129 111.12676926 -13.9136733 109.31667832 -17.65576172 107.53735352 C-36.61876342 98.39111887 -50.96685282 86.64970537 -58.40234375 66.37109375 C-61.49002251 51.09185867 -58.29641514 36.1517898 -50.02734375 23.12109375 C-40.8907121 9.80771621 -24.84677897 3.63511589 -9.6171875 0.6484375 C-6.41425727 0.22337573 -3.22679019 0.12907161 0 0 Z " fill="#000000" transform="translate(574.02734375,148.87890625)"/>
<path d="M0 0 C0.495 8.415 0.495 8.415 1 17 C2.5675 15.63875 4.135 14.2775 5.75 12.875 C15.6067539 4.80922844 26.41967147 -0.41450023 39.3125 -0.3125 C40.06015625 -0.30686035 40.8078125 -0.3012207 41.578125 -0.29541016 C52.47287687 -0.05702845 61.02701134 3.29851082 68.9765625 10.88671875 C80.53744114 23.40690434 81.12739777 38.3294147 81.16866493 54.60782814 C81.17591511 56.87387067 81.19163759 59.13970706 81.21000671 61.40568542 C81.26212053 67.84131297 81.31052639 74.27681172 81.32592773 80.71264648 C81.33600171 84.66547736 81.3652884 88.61776356 81.40724754 92.57037926 C81.41954828 94.07142714 81.42468047 95.57255183 81.42244911 97.07364845 C81.42009871 99.16794009 81.44223053 101.2606575 81.4699707 103.35473633 C81.47583694 104.54448563 81.48170319 105.73423492 81.48774719 106.96003723 C82.10609419 110.62961567 83.0737856 111.76947367 86 114 C89.47358779 115.33676483 89.47358779 115.33676483 93.25 116.25 C94.51328125 116.58515625 95.7765625 116.9203125 97.078125 117.265625 C98.04234375 117.50796875 99.0065625 117.7503125 100 118 C100 120.31 100 122.62 100 125 C77.89 125 55.78 125 33 125 C33 122.69 33 120.38 33 118 C34.44632813 117.65388672 34.44632813 117.65388672 35.921875 117.30078125 C37.18515625 116.97464844 38.4484375 116.64851563 39.75 116.3125 C41.00296875 115.99925781 42.2559375 115.68601562 43.546875 115.36328125 C47.55494832 113.78090841 48.70927098 112.60154053 51 109 C51.59595972 105.65847039 51.59595972 105.65847039 51.50170898 101.96582031 C51.50711197 101.27728973 51.51251495 100.58875916 51.51808167 99.87936401 C51.53054838 97.6118416 51.51408645 95.34559478 51.49609375 93.078125 C51.49624886 91.49257338 51.4977398 89.90702138 51.50050354 88.32147217 C51.50188685 84.99930034 51.48934697 81.67756055 51.46655273 78.35546875 C51.43826081 74.11776402 51.44088095 69.88078184 51.45364285 65.64302444 C51.46063489 62.36739039 51.45276924 59.09192019 51.44038582 55.81630707 C51.4358989 54.25516134 51.43551015 52.69399784 51.43945122 51.13285065 C51.45214182 41.67717939 51.22403696 33.58006397 46.375 25.1875 C40.23964431 19.5365145 33.54117898 18.27306461 25.34375 18.55078125 C19.74277269 19.303249 14.8943758 21.21247471 10 24 C9.33815201 24.2820076 8.67630402 24.5640152 7.99440002 24.85456848 C5.3078284 26.30443084 3.82046533 27.52352709 2 30 C0.79244387 35.88400369 0.9708842 41.70751915 1.078125 47.69140625 C1.08289742 49.44204668 1.08470374 51.19269748 1.0836792 52.94334412 C1.08992505 56.60635832 1.12296925 60.26780107 1.17675781 63.93041992 C1.24477073 68.62046005 1.26001321 73.3087777 1.25697708 77.99925327 C1.25806578 81.61195762 1.28001924 85.22428694 1.30898285 88.83686638 C1.32169095 90.56596987 1.32959013 92.29511574 1.33255768 94.02426338 C1.34125238 96.44212045 1.37630313 98.85816823 1.41894531 101.27563477 C1.41713257 101.98694046 1.41531982 102.69824615 1.41345215 103.43110657 C1.53608895 108.19656724 2.57056064 110.69183328 6 114 C9.45956731 115.45274224 9.45956731 115.45274224 13.25 116.3125 C14.51328125 116.63863281 15.7765625 116.96476562 17.078125 117.30078125 C18.04234375 117.53152344 19.0065625 117.76226562 20 118 C20 120.31 20 122.62 20 125 C-1.78 125 -23.56 125 -46 125 C-46 122.69 -46 120.38 -46 118 C-44.5459375 117.5978125 -44.5459375 117.5978125 -43.0625 117.1875 C-42.43214844 117.00316406 -41.80179688 116.81882812 -41.15234375 116.62890625 C-39.62818798 116.18355402 -38.09890974 115.75556299 -36.56640625 115.33984375 C-35.35791016 114.98599609 -35.35791016 114.98599609 -34.125 114.625 C-33.36445312 114.41101563 -32.60390625 114.19703125 -31.8203125 113.9765625 C-29.8752057 113.18826447 -29.8752057 113.18826447 -29.39431763 111.42236328 C-28.84329506 108.03733372 -28.86108997 104.68495449 -28.87060547 101.265625 C-28.86885315 100.49118042 -28.86710083 99.71673584 -28.86529541 98.91882324 C-28.86089934 96.36252594 -28.863807 93.80629799 -28.8671875 91.25 C-28.86651382 89.47167955 -28.86554325 87.69335919 -28.86428833 85.91503906 C-28.8628144 82.1894442 -28.86495615 78.46387332 -28.86962891 74.73828125 C-28.87532601 69.96329845 -28.87204538 65.18837185 -28.86605644 60.41339111 C-28.86244263 56.74169491 -28.8635932 53.07001203 -28.86618423 49.39831543 C-28.86685123 47.63765455 -28.86603302 45.87699247 -28.86370468 44.11633301 C-28.86116474 41.65564775 -28.86503774 39.19505348 -28.87060547 36.734375 C-28.86858124 36.0069812 -28.86655701 35.2795874 -28.86447144 34.53015137 C-28.87838451 31.21029414 -28.97038688 28.174369 -30 25 C-31.7290774 24.97274659 -33.45828176 24.95349013 -35.1875 24.9375 C-36.15042969 24.92589844 -37.11335937 24.91429687 -38.10546875 24.90234375 C-40.85576513 24.99513378 -43.32479591 25.37888315 -46 26 C-46 22.7 -46 19.4 -46 16 C-40.74257159 13.70273901 -35.4773224 11.42483819 -30.20410156 9.1640625 C-28.41344329 8.39321936 -26.62498594 7.61724155 -24.83886719 6.8359375 C-22.26286015 5.71019084 -19.67935752 4.60348627 -17.09375 3.5 C-16.30383667 3.15001953 -15.51392334 2.80003906 -14.70007324 2.43945312 C-13.93988892 2.11912109 -13.17970459 1.79878906 -12.39648438 1.46875 C-11.73918335 1.18451172 -11.08188232 0.90027344 -10.40466309 0.60742188 C-8 0 -8 0 0 0 Z " fill="#000000" transform="translate(833,221)"/>
<path d="M0 0 C0.495 8.91 0.495 8.91 1 18 C1.886875 17.01 2.77375 16.02 3.6875 15 C13.76615613 4.96214815 25.47514032 -0.20160948 39.5 -0.375 C50.99634299 -0.25749905 61.72644232 2.63047967 70.04296875 11.07421875 C79.93131729 23.15529276 81.28820398 36.1410308 81.27439499 51.2385807 C81.27341817 53.59746984 81.28650238 55.95591764 81.30337524 58.31474304 C81.34932966 65.01326261 81.37427867 71.71172813 81.38085938 78.41040039 C81.38587497 82.52644347 81.41010942 86.64201219 81.44618607 90.75789452 C81.45596637 92.31953267 81.45832565 93.88123614 81.45301437 95.44289589 C81.44593857 97.62301167 81.46322808 99.80170791 81.48583984 101.98168945 C81.48868988 103.21949661 81.49153992 104.45730377 81.49447632 105.73262024 C82.09675066 109.62533402 83.21260413 111.25999239 86 114 C89.45956731 115.45274224 89.45956731 115.45274224 93.25 116.3125 C94.51328125 116.63863281 95.7765625 116.96476562 97.078125 117.30078125 C98.04234375 117.53152344 99.0065625 117.76226562 100 118 C100 120.31 100 122.62 100 125 C77.89 125 55.78 125 33 125 C33 122.69 33 120.38 33 118 C33.96421875 117.75765625 34.9284375 117.5153125 35.921875 117.265625 C37.18515625 116.93046875 38.4484375 116.5953125 39.75 116.25 C41.00296875 115.92515625 42.2559375 115.6003125 43.546875 115.265625 C47.23141629 113.91518227 48.63609425 113.07624662 51 110 C51.60686593 106.6843815 51.60686593 106.6843815 51.51757812 102.91162109 C51.5245874 102.20533569 51.53159668 101.49905029 51.53881836 100.7713623 C51.55640832 98.43831932 51.54476567 96.10649272 51.53125 93.7734375 C51.53394646 92.1440101 51.53783016 90.51458427 51.54284668 88.88516235 C51.54874456 85.46706855 51.54017652 82.04939282 51.52148438 78.63134766 C51.49880278 74.27364588 51.51174652 69.91693548 51.53577423 65.55927086 C51.5503177 62.19093539 51.54558554 58.82282973 51.53526306 55.45448685 C51.53261363 53.84950262 51.53580205 52.24449682 51.54518127 50.63953781 C51.70225626 37.77754278 51.70225626 37.77754278 47 26 C40.54175834 19.72959352 35.05971257 18.61918636 26.22265625 18.7265625 C20.96421483 19.17273329 16.74886649 20.79598598 12 23 C11.11786835 23.37748383 10.23573669 23.75496765 9.32687378 24.14389038 C6.23000093 25.81193075 4.24485609 27.27043918 2 30 C0.53779504 35.9254441 0.73558384 41.71973204 0.8828125 47.7890625 C0.89132138 49.53826486 0.89597083 51.28748986 0.89694214 53.03671265 C0.90924614 56.69414387 0.95449993 60.34911182 1.02587891 64.00585938 C1.11656215 68.68806984 1.14593853 73.36805787 1.15335274 78.05106544 C1.16221806 81.65953391 1.1928367 85.26753822 1.2311058 88.8758049 C1.24883288 90.60210745 1.26231098 92.32845915 1.27142715 94.05482864 C1.28955951 96.46789649 1.33436434 98.87897748 1.38720703 101.29150391 C1.38853638 102.00123856 1.38986572 102.71097321 1.39123535 103.44221497 C1.53463574 108.19683192 2.5805123 110.69687063 6 114 C9.45956731 115.45274224 9.45956731 115.45274224 13.25 116.3125 C14.51328125 116.63863281 15.7765625 116.96476562 17.078125 117.30078125 C18.04234375 117.53152344 19.0065625 117.76226562 20 118 C20 120.31 20 122.62 20 125 C-1.78 125 -23.56 125 -46 125 C-46 122.69 -46 120.38 -46 118 C-45.10796875 117.75765625 -44.2159375 117.5153125 -43.296875 117.265625 C-41.54117187 116.76289063 -41.54117187 116.76289063 -39.75 116.25 C-38.00976562 115.76273438 -38.00976562 115.76273438 -36.234375 115.265625 C-32.6979398 113.88180253 -31.27838501 113.01021872 -29 110 C-28.6104033 107.22196331 -28.46240073 104.84171461 -28.49829102 102.06616211 C-28.49288803 101.2706041 -28.48748505 100.47504608 -28.48191833 99.65538025 C-28.46942346 97.02898823 -28.48592499 94.40369069 -28.50390625 91.77734375 C-28.50375129 89.95178673 -28.50226289 88.12622937 -28.49949646 86.30067444 C-28.49811218 82.47658732 -28.51067646 78.65287515 -28.53344727 74.82885742 C-28.56185216 69.92356718 -28.55908955 65.01889901 -28.54635715 60.11356258 C-28.53940792 56.34492158 -28.54718025 52.57642479 -28.55961418 48.8078022 C-28.56413463 46.99887202 -28.56446032 45.1899264 -28.56054878 43.3809948 C-28.55764342 40.85515379 -28.57410976 38.33017545 -28.59594727 35.80444336 C-28.59144562 35.05475281 -28.58694397 34.30506226 -28.58230591 33.53265381 C-28.63205064 29.53009381 -28.63205064 29.53009381 -30.3948822 26.0327301 C-32.5070025 24.67379544 -33.87814545 24.66478312 -36.375 24.75 C-37.56029297 24.78867188 -37.56029297 24.78867188 -38.76953125 24.828125 C-41.24095064 25.01856712 -43.59887937 25.38035597 -46 26 C-46 23.03 -46 20.06 -46 17 C-37.70205597 12.74969624 -29.31485413 8.80708682 -20.75 5.125 C-19.63109375 4.62742188 -18.5121875 4.12984375 -17.359375 3.6171875 C-15.7196875 2.91335937 -15.7196875 2.91335937 -14.046875 2.1953125 C-12.59039551 1.56133545 -12.59039551 1.56133545 -11.10449219 0.91455078 C-8 0 -8 0 0 0 Z " fill="#000000" transform="translate(1213,221)"/>
<path d="M0 0 C9.67986325 6.60659868 14.29643061 15.45334776 16.7421875 26.71484375 C17.27206737 32.20444638 17.30086911 37.64559811 17.28125 43.15625 C17.29118276 44.69751871 17.30313366 46.23877558 17.31698608 47.78001404 C17.3490333 51.79461824 17.35971414 55.80894993 17.36383057 59.82366943 C17.37266206 66.27884579 17.40812191 72.73380253 17.4560051 79.18879509 C17.46855267 81.43344894 17.46783736 83.67781896 17.46572876 85.92250061 C17.47230721 87.29542256 17.4793131 88.66834256 17.48681641 90.04125977 C17.48807526 91.23670914 17.48933411 92.43215851 17.4906311 93.66383362 C17.7336514 96.61131339 18.1026611 98.28239762 19.7421875 100.71484375 C25.2619084 103.4747042 32.0847786 101.10743671 37.7421875 99.71484375 C37.7421875 102.68484375 37.7421875 105.65484375 37.7421875 108.71484375 C29.68805937 112.22969353 21.50190175 115.42670803 13.3046875 118.58984375 C12.25023437 119.00741943 11.19578125 119.42499512 10.109375 119.85522461 C9.10261719 120.2394458 8.09585938 120.62366699 7.05859375 121.01953125 C6.15568604 121.36999512 5.25277832 121.72045898 4.32250977 122.08154297 C1.34544564 122.81221799 -0.35988655 122.67991034 -3.2578125 121.71484375 C-7.85518229 117.01055838 -10.2578125 113.31160443 -10.2578125 106.71484375 C-14.1413404 108.86317833 -17.81979621 111.09198827 -21.4453125 113.65234375 C-32.36330419 121.04356149 -43.22653039 123.70206209 -56.2578125 122.71484375 C-64.13919063 120.92753669 -71.23191233 116.48611822 -75.60546875 109.58984375 C-79.9931042 101.03474095 -81.03338112 90.96516376 -78.38671875 81.6484375 C-70.775496 65.30302472 -50.65218303 60.23641118 -35 54.52636719 C-27.76145046 51.89769528 -20.51309431 49.2969483 -13.2578125 46.71484375 C-12.26370234 31.13296747 -12.26370234 31.13296747 -17.2578125 16.71484375 C-17.8353125 15.74546875 -18.4128125 14.77609375 -19.0078125 13.77734375 C-22.67953457 10.41159852 -26.49930536 8.83519746 -31.49609375 8.6171875 C-38.51797495 9.11441916 -43.92954324 11.68380035 -49.1953125 16.27734375 C-51.90111444 19.47510968 -52.40978371 21.9003507 -52.4453125 25.96484375 C-52.46658203 27.05539063 -52.46658203 27.05539063 -52.48828125 28.16796875 C-52.18671461 31.5005357 -51.24193904 34.5251846 -50.2578125 37.71484375 C-52.4612931 38.87091645 -54.66984406 40.01469096 -56.8828125 41.15234375 C-57.50027344 41.47783203 -58.11773438 41.80332031 -58.75390625 42.13867188 C-62.59066861 44.09744003 -65.97525158 45.24705633 -70.2578125 45.71484375 C-73.95280226 38.11042285 -76.01937185 30.89131122 -73.6328125 22.5234375 C-67.73121327 9.06041425 -52.70910703 1.78557901 -39.81640625 -3.375 C-27.23260664 -7.85137452 -11.5297424 -6.56277725 0 0 Z M-24.53930664 61.62207031 C-26.41776282 62.45266218 -28.29958425 63.2752617 -30.18164062 64.09765625 C-31.37595703 64.62617188 -32.57027344 65.1546875 -33.80078125 65.69921875 C-34.89414795 66.18100586 -35.98751465 66.66279297 -37.11401367 67.15917969 C-43.15712022 70.14952487 -47.28155453 73.37529734 -51.2578125 78.71484375 C-53.13675704 84.35167738 -53.00502192 90.47321549 -51.1328125 96.08984375 C-47.53487153 101.12696111 -43.38872645 104.53582184 -37.2578125 105.71484375 C-28.20797072 106.30140757 -20.88380867 102.04225187 -13.2578125 97.71484375 C-11.81856382 96.50412579 -11.81856382 96.50412579 -12.14428711 92.92944336 C-12.14444628 91.24201646 -12.15014333 89.5545847 -12.16015625 87.8671875 C-12.1615712 86.98076065 -12.16298615 86.0943338 -12.16444397 85.18104553 C-12.17006035 82.33811121 -12.18261559 79.49525444 -12.1953125 76.65234375 C-12.20032539 74.72981884 -12.20488866 72.80729271 -12.20898438 70.88476562 C-12.22003509 66.16142826 -12.23731067 61.43814917 -12.2578125 56.71484375 C-16.17451186 56.71484375 -20.99070649 60.04980699 -24.53930664 61.62207031 Z " fill="#000000" transform="translate(741.2578125,226.28515625)"/>
<path d="M0 0 C0.79011475 0.00563965 1.58022949 0.0112793 2.39428711 0.01708984 C13.47338418 0.24712146 21.94752551 3.52569584 30.1015625 11.1640625 C37.1417892 18.68362379 40.21883828 26.89773942 40.29858398 37.09716797 C40.305271 37.77086426 40.31195801 38.44456055 40.31884766 39.13867188 C40.33286478 40.59767754 40.34476938 42.05670471 40.35479546 43.51574326 C40.37126068 45.82813075 40.39450078 48.14035932 40.41969299 50.45266724 C40.49031508 57.02581814 40.55052809 63.59903349 40.60180664 70.17236328 C40.63367815 74.19710373 40.67497231 78.22165969 40.72200203 82.24625015 C40.73797078 83.77635493 40.7503159 85.30650213 40.75890923 86.83666611 C40.77112555 88.9809813 40.79530059 91.12486624 40.82202148 93.26904297 C40.83748268 95.09627396 40.83748268 95.09627396 40.85325623 96.9604187 C41.13246395 100.40457113 41.78383193 103.13282507 43.125 106.3125 C47.06736098 108.28368049 51.22886141 107.59364152 55.3125 106.3125 C56.240625 105.9825 57.16875 105.6525 58.125 105.3125 C59.445 105.3125 60.765 105.3125 62.125 105.3125 C62.125 108.2825 62.125 111.2525 62.125 114.3125 C56.95336199 116.34088441 51.77562368 118.35248174 46.59155273 120.34887695 C44.82936386 121.03018317 43.06892073 121.7160229 41.31030273 122.40649414 C38.78034971 123.39889876 36.24454126 124.37476439 33.70703125 125.34765625 C32.92350784 125.65905045 32.13998444 125.97044464 31.3327179 126.29127502 C24.33550628 128.9409329 24.33550628 128.9409329 20.125 127.3125 C18.39453125 125.45703125 18.39453125 125.45703125 16.9375 123.125 C16.44894531 122.36832031 15.96039062 121.61164063 15.45703125 120.83203125 C13.9934604 118.06369343 13.03819708 115.30311224 12.125 112.3125 C11.33738281 112.89257812 10.54976562 113.47265625 9.73828125 114.0703125 C-3.39321344 123.55541258 -15.28363691 129.56301675 -31.875 128.3125 C-40.00023413 126.53065041 -46.6998405 123.06697061 -51.375 116.06640625 C-56.26327995 107.60912644 -57.33633678 98.83369207 -55.44921875 89.12109375 C-51.85053421 79.60555364 -42.79786397 73.07240205 -33.93676758 68.94335938 C-25.33280606 65.2529394 -16.6363467 61.90759919 -7.82958984 58.73291016 C-5.58355631 57.92254723 -3.34052667 57.10422828 -1.09765625 56.28515625 C0.33576944 55.76516148 1.76935694 55.2456125 3.203125 54.7265625 C3.87071838 54.48289948 4.53831177 54.23923645 5.22613525 53.9881897 C9.89435173 52.3125 9.89435173 52.3125 12.125 52.3125 C11.80360489 33.80475904 11.80360489 33.80475904 3.25 18.3125 C-2.18064868 14.83688485 -6.24943324 13.8515584 -12.5703125 14.77734375 C-19.47852082 16.38145314 -23.83716096 19.56163833 -27.875 25.3125 C-29.5024202 30.19476059 -29.15541953 34.63248415 -27.86328125 39.55078125 C-27.53714844 40.79214844 -27.21101563 42.03351563 -26.875 43.3125 C-29.45137588 44.68157416 -32.03468104 46.03278455 -34.625 47.375 C-35.35460938 47.76494141 -36.08421875 48.15488281 -36.8359375 48.55664062 C-37.54492188 48.92080078 -38.25390625 49.28496094 -38.984375 49.66015625 C-39.63374023 50.00054932 -40.28310547 50.34094238 -40.95214844 50.69165039 C-43.33685486 51.46162353 -44.56349316 51.22695916 -46.875 50.3125 C-50.53716294 44.6158021 -51.872062 37.96788882 -50.875 31.3125 C-47.42359877 19.74015468 -37.48953589 12.97318803 -27.40234375 7.390625 C-18.17663626 2.56197602 -10.41159301 -0.07807301 0 0 Z M-0.47387695 67.10986328 C-1.76848061 67.65551868 -3.0650033 68.19664638 -4.36352539 68.73291016 C-18.87337886 74.4153348 -18.87337886 74.4153348 -28.25 86.17578125 C-29.85455626 91.66135796 -29.55166899 96.42382822 -27.1875 101.625 C-24.6846957 106.04223004 -21.7418163 108.40079902 -17.1875 110.625 C-6.82368576 112.77598031 1.37978553 108.40212079 10.125 103.3125 C12.54640773 101.33359678 12.54640773 101.33359678 12.35205078 97.50537109 C12.35173346 95.8655258 12.34039681 94.22565983 12.3203125 92.5859375 C12.31606766 91.29171371 12.31606766 91.29171371 12.31173706 89.97134399 C12.30052333 87.2099228 12.27541684 84.4488235 12.25 81.6875 C12.23997173 79.81771301 12.23084562 77.94792095 12.22265625 76.078125 C12.20058012 71.48945891 12.16604234 66.90103407 12.125 62.3125 C8.13737394 62.3125 3.25507467 65.531565 -0.47387695 67.10986328 Z " fill="#000000" transform="translate(1097.875,220.6875)"/>
<path d="M0 0 C0.83402344 0.32871094 1.66804688 0.65742188 2.52734375 0.99609375 C13.60057628 5.92700931 22.44269996 14.69582048 27.21484375 25.8359375 C30.6743343 35.02020779 31 41.6808743 31 52 C2.95 52 -25.1 52 -54 52 C-50.547063 78.13080768 -50.547063 78.13080768 -34.97265625 97.62109375 C-24.19232322 105.15665327 -12.07047567 107.50714602 0.87109375 105.5703125 C8.20515767 103.99246608 14.4021656 101.02857377 20.96875 97.5234375 C23.3976592 96.30272283 25.3519997 95.48027456 28 95 C28.83930977 99.2395904 29.06848227 102.78683767 28 107 C24.16424309 110.959491 19.82178059 113.38169233 15 116 C14.16597656 116.50273437 13.33195312 117.00546875 12.47265625 117.5234375 C-3.31323414 126.42829874 -24.65935013 127.91392775 -41.953125 123.09765625 C-58.44123568 117.15770868 -69.87810896 107.86248384 -77.46875 91.9140625 C-85.61019695 73.12246692 -85.91739659 53.48116832 -78.46484375 34.27734375 C-71.15597002 17.92495692 -58.65297783 6.63799228 -42.28515625 -0.12109375 C-40.19505388 -0.84793467 -38.1504381 -1.48269779 -36 -2 C-35.29230469 -2.18175781 -34.58460937 -2.36351562 -33.85546875 -2.55078125 C-22.92781547 -4.26990591 -10.30179165 -4.19199759 0 0 Z M-46 20 C-50.1038807 26.22588731 -51.34430376 31.54936694 -53 39 C-35.18 39 -17.36 39 1 39 C1 30.37242866 -0.2482469 24.31107986 -4.875 17.0625 C-10.31236904 11.78505358 -15.78738343 9.39741666 -23.3125 8.6875 C-32.9286522 9.50242815 -39.64849133 12.59409068 -46 20 Z " fill="#000000" transform="translate(1564,224)"/>
<path d="M0 0 C2.31 0 4.62 0 7 0 C7 11.55 7 23.1 7 35 C21.19 35 35.38 35 50 35 C48.66666667 39 47.33333333 43 46 47 C33.13 47 20.26 47 7 47 C7.06182993 60.11056273 7.06182993 60.11056273 7.16015625 73.22070312 C7.20838567 78.57300067 7.25246984 83.92509435 7.27099609 89.27758789 C7.2862136 93.59613506 7.32074853 97.91414651 7.36830902 102.2324543 C7.38307055 103.87450041 7.391038 105.51662303 7.39188385 107.15873528 C7.26275473 121.50249683 7.26275473 121.50249683 14.4375 133.4375 C19.58703737 136.57746181 23.9466752 137.82764059 30 137 C33.4258093 136.0675312 36.780834 135.01069145 40.14453125 133.875 C43 133 43 133 46 133 C47.25664978 135.90600261 48 137.79604584 48 141 C46.33520508 142.39453125 46.33520508 142.39453125 44.01953125 143.8125 C43.18486328 144.33070313 42.35019531 144.84890625 41.49023438 145.3828125 C40.60658203 145.91648437 39.72292969 146.45015625 38.8125 147 C37.94818359 147.53367187 37.08386719 148.06734375 36.19335938 148.6171875 C33.80262934 150.09009704 31.40274645 151.54680821 29 153 C28.01902344 153.60457031 27.03804687 154.20914063 26.02734375 154.83203125 C19.50503799 158.58958312 11.03630275 157.39878531 4 155.875 C-4.26336795 153.61466398 -10.80870419 149.50827116 -15.71875 142.40234375 C-20.81950073 132.83843613 -22.13232722 122.16186363 -22.11352539 111.48242188 C-22.11367142 110.77899658 -22.11381744 110.07557129 -22.1139679 109.35083008 C-22.11327869 107.05677052 -22.10553345 104.76279513 -22.09765625 102.46875 C-22.09578854 100.86592656 -22.0943663 99.26310254 -22.09336853 97.66027832 C-22.08957117 93.46490878 -22.07976496 89.26957448 -22.06866455 85.07421875 C-22.05839031 80.78385901 -22.05385809 76.49349352 -22.04882812 72.203125 C-22.03813991 63.80206545 -22.02056597 55.40104118 -22 47 C-28.6 47 -35.2 47 -42 47 C-42 40 -42 40 -40.62988281 38.46191406 C-39.99405273 38.14963867 -39.35822266 37.83736328 -38.703125 37.515625 C-37.99720215 37.14356934 -37.2912793 36.77151367 -36.56396484 36.38818359 C-35.80035645 36.01258301 -35.03674805 35.63698242 -34.25 35.25 C-25.92211954 30.77083343 -19.59622929 25.78059595 -13 19 C-11.97132813 17.96746094 -11.97132813 17.96746094 -10.921875 16.9140625 C-6.19551988 11.87946683 -3.08428604 6.14597658 0 0 Z " fill="#000000" transform="translate(982,191)"/>
<path d="M0 0 C1 1 1 1 1.11352539 3.86743164 C1.10567017 5.74483032 1.10567017 5.74483032 1.09765625 7.66015625 C1.0962413 8.32462265 1.09482635 8.98908905 1.09336853 9.6736908 C1.08775518 11.80333899 1.07520054 13.93288339 1.0625 16.0625 C1.05748671 17.50325369 1.05292351 18.94400903 1.04882812 20.38476562 C1.03778145 23.92321102 1.02050792 27.46159539 1 31 C-1.31 31 -3.62 31 -6 31 C-6.24234375 30.44570312 -6.4846875 29.89140625 -6.734375 29.3203125 C-7.23710938 28.23363281 -7.23710938 28.23363281 -7.75 27.125 C-8.07484375 26.40570313 -8.3996875 25.68640625 -8.734375 24.9453125 C-10.30346194 22.53356775 -11.27911979 21.92098522 -14 21 C-22.83578728 19.94282142 -30.8078121 20.42029551 -38 26 C-43.3591504 31.69287039 -46.11029613 35.71771646 -46.19287109 43.55761719 C-46.20104858 44.23102142 -46.20922607 44.90442566 -46.21765137 45.59823608 C-46.24250159 47.83110669 -46.25902202 50.06391364 -46.2734375 52.296875 C-46.28142302 53.44130947 -46.28142302 53.44130947 -46.28956985 54.60886383 C-46.31630235 58.64873754 -46.33567516 62.68858037 -46.35009766 66.72851562 C-46.36672832 70.8961201 -46.41149136 75.06293114 -46.4624691 79.23023605 C-46.49617313 82.43879067 -46.50767854 85.64715788 -46.51332474 88.85587311 C-46.52003069 90.39165548 -46.53523594 91.92742579 -46.55921555 93.46303558 C-46.5909356 95.61760978 -46.59089514 97.77005707 -46.58349609 99.92480469 C-46.59158295 101.14899109 -46.5996698 102.37317749 -46.60800171 103.63446045 C-45.7869271 108.17944615 -44.28791416 109.78296388 -41 113 C-38.18885467 113.95293062 -35.88177549 114.53375749 -33 115 C-31.16595784 115.37151781 -29.33262455 115.74655137 -27.5 116.125 C-26.00037738 116.41860081 -24.50050978 116.71096738 -23 117 C-23 119.31 -23 121.62 -23 124 C-46.43 124 -69.86 124 -94 124 C-94 121.69 -94 119.38 -94 117 C-93.03578125 116.78085937 -92.0715625 116.56171875 -91.078125 116.3359375 C-89.81484375 116.01882813 -88.5515625 115.70171875 -87.25 115.375 C-85.99703125 115.07335937 -84.7440625 114.77171875 -83.453125 114.4609375 C-79.15042875 112.64056601 -78.18622725 111.08675279 -76 107 C-75.62522184 104.27140003 -75.46075154 101.95577753 -75.49829102 99.23803711 C-75.49288803 98.48441391 -75.48748505 97.73079071 -75.48191833 96.95433044 C-75.46947245 94.47826127 -75.48589182 92.00336424 -75.50390625 89.52734375 C-75.50375118 87.79911742 -75.50226089 86.07089075 -75.49949646 84.34266663 C-75.49811438 80.72722938 -75.51063953 77.11218977 -75.53344727 73.49682617 C-75.56185276 68.86754577 -75.55908631 64.23892466 -75.54635715 59.6095953 C-75.53939607 56.04332365 -75.54719379 52.47720387 -75.55961418 48.91095161 C-75.56412301 47.2041539 -75.56447045 45.49733986 -75.56054878 43.7905407 C-75.55763175 41.40421089 -75.57416534 39.01878393 -75.59594727 36.63256836 C-75.59144562 35.9306134 -75.58694397 35.22865845 -75.58230591 34.50543213 C-75.64749709 30.19754448 -76.31704381 27.40705013 -79 24 C-81.32988847 23.35881637 -81.32988847 23.35881637 -83.875 23.625 C-84.75671875 23.66882813 -85.6384375 23.71265625 -86.546875 23.7578125 C-89.0841393 24.00830675 -91.53376934 24.34233849 -94 25 C-94 22.03 -94 19.06 -94 16 C-85.70205597 11.74969624 -77.31485413 7.80708682 -68.75 4.125 C-67.63109375 3.62742188 -66.5121875 3.12984375 -65.359375 2.6171875 C-64.26625 2.14796875 -63.173125 1.67875 -62.046875 1.1953125 C-60.59039551 0.56133545 -60.59039551 0.56133545 -59.10449219 -0.08544922 C-56 -1 -56 -1 -48 -1 C-47.67 6.26 -47.34 13.52 -47 21 C-45.989375 19.494375 -44.97875 17.98875 -43.9375 16.4375 C-37.77384192 7.70976016 -31.23580302 1.07198209 -20.53125 -1.62109375 C-13.48795042 -2.67541483 -6.69332749 -2.47362103 0 0 Z " fill="#000000" transform="translate(1704,222)"/>
</svg>
